Compu.ufo
<glyph name="ampersand" format="2">
  <advance width="692"/>
  <unicode hex="0026"/>
  <outline>
    <contour>
      <point x="274" y="494" type="line"/>
      <point x="274" y="401" type="line"/>
      <point x="663" y="401" type="line"/>
      <point x="663" y="275" type="line"/>
      <point x="601" y="275" type="line"/>
      <point x="601" y="93" type="line" smooth="yes"/>
      <point x="601" y="63"/>
      <point x="572" y="26"/>
      <point x="527" y="6"/>
      <point x="474" y="0"/>
      <point x="450" y="0" type="qcurve" smooth="yes"/>
      <point x="198" y="0" type="line" smooth="yes"/>
      <point x="174" y="0"/>
      <point x="121" y="6"/>
      <point x="76" y="26"/>
      <point x="46" y="63"/>
      <point x="46" y="93" type="qcurve" smooth="yes"/>
      <point x="46" y="247" type="line" smooth="yes"/>
      <point x="46" y="287"/>
      <point x="84" y="328"/>
      <point x="115" y="336" type="qcurve" smooth="yes"/>
      <point x="122" y="338"/>
      <point x="136" y="339"/>
      <point x="143" y="340" type="qcurve"/>
      <point x="136" y="341"/>
      <point x="122" y="343"/>
      <point x="115" y="345" type="qcurve" smooth="yes"/>
      <point x="85" y="351"/>
      <point x="46" y="393"/>
      <point x="46" y="432" type="qcurve" smooth="yes"/>
      <point x="46" y="587" type="line" smooth="yes"/>
      <point x="46" y="617"/>
      <point x="76" y="654"/>
      <point x="121" y="673"/>
      <point x="175" y="679"/>
      <point x="198" y="679" type="qcurve" smooth="yes"/>
      <point x="599" y="679" type="line"/>
      <point x="599" y="456" type="line"/>
      <point x="583" y="456" type="line"/>
      <point x="574" y="473"/>
      <point x="544" y="494"/>
      <point x="524" y="494" type="qcurve" smooth="yes"/>
    </contour>
    <contour>
      <point x="274" y="278" type="line"/>
      <point x="274" y="185" type="line"/>
      <point x="374" y="185" type="line"/>
      <point x="374" y="278" type="line"/>
    </contour>
  </outline>
</glyph>
<glyph name="parenright" format="2">
  <advance width="373"/>
  <unicode hex="0029"/>
  <outline>
    <contour>
      <point x="240" y="-81" type="qcurve" smooth="yes"/>
      <point x="214" y="-84"/>
      <point x="190" y="-84" type="qcurve" smooth="yes"/>
      <point x="34" y="-84" type="line"/>
      <point x="34" y="81" type="line"/>
      <point x="116" y="81" type="line"/>
      <point x="116" y="617" type="line"/>
      <point x="34" y="617" type="line"/>
      <point x="34" y="780" type="line"/>
      <point x="190" y="780" type="line" smooth="yes"/>
      <point x="214" y="780"/>
      <point x="265" y="775"/>
      <point x="309" y="757"/>
      <point x="337" y="725"/>
      <point x="337" y="698" type="qcurve" smooth="yes"/>
      <point x="337" y="-2" type="line" smooth="yes"/>
      <point x="337" y="-23"/>
      <point x="320" y="-51"/>
      <point x="293" y="-69"/>
      <point x="258" y="-79"/>
    </contour>
  </outline>
</glyph>
<glyph name="plus" format="2">
  <advance width="527"/>
  <unicode hex="002B"/>
  <outline>
    <contour>
      <point x="339" y="111" type="line"/>
      <point x="171" y="111" type="line"/>
      <point x="171" y="264" type="line"/>
      <point x="27" y="264" type="line"/>
      <point x="27" y="432" type="line"/>
      <point x="171" y="432" type="line"/>
      <point x="171" y="576" type="line"/>
      <point x="339" y="576" type="line"/>
      <point x="339" y="432" type="line"/>
      <point x="492" y="432" type="line"/>
      <point x="492" y="264" type="line"/>
      <point x="339" y="264" type="line"/>
    </contour>
  </outline>
</glyph>
<glyph name="comma" format="2">
  <advance width="283"/>
  <unicode hex="002C"/>
  <outline>
    <contour>
      <point x="101" y="1" type="line"/>
      <point x="71" y="10"/>
      <point x="25" y="55"/>
      <point x="25" y="88" type="qcurve" smooth="yes"/>
      <point x="25" y="110"/>
      <point x="45" y="145"/>
      <point x="78" y="169"/>
      <point x="118" y="181"/>
      <point x="138" y="181" type="qcurve" smooth="yes"/>
      <point x="157" y="181"/>
      <point x="198" y="169"/>
      <point x="231" y="145"/>
      <point x="252" y="110"/>
      <point x="252" y="88" type="qcurve" smooth="yes"/>
      <point x="252" y="61"/>
      <point x="233" y="15"/>
      <point x="202" y="-23"/>
      <point x="161" y="-54"/>
      <point x="139" y="-66" type="qcurve"/>
      <point x="101" y="-66" type="line"/>
    </contour>
  </outline>
</glyph>
<glyph name="one" format="2">
  <advance width="408"/>
  <unicode hex="0031"/>
  <outline>
    <contour>
      <point x="346" y="62" type="line" smooth="yes"/>
      <point x="346" y="42"/>
      <point x="375" y="19"/>
      <point x="392" y="13" type="qcurve"/>
      <point x="392" y="0" type="line"/>
      <point x="73" y="0" type="line"/>
      <point x="73" y="13" type="line"/>
      <point x="90" y="19"/>
      <point x="119" y="42"/>
      <point x="119" y="62" type="qcurve" smooth="yes"/>
      <point x="119" y="445" type="line"/>
      <point x="89" y="445" type="line" smooth="yes"/>
      <point x="69" y="445"/>
      <point x="44" y="424"/>
      <point x="34" y="408" type="qcurve"/>
      <point x="18" y="408" type="line"/>
      <point x="18" y="551" type="line"/>
      <point x="60" y="586"/>
      <point x="146" y="652"/>
      <point x="194" y="679" type="qcurve"/>
      <point x="392" y="679" type="line"/>
      <point x="392" y="666" type="line"/>
      <point x="375" y="660"/>
      <point x="346" y="637"/>
      <point x="346" y="617" type="qcurve" smooth="yes"/>
    </contour>
  </outline>
</glyph>
<glyph name="two" format="2">
  <advance width="662"/>
  <unicode hex="0032"/>
  <outline>
    <contour>
      <point x="279" y="494" type="line"/>
      <point x="279" y="474"/>
      <point x="308" y="451"/>
      <point x="325" y="445" type="qcurve"/>
      <point x="325" y="432" type="line"/>
      <point x="57" y="432" type="line"/>
      <point x="57" y="587" type="line" smooth="yes"/>
      <point x="57" y="617"/>
      <point x="87" y="654"/>
      <point x="132" y="673"/>
      <point x="186" y="679"/>
      <point x="209" y="679" type="qcurve" smooth="yes"/>
      <point x="463" y="679" type="line" smooth="yes"/>
      <point x="486" y="679"/>
      <point x="539" y="673"/>
      <point x="584" y="654"/>
      <point x="614" y="617"/>
      <point x="614" y="587" type="qcurve" smooth="yes"/>
      <point x="614" y="370" type="line" smooth="yes"/>
      <point x="614" y="336"/>
      <point x="576" y="298"/>
      <point x="522" y="280"/>
      <point x="463" y="277"/>
      <point x="443" y="277" type="qcurve" smooth="yes"/>
      <point x="435" y="277"/>
      <point x="404" y="278"/>
      <point x="387" y="278" type="qcurve" smooth="yes"/>
      <point x="279" y="278" type="line"/>
      <point x="279" y="185" type="line"/>
      <point x="539" y="185" type="line" smooth="yes"/>
      <point x="559" y="185"/>
      <point x="589" y="206"/>
      <point x="598" y="223" type="qcurve"/>
      <point x="614" y="223" type="line"/>
      <point x="614" y="0" type="line"/>
      <point x="57" y="0" type="line"/>
      <point x="57" y="309" type="line" smooth="yes"/>
      <point x="57" y="339"/>
      <point x="86" y="375"/>
      <point x="131" y="395"/>
      <point x="185" y="402"/>
      <point x="210" y="402" type="qcurve"/>
      <point x="212" y="402"/>
      <point x="253" y="401"/>
      <point x="279" y="401" type="qcurve" smooth="yes"/>
      <point x="387" y="401" type="line"/>
      <point x="387" y="494" type="line"/>
    </contour>
  </outline>
</glyph>
<glyph name="six" format="2">
  <advance width="657"/>
  <unicode hex="0036"/>
  <outline>
    <contour>
      <point x="609" y="92" type="line" smooth="yes"/>
      <point x="609" y="62"/>
      <point x="579" y="25"/>
      <point x="534" y="6"/>
      <point x="480" y="0"/>
      <point x="457" y="0" type="qcurve" smooth="yes"/>
      <point x="197" y="0" type="line" smooth="yes"/>
      <point x="174" y="0"/>
      <point x="121" y="6"/>
      <point x="76" y="25"/>
      <point x="46" y="62"/>
      <point x="46" y="92" type="qcurve" smooth="yes"/>
      <point x="46" y="586" type="line" smooth="yes"/>
      <point x="46" y="616"/>
      <point x="75" y="653"/>
      <point x="120" y="673"/>
      <point x="173" y="679"/>
      <point x="197" y="679" type="qcurve" smooth="yes"/>
      <point x="457" y="679" type="line" smooth="yes"/>
      <point x="481" y="679"/>
      <point x="534" y="673"/>
      <point x="579" y="653"/>
      <point x="609" y="616"/>
      <point x="609" y="586" type="qcurve" smooth="yes"/>
      <point x="609" y="432" type="line"/>
      <point x="335" y="432" type="line"/>
      <point x="335" y="445" type="line"/>
      <point x="351" y="451"/>
      <point x="382" y="474"/>
      <point x="382" y="494" type="qcurve"/>
      <point x="273" y="494" type="line"/>
      <point x="273" y="401" type="line"/>
      <point x="382" y="401" type="line" smooth="yes"/>
      <point x="408" y="401"/>
      <point x="452" y="402"/>
      <point x="456" y="402" type="qcurve" smooth="yes"/>
      <point x="480" y="402"/>
      <point x="534" y="395"/>
      <point x="579" y="375"/>
      <point x="609" y="338"/>
      <point x="609" y="308" type="qcurve" smooth="yes"/>
    </contour>
    <contour>
      <point x="382" y="185" type="line"/>
      <point x="382" y="277" type="line"/>
      <point x="273" y="277" type="line"/>
      <point x="273" y="185" type="line"/>
    </contour>
  </outline>
</glyph>
<glyph name="colon" format="2">
  <advance width="280"/>
  <unicode hex="003A"/>
  <outline>
    <contour>
      <point x="139" y="680" type="qcurve" smooth="yes"/>
      <point x="158" y="680"/>
      <point x="199" y="667"/>
      <point x="231" y="643"/>
      <point x="252" y="609"/>
      <point x="252" y="587" type="qcurve" smooth="yes"/>
      <point x="252" y="565"/>
      <point x="231" y="531"/>
      <point x="199" y="507"/>
      <point x="158" y="495"/>
      <point x="139" y="495" type="qcurve" smooth="yes"/>
      <point x="119" y="495"/>
      <point x="79" y="507"/>
      <point x="46" y="531"/>
      <point x="25" y="565"/>
      <point x="25" y="587" type="qcurve" smooth="yes"/>
      <point x="25" y="609"/>
      <point x="46" y="644"/>
      <point x="79" y="668"/>
      <point x="119" y="680"/>
    </contour>
    <contour>
      <point x="139" y="185" type="qcurve" smooth="yes"/>
      <point x="158" y="185"/>
      <point x="199" y="172"/>
      <point x="231" y="148"/>
      <point x="252" y="114"/>
      <point x="252" y="92" type="qcurve" smooth="yes"/>
      <point x="252" y="70"/>
      <point x="231" y="36"/>
      <point x="199" y="12"/>
      <point x="158" y="0"/>
      <point x="139" y="0" type="qcurve" smooth="yes"/>
      <point x="119" y="0"/>
      <point x="79" y="12"/>
      <point x="46" y="36"/>
      <point x="25" y="70"/>
      <point x="25" y="92" type="qcurve" smooth="yes"/>
      <point x="25" y="114"/>
      <point x="46" y="149"/>
      <point x="79" y="173"/>
      <point x="119" y="185"/>
    </contour>
  </outline>
</glyph>
<glyph name="less" format="2">
  <advance width="400"/>
  <unicode hex="003C"/>
  <outline>
    <contour>
      <point x="25" y="344" type="line"/>
      <point x="289" y="572" type="line"/>
      <point x="372" y="476" type="line"/>
      <point x="220" y="344" type="line"/>
      <point x="373" y="211" type="line"/>
      <point x="290" y="115" type="line"/>
    </contour>
  </outline>
</glyph>
<glyph name="equal" format="2">
  <advance width="486"/>
  <unicode hex="003D"/>
  <outline>
    <contour>
      <point x="44" y="486" type="line"/>
      <point x="449" y="486" type="line"/>
      <point x="449" y="359" type="line"/>
      <point x="44" y="359" type="line"/>
    </contour>
    <contour>
      <point x="44" y="301" type="line"/>
      <point x="449" y="301" type="line"/>
      <point x="449" y="174" type="line"/>
      <point x="44" y="174" type="line"/>
    </contour>
  </outline>
</glyph>
<glyph name="question" format="2">
  <advance width="670"/>
  <unicode hex="003F"/>
  <outline>
    <contour>
      <point x="32" y="432" type="line"/>
      <point x="32" y="587" type="line" smooth="yes"/>
      <point x="32" y="617"/>
      <point x="62" y="654"/>
      <point x="107" y="673"/>
      <point x="161" y="679"/>
      <point x="184" y="679" type="qcurve" smooth="yes"/>
      <point x="487" y="679" type="line" smooth="yes"/>
      <point x="510" y="679"/>
      <point x="563" y="673"/>
      <point x="608" y="654"/>
      <point x="638" y="617"/>
      <point x="638" y="587" type="qcurve" smooth="yes"/>
      <point x="638" y="370" type="line" smooth="yes"/>
      <point x="638" y="341"/>
      <point x="609" y="304"/>
      <point x="565" y="284"/>
      <point x="511" y="277"/>
      <point x="486" y="277" type="qcurve"/>
      <point x="484" y="277"/>
      <point x="444" y="278"/>
      <point x="417" y="278" type="qcurve"/>
      <point x="417" y="258"/>
      <point x="447" y="235"/>
      <point x="463" y="229" type="qcurve"/>
      <point x="463" y="216" type="line"/>
      <point x="143" y="216" type="line"/>
      <point x="143" y="229" type="line"/>
      <point x="161" y="236"/>
      <point x="180" y="250"/>
      <point x="189" y="268"/>
      <point x="190" y="292"/>
      <point x="190" y="309" type="qcurve" smooth="yes"/>
      <point x="190" y="338"/>
      <point x="219" y="375"/>
      <point x="263" y="395"/>
      <point x="317" y="402"/>
      <point x="342" y="402" type="qcurve"/>
      <point x="344" y="402"/>
      <point x="384" y="401"/>
      <point x="411" y="401" type="qcurve"/>
      <point x="411" y="494" type="line"/>
      <point x="259" y="494" type="line"/>
      <point x="259" y="474"/>
      <point x="290" y="451"/>
      <point x="306" y="445" type="qcurve"/>
      <point x="306" y="432" type="line"/>
    </contour>
    <contour>
      <point x="303" y="185" type="qcurve" smooth="yes"/>
      <point x="322" y="185"/>
      <point x="363" y="173"/>
      <point x="396" y="149"/>
      <point x="417" y="115"/>
      <point x="417" y="93" type="qcurve" smooth="yes"/>
      <point x="417" y="70"/>
      <point x="396" y="36"/>
      <point x="363" y="12"/>
      <point x="322" y="0"/>
      <point x="303" y="0" type="qcurve" smooth="yes"/>
      <point x="283" y="0"/>
      <point x="243" y="12"/>
      <point x="210" y="36"/>
      <point x="190" y="70"/>
      <point x="190" y="93" type="qcurve" smooth="yes"/>
      <point x="190" y="115"/>
      <point x="210" y="149"/>
      <point x="243" y="173"/>
      <point x="283" y="185"/>
    </contour>
  </outline>
</glyph>
<glyph name="at" format="2">
  <advance width="909"/>
  <unicode hex="0040"/>
  <outline>
    <contour>
      <point x="881" y="-84" type="line"/>
      <point x="138" y="-84" type="line" smooth="yes"/>
      <point x="120" y="-84"/>
      <point x="81" y="-80"/>
      <point x="48" y="-66"/>
      <point x="27" y="-39"/>
      <point x="27" y="-16" type="qcurve" smooth="yes"/>
      <point x="27" y="679" type="line" smooth="yes"/>
      <point x="27" y="702"/>
      <point x="48" y="729"/>
      <point x="81" y="743"/>
      <point x="120" y="747"/>
      <point x="138" y="747" type="qcurve" smooth="yes"/>
      <point x="768" y="747" type="line" smooth="yes"/>
      <point x="785" y="747"/>
      <point x="825" y="743"/>
      <point x="859" y="729"/>
      <point x="881" y="702"/>
      <point x="881" y="679" type="qcurve" smooth="yes"/>
      <point x="881" y="111" type="line"/>
      <point x="356" y="111" type="line" smooth="yes"/>
      <point x="338" y="111"/>
      <point x="299" y="115"/>
      <point x="266" y="129"/>
      <point x="244" y="156"/>
      <point x="244" y="179" type="qcurve" smooth="yes"/>
      <point x="244" y="487" type="line" smooth="yes"/>
      <point x="244" y="509"/>
      <point x="266" y="536"/>
      <point x="299" y="551"/>
      <point x="338" y="555"/>
      <point x="356" y="555" type="qcurve" smooth="yes"/>
      <point x="532" y="555" type="line" smooth="yes"/>
      <point x="550" y="555"/>
      <point x="589" y="551"/>
      <point x="622" y="536"/>
      <point x="644" y="509"/>
      <point x="644" y="487" type="qcurve" smooth="yes"/>
      <point x="644" y="248" type="line"/>
      <point x="712" y="248" type="line"/>
      <point x="712" y="610" type="line"/>
      <point x="195" y="610" type="line"/>
      <point x="195" y="53" type="line"/>
      <point x="881" y="53" type="line"/>
    </contour>
    <contour>
      <point x="476" y="248" type="line"/>
      <point x="476" y="418" type="line"/>
      <point x="412" y="418" type="line"/>
      <point x="412" y="248" type="line"/>
    </contour>
  </outline>
</glyph>
<glyph name="R" format="2">
  <advance width="705"/>
  <unicode hex="0052"/>
  <outline>
    <contour>
      <point x="15" y="678" type="line"/>
      <point x="493" y="678" type="line" smooth="yes"/>
      <point x="520" y="678"/>
      <point x="573" y="666"/>
      <point x="617" y="640"/>
      <point x="644" y="597"/>
      <point x="644" y="566" type="qcurve" smooth="yes"/>
      <point x="644" y="455" type="line" smooth="yes"/>
      <point x="644" y="429"/>
      <point x="624" y="386"/>
      <point x="589" y="356"/>
      <point x="544" y="339"/>
      <point x="519" y="339" type="qcurve"/>
      <point x="544" y="339"/>
      <point x="590" y="321"/>
      <point x="624" y="289"/>
      <point x="644" y="245"/>
      <point x="644" y="219" type="qcurve" smooth="yes"/>
      <point x="644" y="61" type="line" smooth="yes"/>
      <point x="644" y="41"/>
      <point x="675" y="18"/>
      <point x="691" y="13" type="qcurve"/>
      <point x="691" y="0" type="line"/>
      <point x="371" y="0" type="line"/>
      <point x="371" y="13" type="line"/>
      <point x="387" y="19"/>
      <point x="417" y="41"/>
      <point x="417" y="61" type="qcurve" smooth="yes"/>
      <point x="417" y="277" type="line"/>
      <point x="288" y="277" type="line"/>
      <point x="288" y="61" type="line" smooth="yes"/>
      <point x="288" y="41"/>
      <point x="318" y="19"/>
      <point x="334" y="13" type="qcurve"/>
      <point x="334" y="0" type="line"/>
      <point x="15" y="0" type="line"/>
      <point x="15" y="13" type="line"/>
      <point x="31" y="19"/>
      <point x="61" y="42"/>
      <point x="61" y="61" type="qcurve" smooth="yes"/>
      <point x="61" y="617" type="line" smooth="yes"/>
      <point x="61" y="636"/>
      <point x="30" y="659"/>
      <point x="15" y="665" type="qcurve"/>
    </contour>
    <contour>
      <point x="417" y="401" type="line"/>
      <point x="417" y="493" type="line"/>
      <point x="288" y="493" type="line"/>
      <point x="288" y="401" type="line"/>
    </contour>
  </outline>
</glyph>
<glyph name="X" format="2">
  <advance width="704"/>
  <unicode hex="0058"/>
  <outline>
    <contour>
      <point x="414" y="617" type="line" smooth="yes"/>
      <point x="414" y="637"/>
      <point x="383" y="660"/>
      <point x="367" y="666" type="qcurve"/>
      <point x="367" y="679" type="line"/>
      <point x="687" y="679" type="line"/>
      <point x="687" y="666" type="line"/>
      <point x="671" y="660"/>
      <point x="641" y="637"/>
      <point x="641" y="617" type="qcurve" smooth="yes"/>
      <point x="641" y="478" type="line" smooth="yes"/>
      <point x="641" y="452"/>
      <point x="621" y="403"/>
      <point x="586" y="363"/>
      <point x="539" y="339"/>
      <point x="512" y="339" type="qcurve"/>
      <point x="538" y="339"/>
      <point x="585" y="317"/>
      <point x="620" y="280"/>
      <point x="641" y="232"/>
      <point x="641" y="207" type="qcurve" smooth="yes"/>
      <point x="641" y="62" type="line" smooth="yes"/>
      <point x="641" y="42"/>
      <point x="670" y="19"/>
      <point x="687" y="13" type="qcurve"/>
      <point x="687" y="0" type="line"/>
      <point x="367" y="0" type="line"/>
      <point x="367" y="13" type="line"/>
      <point x="383" y="19"/>
      <point x="414" y="42"/>
      <point x="414" y="62" type="qcurve" smooth="yes"/>
      <point x="414" y="278" type="line"/>
      <point x="284" y="278" type="line"/>
      <point x="284" y="62" type="line" smooth="yes"/>
      <point x="284" y="42"/>
      <point x="313" y="19"/>
      <point x="330" y="13" type="qcurve"/>
      <point x="330" y="0" type="line"/>
      <point x="11" y="0" type="line"/>
      <point x="11" y="13" type="line"/>
      <point x="27" y="19"/>
      <point x="57" y="42"/>
      <point x="57" y="62" type="qcurve" smooth="yes"/>
      <point x="57" y="202" type="line" smooth="yes"/>
      <point x="57" y="227"/>
      <point x="76" y="276"/>
      <point x="109" y="315"/>
      <point x="155" y="339"/>
      <point x="181" y="339" type="qcurve"/>
      <point x="155" y="339"/>
      <point x="109" y="361"/>
      <point x="76" y="397"/>
      <point x="57" y="444"/>
      <point x="57" y="470" type="qcurve" smooth="yes"/>
      <point x="57" y="617" type="line" smooth="yes"/>
      <point x="57" y="636"/>
      <point x="27" y="660"/>
      <point x="11" y="666" type="qcurve"/>
      <point x="11" y="679" type="line"/>
      <point x="330" y="679" type="line"/>
      <point x="330" y="666" type="line"/>
      <point x="314" y="660"/>
      <point x="284" y="637"/>
      <point x="284" y="617" type="qcurve" smooth="yes"/>
      <point x="284" y="401" type="line"/>
      <point x="414" y="401" type="line"/>
    </contour>
  </outline>
</glyph>
<glyph name="bracketleft" format="2">
  <advance width="417"/>
  <unicode hex="005B"/>
  <outline>
    <contour>
      <point x="379" y="-241" type="line"/>
      <point x="63" y="-241" type="line"/>
      <point x="63" y="892" type="line"/>
      <point x="379" y="892" type="line"/>
      <point x="379" y="707" type="line"/>
      <point x="290" y="707" type="line"/>
      <point x="290" y="-56" type="line"/>
      <point x="379" y="-56" type="line"/>
    </contour>
  </outline>
</glyph>
<glyph name="bracketright" format="2">
  <advance width="417"/>
  <unicode hex="005D"/>
  <outline>
    <contour>
      <point x="63" y="-56" type="line"/>
      <point x="152" y="-56" type="line"/>
      <point x="152" y="707" type="line"/>
      <point x="63" y="707" type="line"/>
      <point x="63" y="892" type="line"/>
      <point x="379" y="892" type="line"/>
      <point x="379" y="-241" type="line"/>
      <point x="63" y="-241" type="line"/>
    </contour>
  </outline>
</glyph>
<glyph name="asciicircum" format="2">
  <advance width="666"/>
  <unicode hex="005E"/>
  <outline>
    <contour>
      <point x="5" y="297" type="line"/>
      <point x="280" y="654" type="line"/>
      <point x="360" y="654" type="line"/>
      <point x="634" y="297" type="line"/>
      <point x="528" y="216" type="line"/>
      <point x="320" y="485" type="line"/>
      <point x="112" y="216" type="line"/>
    </contour>
  </outline>
</glyph>
<glyph name="b" format="2">
  <advance width="668"/>
  <unicode hex="0062"/>
  <outline>
    <contour>
      <point x="475" y="679" type="line" smooth="yes"/>
      <point x="498" y="679"/>
      <point x="552" y="673"/>
      <point x="597" y="654"/>
      <point x="627" y="617"/>
      <point x="627" y="587" type="qcurve" smooth="yes"/>
      <point x="627" y="432" type="line" smooth="yes"/>
      <point x="627" y="405"/>
      <point x="609" y="370"/>
      <point x="578" y="349"/>
      <point x="537" y="340"/>
      <point x="513" y="340" type="qcurve"/>
      <point x="537" y="340"/>
      <point x="579" y="331"/>
      <point x="609" y="309"/>
      <point x="627" y="274"/>
      <point x="627" y="247" type="qcurve" smooth="yes"/>
      <point x="627" y="93" type="line" smooth="yes"/>
      <point x="627" y="63"/>
      <point x="597" y="26"/>
      <point x="552" y="6"/>
      <point x="499" y="0"/>
      <point x="475" y="0" type="qcurve" smooth="yes"/>
      <point x="18" y="0" type="line"/>
      <point x="18" y="13" type="line"/>
      <point x="34" y="19"/>
      <point x="64" y="42"/>
      <point x="64" y="62" type="qcurve" smooth="yes"/>
      <point x="64" y="617" type="line" smooth="yes"/>
      <point x="64" y="637"/>
      <point x="34" y="660"/>
      <point x="18" y="666" type="qcurve"/>
      <point x="18" y="679" type="line"/>
    </contour>
    <contour>
      <point x="399" y="401" type="line"/>
      <point x="399" y="494" type="line"/>
      <point x="291" y="494" type="line"/>
      <point x="291" y="401" type="line"/>
    </contour>
    <contour>
      <point x="399" y="186" type="line"/>
      <point x="399" y="278" type="line"/>
      <point x="291" y="278" type="line"/>
      <point x="291" y="186" type="line"/>
    </contour>
  </outline>
</glyph>
<glyph name="i" format="2">
  <advance width="359"/>
  <unicode hex="0069"/>
  <outline>
    <contour>
      <point x="342" y="679" type="line"/>
      <point x="342" y="666" type="line"/>
      <point x="326" y="660"/>
      <point x="296" y="638"/>
      <point x="296" y="618" type="qcurve" smooth="yes"/>
      <point x="296" y="62" type="line" smooth="yes"/>
      <point x="296" y="42"/>
      <point x="326" y="20"/>
      <point x="342" y="14" type="qcurve"/>
      <point x="342" y="0" type="line"/>
      <point x="22" y="0" type="line"/>
      <point x="22" y="14" type="line"/>
      <point x="38" y="20"/>
      <point x="68" y="42"/>
      <point x="68" y="62" type="qcurve" smooth="yes"/>
      <point x="68" y="618" type="line" smooth="yes"/>
      <point x="68" y="638"/>
      <point x="38" y="660"/>
      <point x="22" y="666" type="qcurve"/>
      <point x="22" y="679" type="line"/>
    </contour>
  </outline>
</glyph>
<glyph name="p" format="2">
  <advance width="656"/>
  <unicode hex="0070"/>
  <outline>
    <contour>
      <point x="293" y="61" type="line" smooth="yes"/>
      <point x="293" y="41"/>
      <point x="323" y="19"/>
      <point x="339" y="13" type="qcurve"/>
      <point x="339" y="0" type="line"/>
      <point x="20" y="0" type="line"/>
      <point x="20" y="13" type="line"/>
      <point x="35" y="19"/>
      <point x="66" y="42"/>
      <point x="66" y="61" type="qcurve" smooth="yes"/>
      <point x="66" y="617" type="line" smooth="yes"/>
      <point x="66" y="636"/>
      <point x="36" y="660"/>
      <point x="20" y="666" type="qcurve"/>
      <point x="20" y="679" type="line"/>
      <point x="480" y="679" type="line" smooth="yes"/>
      <point x="504" y="679"/>
      <point x="557" y="673"/>
      <point x="602" y="653"/>
      <point x="632" y="616"/>
      <point x="632" y="586" type="qcurve" smooth="yes"/>
      <point x="632" y="370" type="line" smooth="yes"/>
      <point x="632" y="336"/>
      <point x="594" y="298"/>
      <point x="540" y="280"/>
      <point x="481" y="276"/>
      <point x="461" y="276" type="qcurve" smooth="yes"/>
      <point x="453" y="276"/>
      <point x="421" y="277"/>
      <point x="404" y="277" type="qcurve" smooth="yes"/>
      <point x="293" y="277" type="line"/>
    </contour>
    <contour>
      <point x="404" y="401" type="line"/>
      <point x="404" y="494" type="line"/>
      <point x="293" y="494" type="line"/>
      <point x="293" y="401" type="line"/>
    </contour>
  </outline>
</glyph>
<glyph name="v" format="2">
  <advance width="720"/>
  <unicode hex="0076"/>
  <outline>
    <contour>
      <point x="543" y="0" type="line"/>
      <point x="177" y="0" type="line"/>
      <point x="177" y="13" type="line"/>
      <point x="187" y="17"/>
      <point x="210" y="32"/>
      <point x="210" y="44" type="qcurve" smooth="yes"/>
      <point x="210" y="50"/>
      <point x="187" y="86"/>
      <point x="153" y="135"/>
      <point x="114" y="193"/>
      <point x="80" y="251"/>
      <point x="57" y="305"/>
      <point x="57" y="325" type="qcurve" smooth="yes"/>
      <point x="57" y="617" type="line" smooth="yes"/>
      <point x="57" y="637"/>
      <point x="27" y="660"/>
      <point x="11" y="666" type="qcurve"/>
      <point x="11" y="679" type="line"/>
      <point x="330" y="679" type="line"/>
      <point x="330" y="666" type="line"/>
      <point x="314" y="660"/>
      <point x="284" y="637"/>
      <point x="284" y="617" type="qcurve" smooth="yes"/>
      <point x="284" y="387" type="line" smooth="yes"/>
      <point x="284" y="350"/>
      <point x="293" y="303"/>
      <point x="311" y="265"/>
      <point x="340" y="226"/>
      <point x="360" y="197" type="qcurve"/>
      <point x="382" y="230"/>
      <point x="412" y="271"/>
      <point x="429" y="309"/>
      <point x="436" y="358"/>
      <point x="436" y="400" type="qcurve" smooth="yes"/>
      <point x="436" y="617" type="line" smooth="yes"/>
      <point x="436" y="636"/>
      <point x="406" y="660"/>
      <point x="390" y="666" type="qcurve"/>
      <point x="390" y="679" type="line"/>
      <point x="709" y="679" type="line"/>
      <point x="709" y="666" type="line"/>
      <point x="693" y="660"/>
      <point x="663" y="637"/>
      <point x="663" y="617" type="qcurve" smooth="yes"/>
      <point x="663" y="325" type="line" smooth="yes"/>
      <point x="663" y="305"/>
      <point x="640" y="252"/>
      <point x="606" y="194"/>
      <point x="567" y="136"/>
      <point x="533" y="87"/>
      <point x="510" y="51"/>
      <point x="510" y="45" type="qcurve" smooth="yes"/>
      <point x="510" y="32"/>
      <point x="533" y="17"/>
      <point x="543" y="13" type="qcurve"/>
    </contour>
  </outline>
</glyph>
<glyph name="asciitilde" format="2">
  <advance width="672"/>
  <unicode hex="007E"/>
  <outline>
    <contour>
      <point x="644" y="354" type="line"/>
      <point x="632" y="322"/>
      <point x="584" y="270"/>
      <point x="523" y="234"/>
      <point x="456" y="214"/>
      <point x="425" y="214" type="qcurve" smooth="yes"/>
      <point x="392" y="214"/>
      <point x="343" y="238"/>
      <point x="303" y="266"/>
      <point x="272" y="290"/>
      <point x="257" y="290" type="qcurve" smooth="yes"/>
      <point x="242" y="290"/>
      <point x="209" y="277"/>
      <point x="180" y="256"/>
      <point x="155" y="229"/>
      <point x="147" y="214" type="qcurve"/>
      <point x="121" y="235"/>
      <point x="62" y="288"/>
      <point x="36" y="310" type="qcurve"/>
      <point x="56" y="339"/>
      <point x="107" y="387"/>
      <point x="165" y="422"/>
      <point x="227" y="442"/>
      <point x="257" y="442" type="qcurve" smooth="yes"/>
      <point x="290" y="442"/>
      <point x="337" y="418"/>
      <point x="376" y="390"/>
      <point x="408" y="366"/>
      <point x="426" y="366" type="qcurve" smooth="yes"/>
      <point x="455" y="366"/>
      <point x="506" y="411"/>
      <point x="522" y="439" type="qcurve"/>
    </contour>
  </outline>
</glyph>
<glyph name="sterling" format="2">
  <advance width="586"/>
  <unicode hex="00A3"/>
  <outline>
    <contour>
      <point x="16" y="168" type="line"/>
      <point x="174" y="168" type="line"/>
      <point x="174" y="278" type="line"/>
      <point x="136" y="277" type="line"/>
      <point x="111" y="277"/>
      <point x="68" y="280"/>
      <point x="37" y="298"/>
      <point x="19" y="335"/>
      <point x="19" y="370" type="qcurve" smooth="yes"/>
      <point x="19" y="587" type="line" smooth="yes"/>
      <point x="19" y="617"/>
      <point x="49" y="653"/>
      <point x="94" y="673"/>
      <point x="147" y="679"/>
      <point x="170" y="679" type="qcurve" smooth="yes"/>
      <point x="411" y="679" type="line" smooth="yes"/>
      <point x="434" y="679"/>
      <point x="488" y="673"/>
      <point x="533" y="654"/>
      <point x="563" y="617"/>
      <point x="563" y="587" type="qcurve" smooth="yes"/>
      <point x="563" y="432" type="line"/>
      <point x="295" y="432" type="line"/>
      <point x="295" y="445" type="line"/>
      <point x="312" y="451"/>
      <point x="341" y="474"/>
      <point x="341" y="494" type="qcurve"/>
      <point x="246" y="494" type="line"/>
      <point x="246" y="401" type="line"/>
      <point x="265" y="401" type="line" smooth="yes"/>
      <point x="287" y="401"/>
      <point x="335" y="395"/>
      <point x="377" y="378"/>
      <point x="407" y="347"/>
      <point x="410" y="322" type="qcurve"/>
      <point x="560" y="322" type="line"/>
      <point x="560" y="196" type="line"/>
      <point x="411" y="196" type="line"/>
      <point x="411" y="168" type="line"/>
      <point x="559" y="168" type="line"/>
      <point x="559" y="0" type="line"/>
      <point x="16" y="0" type="line"/>
    </contour>
  </outline>
</glyph>
<glyph name="currency" format="2">
  <advance width="667"/>
  <unicode hex="00A4"/>
  <outline>
    <contour>
      <point x="556" y="218" type="line" smooth="yes"/>
      <point x="556" y="206"/>
      <point x="553" y="199" type="qcurve"/>
      <point x="651" y="106" type="line"/>
      <point x="572" y="23" type="line"/>
      <point x="433" y="155" type="line"/>
      <point x="252" y="155" type="line"/>
      <point x="113" y="23" type="line"/>
      <point x="34" y="106" type="line"/>
      <point x="142" y="208" type="line"/>
      <point x="142" y="214" type="line"/>
      <point x="142" y="215" type="line"/>
      <point x="142" y="216" type="line"/>
      <point x="142" y="217" type="line"/>
      <point x="142" y="472" type="line"/>
      <point x="34" y="575" type="line"/>
      <point x="113" y="659" type="line"/>
      <point x="218" y="559" type="line"/>
      <point x="225" y="560"/>
      <point x="238" y="560"/>
      <point x="245" y="560" type="qcurve" smooth="yes"/>
      <point x="452" y="560" type="line" smooth="yes"/>
      <point x="462" y="560"/>
      <point x="467" y="559" type="qcurve"/>
      <point x="572" y="659" type="line"/>
      <point x="651" y="575" type="line"/>
      <point x="556" y="484" type="line"/>
    </contour>
    <contour>
      <point x="400" y="281" type="line"/>
      <point x="400" y="433" type="line"/>
      <point x="297" y="433" type="line"/>
      <point x="297" y="281" type="line"/>
    </contour>
  </outline>
</glyph>
<glyph name="yen" format="2">
  <advance width="688"/>
  <unicode hex="00A5"/>
  <outline>
    <contour>
      <point x="452" y="278" type="line"/>
      <point x="452" y="253" type="line"/>
      <point x="619" y="253" type="line"/>
      <point x="619" y="180" type="line"/>
      <point x="452" y="180" type="line"/>
      <point x="452" y="147" type="line"/>
      <point x="619" y="147" type="line"/>
      <point x="619" y="75" type="line"/>
      <point x="452" y="75" type="line"/>
      <point x="452" y="62" type="line" smooth="yes"/>
      <point x="452" y="42"/>
      <point x="481" y="19"/>
      <point x="498" y="13" type="qcurve"/>
      <point x="498" y="0" type="line"/>
      <point x="178" y="0" type="line"/>
      <point x="178" y="13" type="line"/>
      <point x="194" y="19"/>
      <point x="225" y="42"/>
      <point x="225" y="62" type="qcurve" smooth="yes"/>
      <point x="225" y="75" type="line"/>
      <point x="64" y="75" type="line"/>
      <point x="64" y="147" type="line"/>
      <point x="225" y="147" type="line"/>
      <point x="225" y="180" type="line"/>
      <point x="64" y="180" type="line"/>
      <point x="64" y="253" type="line"/>
      <point x="225" y="253" type="line"/>
      <point x="225" y="278" type="line"/>
      <point x="172" y="278" type="line" smooth="yes"/>
      <point x="133" y="278"/>
      <point x="87" y="308"/>
      <point x="63" y="355"/>
      <point x="56" y="410"/>
      <point x="56" y="436" type="qcurve" smooth="yes"/>
      <point x="56" y="443"/>
      <point x="58" y="492"/>
      <point x="58" y="525" type="qcurve" smooth="yes"/>
      <point x="58" y="617" type="line" smooth="yes"/>
      <point x="58" y="637"/>
      <point x="29" y="660"/>
      <point x="12" y="666" type="qcurve"/>
      <point x="12" y="679" type="line"/>
      <point x="331" y="679" type="line"/>
      <point x="331" y="666" type="line"/>
      <point x="315" y="660"/>
      <point x="285" y="637"/>
      <point x="285" y="617" type="qcurve" smooth="yes"/>
      <point x="285" y="401" type="line"/>
      <point x="401" y="401" type="line"/>
      <point x="401" y="617" type="line" smooth="yes"/>
      <point x="401" y="637"/>
      <point x="371" y="660"/>
      <point x="355" y="666" type="qcurve"/>
      <point x="355" y="679" type="line"/>
      <point x="674" y="679" type="line"/>
      <point x="674" y="666" type="line"/>
      <point x="657" y="660"/>
      <point x="628" y="637"/>
      <point x="628" y="617" type="qcurve" smooth="yes"/>
      <point x="628" y="525" type="line" smooth="yes"/>
      <point x="628" y="492"/>
      <point x="630" y="443"/>
      <point x="630" y="436" type="qcurve" smooth="yes"/>
      <point x="630" y="410"/>
      <point x="623" y="355"/>
      <point x="599" y="308"/>
      <point x="553" y="278"/>
      <point x="514" y="278" type="qcurve" smooth="yes"/>
    </contour>
  </outline>
</glyph>
<glyph name="section" format="2">
  <advance width="673"/>
  <unicode hex="00A7"/>
  <outline>
    <contour>
      <point x="622" y="-6" type="line" smooth="yes"/>
      <point x="622" y="-36"/>
      <point x="593" y="-73"/>
      <point x="548" y="-92"/>
      <point x="495" y="-98"/>
      <point x="471" y="-98" type="qcurve" smooth="yes"/>
      <point x="197" y="-98" type="line" smooth="yes"/>
      <point x="173" y="-98"/>
      <point x="120" y="-92"/>
      <point x="75" y="-73"/>
      <point x="46" y="-36"/>
      <point x="46" y="-6" type="qcurve" smooth="yes"/>
      <point x="46" y="148" type="line"/>
      <point x="319" y="148" type="line"/>
      <point x="319" y="135" type="line"/>
      <point x="303" y="130"/>
      <point x="273" y="107"/>
      <point x="273" y="87" type="qcurve"/>
      <point x="395" y="87" type="line"/>
      <point x="395" y="179" type="line"/>
      <point x="273" y="179" type="line" smooth="yes"/>
      <point x="246" y="179"/>
      <point x="203" y="178"/>
      <point x="198" y="178" type="qcurve" smooth="yes"/>
      <point x="175" y="178"/>
      <point x="121" y="184"/>
      <point x="76" y="204"/>
      <point x="46" y="241"/>
      <point x="46" y="272" type="qcurve" smooth="yes"/>
      <point x="46" y="703" type="line" smooth="yes"/>
      <point x="46" y="733"/>
      <point x="75" y="770"/>
      <point x="120" y="789"/>
      <point x="173" y="795"/>
      <point x="197" y="795" type="qcurve" smooth="yes"/>
      <point x="471" y="795" type="line" smooth="yes"/>
      <point x="495" y="795"/>
      <point x="548" y="789"/>
      <point x="593" y="770"/>
      <point x="622" y="733"/>
      <point x="622" y="703" type="qcurve" smooth="yes"/>
      <point x="622" y="548" type="line"/>
      <point x="349" y="548" type="line"/>
      <point x="349" y="562" type="line"/>
      <point x="365" y="568"/>
      <point x="395" y="591"/>
      <point x="395" y="610" type="qcurve"/>
      <point x="273" y="610" type="line"/>
      <point x="273" y="518" type="line"/>
      <point x="395" y="518" type="line" smooth="yes"/>
      <point x="422" y="518"/>
      <point x="465" y="519"/>
      <point x="470" y="519" type="qcurve" smooth="yes"/>
      <point x="494" y="519"/>
      <point x="547" y="513"/>
      <point x="592" y="493"/>
      <point x="622" y="456"/>
      <point x="622" y="425" type="qcurve" smooth="yes"/>
    </contour>
    <contour>
      <point x="395" y="394" type="line"/>
      <point x="273" y="394" type="line"/>
      <point x="273" y="303" type="line"/>
      <point x="395" y="303" type="line"/>
    </contour>
  </outline>
</glyph>
<glyph name="guillemotleft" format="2">
  <advance width="516"/>
  <unicode hex="00AB"/>
  <outline>
    <contour>
      <point x="219" y="572" type="line"/>
      <point x="297" y="505" type="line"/>
      <point x="146" y="321" type="line"/>
      <point x="297" y="138" type="line"/>
      <point x="219" y="71" type="line"/>
      <point x="37" y="292" type="line"/>
      <point x="37" y="351" type="line"/>
    </contour>
    <contour>
      <point x="415" y="572" type="line"/>
      <point x="493" y="505" type="line"/>
      <point x="342" y="321" type="line"/>
      <point x="493" y="138" type="line"/>
      <point x="415" y="71" type="line"/>
      <point x="233" y="292" type="line"/>
      <point x="233" y="351" type="line"/>
    </contour>
  </outline>
</glyph>
<glyph name="uni00AD" format="2">
  <advance width="412"/>
  <unicode hex="00AD"/>
  <outline>
    <contour>
      <point x="27" y="432" type="line"/>
      <point x="379" y="432" type="line"/>
      <point x="379" y="264" type="line"/>
      <point x="27" y="264" type="line"/>
    </contour>
  </outline>
</glyph>
<glyph name="degree" format="2">
  <advance width="389"/>
  <unicode hex="00B0"/>
  <outline>
    <contour>
      <point x="196" y="658" type="qcurve" smooth="yes"/>
      <point x="231" y="658"/>
      <point x="292" y="631"/>
      <point x="338" y="586"/>
      <point x="364" y="524"/>
      <point x="364" y="490" type="qcurve" smooth="yes"/>
      <point x="364" y="455"/>
      <point x="338" y="394"/>
      <point x="292" y="348"/>
      <point x="231" y="322"/>
      <point x="196" y="322" type="qcurve" smooth="yes"/>
      <point x="161" y="322"/>
      <point x="100" y="348"/>
      <point x="54" y="394"/>
      <point x="28" y="455"/>
      <point x="28" y="490" type="qcurve" smooth="yes"/>
      <point x="28" y="524"/>
      <point x="54" y="586"/>
      <point x="100" y="631"/>
      <point x="161" y="658"/>
    </contour>
    <contour>
      <point x="195" y="423" type="qcurve" smooth="yes"/>
      <point x="223" y="423"/>
      <point x="263" y="463"/>
      <point x="263" y="490" type="qcurve" smooth="yes"/>
      <point x="263" y="518"/>
      <point x="223" y="558"/>
      <point x="195" y="558" type="qcurve" smooth="yes"/>
      <point x="166" y="558"/>
      <point x="128" y="518"/>
      <point x="128" y="490" type="qcurve" smooth="yes"/>
      <point x="128" y="463"/>
      <point x="166" y="423"/>
    </contour>
  </outline>
</glyph>
<glyph name="plusminus" format="2">
  <advance width="512"/>
  <unicode hex="00B1"/>
  <outline>
    <contour>
      <point x="45" y="61" type="line"/>
      <point x="45" y="147" type="line"/>
      <point x="478" y="147" type="line"/>
      <point x="478" y="61" type="line"/>
    </contour>
    <contour>
      <point x="308" y="197" type="line"/>
      <point x="222" y="197" type="line"/>
      <point x="222" y="378" type="line"/>
      <point x="45" y="378" type="line"/>
      <point x="45" y="463" type="line"/>
      <point x="222" y="463" type="line"/>
      <point x="222" y="630" type="line"/>
      <point x="308" y="630" type="line"/>
      <point x="308" y="463" type="line"/>
      <point x="478" y="463" type="line"/>
      <point x="478" y="378" type="line"/>
      <point x="308" y="378" type="line"/>
    </contour>
  </outline>
</glyph>
<glyph name="periodcentered" format="2">
  <advance width="300"/>
  <unicode hex="00B7"/>
  <outline>
    <contour>
      <point x="146" y="431" type="qcurve" smooth="yes"/>
      <point x="165" y="431"/>
      <point x="206" y="418"/>
      <point x="238" y="394"/>
      <point x="259" y="360"/>
      <point x="259" y="338" type="qcurve" smooth="yes"/>
      <point x="259" y="316"/>
      <point x="238" y="282"/>
      <point x="206" y="258"/>
      <point x="165" y="246"/>
      <point x="146" y="246" type="qcurve" smooth="yes"/>
      <point x="126" y="246"/>
      <point x="86" y="258"/>
      <point x="53" y="282"/>
      <point x="32" y="316"/>
      <point x="32" y="338" type="qcurve" smooth="yes"/>
      <point x="32" y="360"/>
      <point x="53" y="395"/>
      <point x="86" y="419"/>
      <point x="126" y="431"/>
    </contour>
  </outline>
</glyph>
<glyph name="cedilla" format="2">
  <advance width="415"/>
  <unicode hex="00B8"/>
  <outline>
    <contour>
      <point x="329" y="-209" type="line" smooth="yes"/>
      <point x="329" y="-222"/>
      <point x="316" y="-237"/>
      <point x="296" y="-245"/>
      <point x="274" y="-247"/>
      <point x="264" y="-247" type="qcurve" smooth="yes"/>
      <point x="98" y="-247" type="line"/>
      <point x="98" y="-157" type="line"/>
      <point x="232" y="-157" type="line"/>
      <point x="232" y="-125" type="line"/>
      <point x="97" y="-125" type="line"/>
      <point x="97" y="0" type="line"/>
      <point x="201" y="0" type="line"/>
      <point x="201" y="-44" type="line"/>
      <point x="265" y="-44" type="line" smooth="yes"/>
      <point x="273" y="-44"/>
      <point x="295" y="-47"/>
      <point x="315" y="-55"/>
      <point x="329" y="-70"/>
      <point x="329" y="-82" type="qcurve" smooth="yes"/>
    </contour>
  </outline>
</glyph>
<glyph name="guillemotright" format="2">
  <advance width="516"/>
  <unicode hex="00BB"/>
  <outline>
    <contour>
      <point x="297" y="351" type="line"/>
      <point x="297" y="292" type="line"/>
      <point x="115" y="71" type="line"/>
      <point x="37" y="138" type="line"/>
      <point x="188" y="321" type="line"/>
      <point x="37" y="505" type="line"/>
      <point x="115" y="572" type="line"/>
    </contour>
    <contour>
      <point x="493" y="351" type="line"/>
      <point x="493" y="292" type="line"/>
      <point x="311" y="71" type="line"/>
      <point x="233" y="138" type="line"/>
      <point x="384" y="321" type="line"/>
      <point x="233" y="505" type="line"/>
      <point x="311" y="572" type="line"/>
    </contour>
  </outline>
</glyph>
<glyph name="Adieresis" format="2">
  <advance width="722"/>
  <unicode hex="00C4"/>
  <outline>
    <contour>
      <point x="234" y="870" type="qcurve" smooth="yes"/>
      <point x="251" y="870"/>
      <point x="287" y="858"/>
      <point x="316" y="837"/>
      <point x="335" y="806"/>
      <point x="335" y="787" type="qcurve" smooth="yes"/>
      <point x="335" y="768"/>
      <point x="316" y="738"/>
      <point x="287" y="717"/>
      <point x="251" y="706"/>
      <point x="234" y="706" type="qcurve" smooth="yes"/>
      <point x="216" y="706"/>
      <point x="180" y="717"/>
      <point x="151" y="738"/>
      <point x="132" y="768"/>
      <point x="132" y="787" type="qcurve" smooth="yes"/>
      <point x="132" y="807"/>
      <point x="151" y="838"/>
      <point x="180" y="859"/>
      <point x="216" y="870"/>
    </contour>
    <contour>
      <point x="489" y="870" type="qcurve" smooth="yes"/>
      <point x="507" y="870"/>
      <point x="543" y="858"/>
      <point x="572" y="837"/>
      <point x="590" y="806"/>
      <point x="590" y="787" type="qcurve" smooth="yes"/>
      <point x="590" y="768"/>
      <point x="572" y="738"/>
      <point x="543" y="717"/>
      <point x="507" y="706"/>
      <point x="489" y="706" type="qcurve" smooth="yes"/>
      <point x="471" y="706"/>
      <point x="435" y="717"/>
      <point x="406" y="738"/>
      <point x="387" y="768"/>
      <point x="387" y="787" type="qcurve" smooth="yes"/>
      <point x="387" y="807"/>
      <point x="406" y="838"/>
      <point x="435" y="859"/>
      <point x="471" y="870"/>
    </contour>
    <contour>
      <point x="545" y="665" type="line"/>
      <point x="534" y="661"/>
      <point x="512" y="646"/>
      <point x="512" y="633" type="qcurve" smooth="yes"/>
      <point x="512" y="626"/>
      <point x="535" y="591"/>
      <point x="569" y="542"/>
      <point x="608" y="484"/>
      <point x="642" y="427"/>
      <point x="665" y="374"/>
      <point x="665" y="354" type="qcurve" smooth="yes"/>
      <point x="665" y="61" type="line" smooth="yes"/>
      <point x="665" y="41"/>
      <point x="695" y="19"/>
      <point x="711" y="13" type="qcurve"/>
      <point x="711" y="0" type="line"/>
      <point x="391" y="0" type="line"/>
      <point x="391" y="13" type="line"/>
      <point x="407" y="19"/>
      <point x="437" y="41"/>
      <point x="437" y="61" type="qcurve" smooth="yes"/>
      <point x="437" y="185" type="line"/>
      <point x="286" y="185" type="line"/>
      <point x="286" y="61" type="line" smooth="yes"/>
      <point x="286" y="41"/>
      <point x="316" y="19"/>
      <point x="332" y="13" type="qcurve"/>
      <point x="332" y="0" type="line"/>
      <point x="13" y="0" type="line"/>
      <point x="13" y="13" type="line"/>
      <point x="28" y="19"/>
      <point x="59" y="42"/>
      <point x="59" y="61" type="qcurve" smooth="yes"/>
      <point x="59" y="256" type="line" smooth="yes"/>
      <point x="59" y="281"/>
      <point x="58" y="314"/>
      <point x="58" y="322" type="qcurve" smooth="yes"/>
      <point x="58" y="330"/>
      <point x="58" y="346"/>
      <point x="59" y="354" type="qcurve" smooth="yes"/>
      <point x="60" y="375"/>
      <point x="83" y="429"/>
      <point x="117" y="487"/>
      <point x="156" y="544"/>
      <point x="189" y="591"/>
      <point x="211" y="626"/>
      <point x="211" y="633" type="qcurve" smooth="yes"/>
      <point x="211" y="646"/>
      <point x="190" y="661"/>
      <point x="179" y="665" type="qcurve"/>
      <point x="179" y="679" type="line"/>
      <point x="545" y="679" type="line"/>
    </contour>
    <contour>
      <point x="437" y="308" type="line"/>
      <point x="437" y="322" type="line" smooth="yes"/>
      <point x="437" y="347"/>
      <point x="423" y="388"/>
      <point x="401" y="425"/>
      <point x="375" y="461"/>
      <point x="362" y="481" type="qcurve"/>
      <point x="346" y="458"/>
      <point x="318" y="421"/>
      <point x="298" y="382"/>
      <point x="286" y="338"/>
      <point x="286" y="308" type="qcurve"/>
    </contour>
  </outline>
</glyph>
<glyph name="Ccedilla" format="2">
  <advance width="670"/>
  <unicode hex="00C7"/>
  <outline>
    <contour>
      <point x="618" y="247" type="line"/>
      <point x="618" y="93" type="line" smooth="yes"/>
      <point x="618" y="63"/>
      <point x="589" y="26"/>
      <point x="544" y="6"/>
      <point x="491" y="0"/>
      <point x="467" y="0" type="qcurve" smooth="yes"/>
      <point x="294" y="0" type="line"/>
      <point x="294" y="-44" type="line"/>
      <point x="358" y="-44" type="line" smooth="yes"/>
      <point x="366" y="-44"/>
      <point x="388" y="-47"/>
      <point x="408" y="-55"/>
      <point x="422" y="-70"/>
      <point x="422" y="-82" type="qcurve" smooth="yes"/>
      <point x="422" y="-209" type="line" smooth="yes"/>
      <point x="422" y="-222"/>
      <point x="409" y="-237"/>
      <point x="389" y="-245"/>
      <point x="367" y="-247"/>
      <point x="357" y="-247" type="qcurve" smooth="yes"/>
      <point x="191" y="-247" type="line"/>
      <point x="191" y="-157" type="line"/>
      <point x="325" y="-157" type="line"/>
      <point x="325" y="-125" type="line"/>
      <point x="190" y="-125" type="line"/>
      <point x="190" y="0" type="line"/>
      <point x="203" y="0" type="line"/>
      <point x="179" y="0"/>
      <point x="126" y="6"/>
      <point x="81" y="26"/>
      <point x="52" y="63"/>
      <point x="52" y="93" type="qcurve" smooth="yes"/>
      <point x="52" y="586" type="line" smooth="yes"/>
      <point x="52" y="616"/>
      <point x="81" y="653"/>
      <point x="126" y="673"/>
      <point x="179" y="679"/>
      <point x="203" y="679" type="qcurve" smooth="yes"/>
      <point x="467" y="679" type="line" smooth="yes"/>
      <point x="491" y="679"/>
      <point x="544" y="673"/>
      <point x="589" y="653"/>
      <point x="618" y="616"/>
      <point x="618" y="586" type="qcurve" smooth="yes"/>
      <point x="618" y="432" type="line"/>
      <point x="354" y="432" type="line"/>
      <point x="354" y="445" type="line"/>
      <point x="371" y="451"/>
      <point x="400" y="474"/>
      <point x="400" y="494" type="qcurve"/>
      <point x="279" y="494" type="line"/>
      <point x="279" y="185" type="line"/>
      <point x="400" y="185" type="line"/>
      <point x="400" y="205"/>
      <point x="371" y="228"/>
      <point x="354" y="234" type="qcurve"/>
      <point x="354" y="247" type="line"/>
    </contour>
  </outline>
</glyph>
<glyph name="Edieresis" format="2">
  <advance width="673"/>
  <unicode hex="00CB"/>
  <outline>
    <contour>
      <point x="209" y="870" type="qcurve" smooth="yes"/>
      <point x="226" y="870"/>
      <point x="262" y="858"/>
      <point x="291" y="837"/>
      <point x="310" y="806"/>
      <point x="310" y="787" type="qcurve" smooth="yes"/>
      <point x="310" y="768"/>
      <point x="291" y="738"/>
      <point x="262" y="717"/>
      <point x="226" y="706"/>
      <point x="209" y="706" type="qcurve" smooth="yes"/>
      <point x="191" y="706"/>
      <point x="155" y="717"/>
      <point x="126" y="738"/>
      <point x="107" y="768"/>
      <point x="107" y="787" type="qcurve" smooth="yes"/>
      <point x="107" y="807"/>
      <point x="126" y="838"/>
      <point x="155" y="859"/>
      <point x="191" y="870"/>
    </contour>
    <contour>
      <point x="464" y="870" type="qcurve" smooth="yes"/>
      <point x="482" y="870"/>
      <point x="518" y="858"/>
      <point x="547" y="837"/>
      <point x="565" y="806"/>
      <point x="565" y="787" type="qcurve" smooth="yes"/>
      <point x="565" y="768"/>
      <point x="547" y="738"/>
      <point x="518" y="717"/>
      <point x="482" y="706"/>
      <point x="464" y="706" type="qcurve" smooth="yes"/>
      <point x="446" y="706"/>
      <point x="410" y="717"/>
      <point x="381" y="738"/>
      <point x="362" y="768"/>
      <point x="362" y="787" type="qcurve" smooth="yes"/>
      <point x="362" y="807"/>
      <point x="381" y="838"/>
      <point x="410" y="859"/>
      <point x="446" y="870"/>
    </contour>
    <contour>
      <point x="445" y="401" type="line" smooth="yes"/>
      <point x="465" y="401"/>
      <point x="495" y="421"/>
      <point x="505" y="438" type="qcurve"/>
      <point x="521" y="438" type="line"/>
      <point x="521" y="240" type="line"/>
      <point x="505" y="240" type="line"/>
      <point x="495" y="257"/>
      <point x="465" y="278"/>
      <point x="445" y="278" type="qcurve" smooth="yes"/>
      <point x="294" y="278" type="line"/>
      <point x="294" y="185" type="line"/>
      <point x="559" y="185" type="line" smooth="yes"/>
      <point x="579" y="185"/>
      <point x="609" y="205"/>
      <point x="619" y="222" type="qcurve"/>
      <point x="635" y="222" type="line"/>
      <point x="635" y="0" type="line"/>
      <point x="21" y="0" type="line"/>
      <point x="21" y="13" type="line"/>
      <point x="37" y="19"/>
      <point x="67" y="41"/>
      <point x="67" y="61" type="qcurve" smooth="yes"/>
      <point x="67" y="617" type="line" smooth="yes"/>
      <point x="67" y="637"/>
      <point x="37" y="660"/>
      <point x="21" y="666" type="qcurve"/>
      <point x="21" y="679" type="line"/>
      <point x="635" y="679" type="line"/>
      <point x="635" y="456" type="line"/>
      <point x="619" y="456" type="line"/>
      <point x="609" y="473"/>
      <point x="579" y="494"/>
      <point x="559" y="494" type="qcurve" smooth="yes"/>
      <point x="294" y="494" type="line"/>
      <point x="294" y="401" type="line"/>
    </contour>
  </outline>
</glyph>
<glyph name="Icircumflex" format="2">
  <advance width="359"/>
  <unicode hex="00CE"/>
  <outline>
    <contour>
      <point x="409" y="716" type="line"/>
      <point x="231" y="716" type="line"/>
      <point x="179" y="796" type="line"/>
      <point x="128" y="716" type="line"/>
      <point x="-50" y="716" type="line"/>
      <point x="53" y="884" type="line"/>
      <point x="306" y="884" type="line"/>
    </contour>
    <contour>
      <point x="342" y="679" type="line"/>
      <point x="342" y="666" type="line"/>
      <point x="326" y="660"/>
      <point x="296" y="638"/>
      <point x="296" y="618" type="qcurve" smooth="yes"/>
      <point x="296" y="62" type="line" smooth="yes"/>
      <point x="296" y="42"/>
      <point x="326" y="20"/>
      <point x="342" y="14" type="qcurve"/>
      <point x="342" y="0" type="line"/>
      <point x="22" y="0" type="line"/>
      <point x="22" y="14" type="line"/>
      <point x="38" y="20"/>
      <point x="68" y="42"/>
      <point x="68" y="62" type="qcurve" smooth="yes"/>
      <point x="68" y="618" type="line" smooth="yes"/>
      <point x="68" y="638"/>
      <point x="38" y="660"/>
      <point x="22" y="666" type="qcurve"/>
      <point x="22" y="679" type="line"/>
    </contour>
  </outline>
</glyph>
<glyph name="Idieresis" format="2">
  <advance width="359"/>
  <unicode hex="00CF"/>
  <outline>
    <contour>
      <point x="53" y="870" type="qcurve" smooth="yes"/>
      <point x="70" y="870"/>
      <point x="106" y="858"/>
      <point x="135" y="837"/>
      <point x="154" y="806"/>
      <point x="154" y="787" type="qcurve" smooth="yes"/>
      <point x="154" y="768"/>
      <point x="135" y="738"/>
      <point x="106" y="717"/>
      <point x="70" y="706"/>
      <point x="53" y="706" type="qcurve" smooth="yes"/>
      <point x="35" y="706"/>
      <point x="-1" y="717"/>
      <point x="-30" y="738"/>
      <point x="-49" y="768"/>
      <point x="-49" y="787" type="qcurve" smooth="yes"/>
      <point x="-49" y="807"/>
      <point x="-30" y="838"/>
      <point x="-1" y="859"/>
      <point x="35" y="870"/>
    </contour>
    <contour>
      <point x="308" y="870" type="qcurve" smooth="yes"/>
      <point x="326" y="870"/>
      <point x="362" y="858"/>
      <point x="391" y="837"/>
      <point x="409" y="806"/>
      <point x="409" y="787" type="qcurve" smooth="yes"/>
      <point x="409" y="768"/>
      <point x="391" y="738"/>
      <point x="362" y="717"/>
      <point x="326" y="706"/>
      <point x="308" y="706" type="qcurve" smooth="yes"/>
      <point x="290" y="706"/>
      <point x="254" y="717"/>
      <point x="225" y="738"/>
      <point x="206" y="768"/>
      <point x="206" y="787" type="qcurve" smooth="yes"/>
      <point x="206" y="807"/>
      <point x="225" y="838"/>
      <point x="254" y="859"/>
      <point x="290" y="870"/>
    </contour>
    <contour>
      <point x="342" y="679" type="line"/>
      <point x="342" y="666" type="line"/>
      <point x="326" y="660"/>
      <point x="296" y="638"/>
      <point x="296" y="618" type="qcurve" smooth="yes"/>
      <point x="296" y="62" type="line" smooth="yes"/>
      <point x="296" y="42"/>
      <point x="326" y="20"/>
      <point x="342" y="14" type="qcurve"/>
      <point x="342" y="0" type="line"/>
      <point x="22" y="0" type="line"/>
      <point x="22" y="14" type="line"/>
      <point x="38" y="20"/>
      <point x="68" y="42"/>
      <point x="68" y="62" type="qcurve" smooth="yes"/>
      <point x="68" y="618" type="line" smooth="yes"/>
      <point x="68" y="638"/>
      <point x="38" y="660"/>
      <point x="22" y="666" type="qcurve"/>
      <point x="22" y="679" type="line"/>
    </contour>
  </outline>
</glyph>
<glyph name="Ntilde" format="2">
  <advance width="727"/>
  <unicode hex="00D1"/>
  <outline>
    <contour>
      <point x="599" y="830" type="line"/>
      <point x="598" y="828"/>
      <point x="581" y="798"/>
      <point x="565" y="780" type="qcurve" smooth="yes"/>
      <point x="545" y="757"/>
      <point x="523" y="741" type="qcurve" smooth="yes"/>
      <point x="493" y="720"/>
      <point x="458" y="712" type="qcurve" smooth="yes"/>
      <point x="443" y="708"/>
      <point x="426" y="708" type="qcurve" smooth="yes"/>
      <point x="416" y="708"/>
      <point x="398" y="711"/>
      <point x="388" y="713" type="qcurve" smooth="yes"/>
      <point x="352" y="720"/>
      <point x="316" y="747" type="qcurve" smooth="yes"/>
      <point x="305" y="755"/>
      <point x="296" y="757"/>
      <point x="294" y="757" type="qcurve"/>
      <point x="292" y="757"/>
      <point x="291" y="756" type="qcurve"/>
      <point x="275" y="751"/>
      <point x="260" y="733" type="qcurve"/>
      <point x="250" y="723"/>
      <point x="246" y="716" type="qcurve" smooth="yes"/>
      <point x="244" y="714"/>
      <point x="242" y="710"/>
      <point x="241" y="708" type="qcurve"/>
      <point x="128" y="771" type="line"/>
      <point x="129" y="773"/>
      <point x="146" y="801"/>
      <point x="161" y="819" type="qcurve" smooth="yes"/>
      <point x="170" y="830"/>
      <point x="190" y="848"/>
      <point x="201" y="856" type="qcurve" smooth="yes"/>
      <point x="234" y="880"/>
      <point x="262" y="884" type="qcurve"/>
      <point x="275" y="888"/>
      <point x="296" y="888" type="qcurve" smooth="yes"/>
      <point x="302" y="888"/>
      <point x="319" y="888"/>
      <point x="343" y="883"/>
      <point x="373" y="869"/>
      <point x="393" y="854" type="qcurve" smooth="yes"/>
      <point x="409" y="841"/>
      <point x="421" y="840"/>
      <point x="423" y="840" type="qcurve"/>
      <point x="429" y="840"/>
      <point x="430" y="841" type="qcurve"/>
      <point x="447" y="844"/>
      <point x="468" y="868" type="qcurve" smooth="yes"/>
      <point x="471" y="872"/>
      <point x="477" y="880"/>
      <point x="480" y="885" type="qcurve" smooth="yes"/>
      <point x="482" y="887"/>
      <point x="484" y="891"/>
      <point x="485" y="893" type="qcurve"/>
      <point x="542" y="860" type="line"/>
    </contour>
    <contour>
      <point x="17" y="13" type="line"/>
      <point x="34" y="19"/>
      <point x="63" y="42"/>
      <point x="63" y="62" type="qcurve" smooth="yes"/>
      <point x="63" y="617" type="line" smooth="yes"/>
      <point x="63" y="637"/>
      <point x="34" y="660"/>
      <point x="17" y="666" type="qcurve"/>
      <point x="17" y="679" type="line"/>
      <point x="336" y="679" type="line"/>
      <point x="336" y="666" type="line"/>
      <point x="320" y="660"/>
      <point x="290" y="637"/>
      <point x="290" y="617" type="qcurve" smooth="yes"/>
      <point x="290" y="494" type="line"/>
      <point x="442" y="344" type="line"/>
      <point x="442" y="617" type="line" smooth="yes"/>
      <point x="442" y="637"/>
      <point x="413" y="660"/>
      <point x="396" y="666" type="qcurve"/>
      <point x="396" y="679" type="line"/>
      <point x="715" y="679" type="line"/>
      <point x="715" y="666" type="line"/>
      <point x="698" y="660"/>
      <point x="669" y="637"/>
      <point x="669" y="617" type="qcurve" smooth="yes"/>
      <point x="669" y="62" type="line" smooth="yes"/>
      <point x="669" y="42"/>
      <point x="698" y="19"/>
      <point x="715" y="13" type="qcurve"/>
      <point x="715" y="0" type="line"/>
      <point x="396" y="0" type="line"/>
      <point x="396" y="13" type="line"/>
      <point x="413" y="19"/>
      <point x="442" y="42"/>
      <point x="442" y="62" type="qcurve" smooth="yes"/>
      <point x="442" y="150" type="line"/>
      <point x="290" y="300" type="line"/>
      <point x="290" y="62" type="line" smooth="yes"/>
      <point x="290" y="42"/>
      <point x="320" y="19"/>
      <point x="336" y="13" type="qcurve"/>
      <point x="336" y="0" type="line"/>
      <point x="17" y="0" type="line"/>
    </contour>
  </outline>
</glyph>
<glyph name="Otilde" format="2">
  <advance width="700"/>
  <unicode hex="00D5"/>
  <outline>
    <contour>
      <point x="585" y="830" type="line"/>
      <point x="584" y="828"/>
      <point x="567" y="798"/>
      <point x="551" y="780" type="qcurve" smooth="yes"/>
      <point x="531" y="757"/>
      <point x="509" y="741" type="qcurve" smooth="yes"/>
      <point x="479" y="720"/>
      <point x="444" y="712" type="qcurve" smooth="yes"/>
      <point x="429" y="708"/>
      <point x="412" y="708" type="qcurve" smooth="yes"/>
      <point x="402" y="708"/>
      <point x="384" y="711"/>
      <point x="374" y="713" type="qcurve" smooth="yes"/>
      <point x="338" y="720"/>
      <point x="302" y="747" type="qcurve" smooth="yes"/>
      <point x="291" y="755"/>
      <point x="282" y="757"/>
      <point x="280" y="757" type="qcurve"/>
      <point x="278" y="757"/>
      <point x="277" y="756" type="qcurve"/>
      <point x="261" y="751"/>
      <point x="246" y="733" type="qcurve"/>
      <point x="236" y="723"/>
      <point x="232" y="716" type="qcurve" smooth="yes"/>
      <point x="230" y="714"/>
      <point x="228" y="710"/>
      <point x="227" y="708" type="qcurve"/>
      <point x="114" y="771" type="line"/>
      <point x="115" y="773"/>
      <point x="132" y="801"/>
      <point x="147" y="819" type="qcurve" smooth="yes"/>
      <point x="156" y="830"/>
      <point x="176" y="848"/>
      <point x="187" y="856" type="qcurve" smooth="yes"/>
      <point x="220" y="880"/>
      <point x="248" y="884" type="qcurve"/>
      <point x="261" y="888"/>
      <point x="282" y="888" type="qcurve" smooth="yes"/>
      <point x="288" y="888"/>
      <point x="305" y="888"/>
      <point x="329" y="883"/>
      <point x="359" y="869"/>
      <point x="379" y="854" type="qcurve" smooth="yes"/>
      <point x="395" y="841"/>
      <point x="407" y="840"/>
      <point x="409" y="840" type="qcurve"/>
      <point x="415" y="840"/>
      <point x="416" y="841" type="qcurve"/>
      <point x="433" y="844"/>
      <point x="454" y="868" type="qcurve" smooth="yes"/>
      <point x="457" y="872"/>
      <point x="463" y="880"/>
      <point x="466" y="885" type="qcurve" smooth="yes"/>
      <point x="468" y="887"/>
      <point x="470" y="891"/>
      <point x="471" y="893" type="qcurve"/>
      <point x="528" y="860" type="line"/>
    </contour>
    <contour>
      <point x="654" y="92" type="line" smooth="yes"/>
      <point x="654" y="62"/>
      <point x="624" y="25"/>
      <point x="579" y="6"/>
      <point x="526" y="0"/>
      <point x="502" y="0" type="qcurve" smooth="yes"/>
      <point x="199" y="0" type="line" smooth="yes"/>
      <point x="175" y="0"/>
      <point x="122" y="6"/>
      <point x="77" y="25"/>
      <point x="48" y="62"/>
      <point x="48" y="92" type="qcurve" smooth="yes"/>
      <point x="48" y="586" type="line" smooth="yes"/>
      <point x="48" y="616"/>
      <point x="77" y="653"/>
      <point x="122" y="672"/>
      <point x="175" y="678"/>
      <point x="199" y="678" type="qcurve" smooth="yes"/>
      <point x="502" y="678" type="line" smooth="yes"/>
      <point x="526" y="678"/>
      <point x="579" y="672"/>
      <point x="624" y="653"/>
      <point x="654" y="616"/>
      <point x="654" y="586" type="qcurve" smooth="yes"/>
    </contour>
    <contour>
      <point x="426" y="185" type="line"/>
      <point x="426" y="493" type="line"/>
      <point x="275" y="493" type="line"/>
      <point x="275" y="185" type="line"/>
    </contour>
  </outline>
</glyph>
<glyph name="Odieresis" format="2">
  <advance width="700"/>
  <unicode hex="00D6"/>
  <outline>
    <contour>
      <point x="223" y="870" type="qcurve" smooth="yes"/>
      <point x="240" y="870"/>
      <point x="276" y="858"/>
      <point x="305" y="837"/>
      <point x="324" y="806"/>
      <point x="324" y="787" type="qcurve" smooth="yes"/>
      <point x="324" y="768"/>
      <point x="305" y="738"/>
      <point x="276" y="717"/>
      <point x="240" y="706"/>
      <point x="223" y="706" type="qcurve" smooth="yes"/>
      <point x="205" y="706"/>
      <point x="169" y="717"/>
      <point x="140" y="738"/>
      <point x="121" y="768"/>
      <point x="121" y="787" type="qcurve" smooth="yes"/>
      <point x="121" y="807"/>
      <point x="140" y="838"/>
      <point x="169" y="859"/>
      <point x="205" y="870"/>
    </contour>
    <contour>
      <point x="478" y="870" type="qcurve" smooth="yes"/>
      <point x="496" y="870"/>
      <point x="532" y="858"/>
      <point x="561" y="837"/>
      <point x="579" y="806"/>
      <point x="579" y="787" type="qcurve" smooth="yes"/>
      <point x="579" y="768"/>
      <point x="561" y="738"/>
      <point x="532" y="717"/>
      <point x="496" y="706"/>
      <point x="478" y="706" type="qcurve" smooth="yes"/>
      <point x="460" y="706"/>
      <point x="424" y="717"/>
      <point x="395" y="738"/>
      <point x="376" y="768"/>
      <point x="376" y="787" type="qcurve" smooth="yes"/>
      <point x="376" y="807"/>
      <point x="395" y="838"/>
      <point x="424" y="859"/>
      <point x="460" y="870"/>
    </contour>
    <contour>
      <point x="654" y="92" type="line" smooth="yes"/>
      <point x="654" y="62"/>
      <point x="624" y="25"/>
      <point x="579" y="6"/>
      <point x="526" y="0"/>
      <point x="502" y="0" type="qcurve" smooth="yes"/>
      <point x="199" y="0" type="line" smooth="yes"/>
      <point x="175" y="0"/>
      <point x="122" y="6"/>
      <point x="77" y="25"/>
      <point x="48" y="62"/>
      <point x="48" y="92" type="qcurve" smooth="yes"/>
      <point x="48" y="586" type="line" smooth="yes"/>
      <point x="48" y="616"/>
      <point x="77" y="653"/>
      <point x="122" y="672"/>
      <point x="175" y="678"/>
      <point x="199" y="678" type="qcurve" smooth="yes"/>
      <point x="502" y="678" type="line" smooth="yes"/>
      <point x="526" y="678"/>
      <point x="579" y="672"/>
      <point x="624" y="653"/>
      <point x="654" y="616"/>
      <point x="654" y="586" type="qcurve" smooth="yes"/>
    </contour>
    <contour>
      <point x="426" y="185" type="line"/>
      <point x="426" y="493" type="line"/>
      <point x="275" y="493" type="line"/>
      <point x="275" y="185" type="line"/>
    </contour>
  </outline>
</glyph>
<glyph name="Yacute" format="2">
  <advance width="688"/>
  <unicode hex="00DD"/>
  <outline>
    <contour>
      <point x="384" y="716" type="line"/>
      <point x="201" y="716" type="line"/>
      <point x="309" y="884" type="line"/>
      <point x="487" y="884" type="line"/>
    </contour>
    <contour>
      <point x="452" y="278" type="line"/>
      <point x="452" y="62" type="line" smooth="yes"/>
      <point x="452" y="42"/>
      <point x="481" y="19"/>
      <point x="498" y="13" type="qcurve"/>
      <point x="498" y="0" type="line"/>
      <point x="178" y="0" type="line"/>
      <point x="178" y="13" type="line"/>
      <point x="194" y="19"/>
      <point x="225" y="42"/>
      <point x="225" y="62" type="qcurve" smooth="yes"/>
      <point x="225" y="278" type="line"/>
      <point x="172" y="278" type="line" smooth="yes"/>
      <point x="133" y="278"/>
      <point x="87" y="308"/>
      <point x="63" y="355"/>
      <point x="56" y="410"/>
      <point x="56" y="436" type="qcurve" smooth="yes"/>
      <point x="56" y="443"/>
      <point x="58" y="492"/>
      <point x="58" y="525" type="qcurve" smooth="yes"/>
      <point x="58" y="617" type="line" smooth="yes"/>
      <point x="58" y="637"/>
      <point x="29" y="660"/>
      <point x="12" y="666" type="qcurve"/>
      <point x="12" y="679" type="line"/>
      <point x="331" y="679" type="line"/>
      <point x="331" y="666" type="line"/>
      <point x="315" y="660"/>
      <point x="285" y="637"/>
      <point x="285" y="617" type="qcurve" smooth="yes"/>
      <point x="285" y="401" type="line"/>
      <point x="401" y="401" type="line"/>
      <point x="401" y="617" type="line" smooth="yes"/>
      <point x="401" y="637"/>
      <point x="371" y="660"/>
      <point x="355" y="666" type="qcurve"/>
      <point x="355" y="679" type="line"/>
      <point x="674" y="679" type="line"/>
      <point x="674" y="666" type="line"/>
      <point x="657" y="660"/>
      <point x="628" y="637"/>
      <point x="628" y="617" type="qcurve" smooth="yes"/>
      <point x="628" y="525" type="line" smooth="yes"/>
      <point x="628" y="492"/>
      <point x="630" y="443"/>
      <point x="630" y="436" type="qcurve" smooth="yes"/>
      <point x="630" y="410"/>
      <point x="623" y="355"/>
      <point x="599" y="308"/>
      <point x="553" y="278"/>
      <point x="514" y="278" type="qcurve" smooth="yes"/>
    </contour>
  </outline>
</glyph>
<glyph name="atilde" format="2">
  <advance width="722"/>
  <unicode hex="00E3"/>
  <outline>
    <contour>
      <point x="596" y="830" type="line"/>
      <point x="595" y="828"/>
      <point x="578" y="798"/>
      <point x="562" y="780" type="qcurve" smooth="yes"/>
      <point x="542" y="757"/>
      <point x="520" y="741" type="qcurve" smooth="yes"/>
      <point x="490" y="720"/>
      <point x="455" y="712" type="qcurve" smooth="yes"/>
      <point x="440" y="708"/>
      <point x="423" y="708" type="qcurve" smooth="yes"/>
      <point x="413" y="708"/>
      <point x="395" y="711"/>
      <point x="385" y="713" type="qcurve" smooth="yes"/>
      <point x="349" y="720"/>
      <point x="313" y="747" type="qcurve" smooth="yes"/>
      <point x="302" y="755"/>
      <point x="293" y="757"/>
      <point x="291" y="757" type="qcurve"/>
      <point x="289" y="757"/>
      <point x="288" y="756" type="qcurve"/>
      <point x="272" y="751"/>
      <point x="257" y="733" type="qcurve"/>
      <point x="247" y="723"/>
      <point x="243" y="716" type="qcurve" smooth="yes"/>
      <point x="241" y="714"/>
      <point x="239" y="710"/>
      <point x="238" y="708" type="qcurve"/>
      <point x="125" y="771" type="line"/>
      <point x="126" y="773"/>
      <point x="143" y="801"/>
      <point x="158" y="819" type="qcurve" smooth="yes"/>
      <point x="167" y="830"/>
      <point x="187" y="848"/>
      <point x="198" y="856" type="qcurve" smooth="yes"/>
      <point x="231" y="880"/>
      <point x="259" y="884" type="qcurve"/>
      <point x="272" y="888"/>
      <point x="293" y="888" type="qcurve" smooth="yes"/>
      <point x="299" y="888"/>
      <point x="316" y="888"/>
      <point x="340" y="883"/>
      <point x="370" y="869"/>
      <point x="390" y="854" type="qcurve" smooth="yes"/>
      <point x="406" y="841"/>
      <point x="418" y="840"/>
      <point x="420" y="840" type="qcurve"/>
      <point x="426" y="840"/>
      <point x="427" y="841" type="qcurve"/>
      <point x="444" y="844"/>
      <point x="465" y="868" type="qcurve" smooth="yes"/>
      <point x="468" y="872"/>
      <point x="474" y="880"/>
      <point x="477" y="885" type="qcurve" smooth="yes"/>
      <point x="479" y="887"/>
      <point x="481" y="891"/>
      <point x="482" y="893" type="qcurve"/>
      <point x="539" y="860" type="line"/>
    </contour>
    <contour>
      <point x="545" y="665" type="line"/>
      <point x="534" y="661"/>
      <point x="512" y="646"/>
      <point x="512" y="633" type="qcurve" smooth="yes"/>
      <point x="512" y="626"/>
      <point x="535" y="591"/>
      <point x="569" y="542"/>
      <point x="608" y="484"/>
      <point x="642" y="427"/>
      <point x="665" y="374"/>
      <point x="665" y="354" type="qcurve" smooth="yes"/>
      <point x="665" y="61" type="line" smooth="yes"/>
      <point x="665" y="41"/>
      <point x="695" y="19"/>
      <point x="711" y="13" type="qcurve"/>
      <point x="711" y="0" type="line"/>
      <point x="391" y="0" type="line"/>
      <point x="391" y="13" type="line"/>
      <point x="407" y="19"/>
      <point x="437" y="41"/>
      <point x="437" y="61" type="qcurve" smooth="yes"/>
      <point x="437" y="185" type="line"/>
      <point x="286" y="185" type="line"/>
      <point x="286" y="61" type="line" smooth="yes"/>
      <point x="286" y="41"/>
      <point x="316" y="19"/>
      <point x="332" y="13" type="qcurve"/>
      <point x="332" y="0" type="line"/>
      <point x="13" y="0" type="line"/>
      <point x="13" y="13" type="line"/>
      <point x="28" y="19"/>
      <point x="59" y="42"/>
      <point x="59" y="61" type="qcurve" smooth="yes"/>
      <point x="59" y="256" type="line" smooth="yes"/>
      <point x="59" y="281"/>
      <point x="58" y="314"/>
      <point x="58" y="322" type="qcurve" smooth="yes"/>
      <point x="58" y="330"/>
      <point x="58" y="346"/>
      <point x="59" y="354" type="qcurve" smooth="yes"/>
      <point x="60" y="375"/>
      <point x="83" y="429"/>
      <point x="117" y="487"/>
      <point x="156" y="544"/>
      <point x="189" y="591"/>
      <point x="211" y="626"/>
      <point x="211" y="633" type="qcurve" smooth="yes"/>
      <point x="211" y="646"/>
      <point x="190" y="661"/>
      <point x="179" y="665" type="qcurve"/>
      <point x="179" y="679" type="line"/>
      <point x="545" y="679" type="line"/>
    </contour>
    <contour>
      <point x="437" y="308" type="line"/>
      <point x="437" y="322" type="line" smooth="yes"/>
      <point x="437" y="347"/>
      <point x="423" y="388"/>
      <point x="401" y="425"/>
      <point x="375" y="461"/>
      <point x="362" y="481" type="qcurve"/>
      <point x="346" y="458"/>
      <point x="318" y="421"/>
      <point x="298" y="382"/>
      <point x="286" y="338"/>
      <point x="286" y="308" type="qcurve"/>
    </contour>
  </outline>
</glyph>
<glyph name="ccedilla" format="2">
  <advance width="670"/>
  <unicode hex="00E7"/>
  <outline>
    <contour>
      <point x="618" y="247" type="line"/>
      <point x="618" y="93" type="line" smooth="yes"/>
      <point x="618" y="63"/>
      <point x="589" y="26"/>
      <point x="544" y="6"/>
      <point x="491" y="0"/>
      <point x="467" y="0" type="qcurve" smooth="yes"/>
      <point x="361" y="0" type="line"/>
      <point x="361" y="-44" type="line"/>
      <point x="425" y="-44" type="line" smooth="yes"/>
      <point x="433" y="-44"/>
      <point x="455" y="-47"/>
      <point x="475" y="-55"/>
      <point x="489" y="-70"/>
      <point x="489" y="-82" type="qcurve" smooth="yes"/>
      <point x="489" y="-209" type="line" smooth="yes"/>
      <point x="489" y="-222"/>
      <point x="476" y="-237"/>
      <point x="456" y="-245"/>
      <point x="434" y="-247"/>
      <point x="424" y="-247" type="qcurve" smooth="yes"/>
      <point x="258" y="-247" type="line"/>
      <point x="258" y="-157" type="line"/>
      <point x="392" y="-157" type="line"/>
      <point x="392" y="-125" type="line"/>
      <point x="257" y="-125" type="line"/>
      <point x="257" y="0" type="line"/>
      <point x="203" y="0" type="line" smooth="yes"/>
      <point x="179" y="0"/>
      <point x="126" y="6"/>
      <point x="81" y="26"/>
      <point x="52" y="63"/>
      <point x="52" y="93" type="qcurve" smooth="yes"/>
      <point x="52" y="586" type="line" smooth="yes"/>
      <point x="52" y="616"/>
      <point x="81" y="653"/>
      <point x="126" y="673"/>
      <point x="179" y="679"/>
      <point x="203" y="679" type="qcurve" smooth="yes"/>
      <point x="467" y="679" type="line" smooth="yes"/>
      <point x="491" y="679"/>
      <point x="544" y="673"/>
      <point x="589" y="653"/>
      <point x="618" y="616"/>
      <point x="618" y="586" type="qcurve" smooth="yes"/>
      <point x="618" y="432" type="line"/>
      <point x="354" y="432" type="line"/>
      <point x="354" y="445" type="line"/>
      <point x="371" y="451"/>
      <point x="400" y="474"/>
      <point x="400" y="494" type="qcurve"/>
      <point x="279" y="494" type="line"/>
      <point x="279" y="185" type="line"/>
      <point x="400" y="185" type="line"/>
      <point x="400" y="205"/>
      <point x="371" y="228"/>
      <point x="354" y="234" type="qcurve"/>
      <point x="354" y="247" type="line"/>
    </contour>
  </outline>
</glyph>
<glyph name="icircumflex" format="2">
  <advance width="381"/>
  <unicode hex="00EE"/>
  <outline>
    <contour>
      <point x="420" y="716" type="line"/>
      <point x="242" y="716" type="line"/>
      <point x="190" y="796" type="line"/>
      <point x="139" y="716" type="line"/>
      <point x="-39" y="716" type="line"/>
      <point x="64" y="884" type="line"/>
      <point x="317" y="884" type="line"/>
    </contour>
    <contour>
      <point x="342" y="679" type="line"/>
      <point x="342" y="666" type="line"/>
      <point x="326" y="660"/>
      <point x="296" y="638"/>
      <point x="296" y="618" type="qcurve" smooth="yes"/>
      <point x="296" y="62" type="line" smooth="yes"/>
      <point x="296" y="42"/>
      <point x="326" y="20"/>
      <point x="342" y="14" type="qcurve"/>
      <point x="342" y="0" type="line"/>
      <point x="22" y="0" type="line"/>
      <point x="22" y="14" type="line"/>
      <point x="38" y="20"/>
      <point x="68" y="42"/>
      <point x="68" y="62" type="qcurve" smooth="yes"/>
      <point x="68" y="618" type="line" smooth="yes"/>
      <point x="68" y="638"/>
      <point x="38" y="660"/>
      <point x="22" y="666" type="qcurve"/>
      <point x="22" y="679" type="line"/>
    </contour>
  </outline>
</glyph>
<glyph name="idieresis" format="2">
  <advance width="381"/>
  <unicode hex="00EF"/>
  <outline>
    <contour>
      <point x="64" y="870" type="qcurve" smooth="yes"/>
      <point x="81" y="870"/>
      <point x="117" y="858"/>
      <point x="146" y="837"/>
      <point x="165" y="806"/>
      <point x="165" y="787" type="qcurve" smooth="yes"/>
      <point x="165" y="768"/>
      <point x="146" y="738"/>
      <point x="117" y="717"/>
      <point x="81" y="706"/>
      <point x="64" y="706" type="qcurve" smooth="yes"/>
      <point x="46" y="706"/>
      <point x="10" y="717"/>
      <point x="-19" y="738"/>
      <point x="-38" y="768"/>
      <point x="-38" y="787" type="qcurve" smooth="yes"/>
      <point x="-38" y="807"/>
      <point x="-19" y="838"/>
      <point x="10" y="859"/>
      <point x="46" y="870"/>
    </contour>
    <contour>
      <point x="319" y="870" type="qcurve" smooth="yes"/>
      <point x="337" y="870"/>
      <point x="373" y="858"/>
      <point x="402" y="837"/>
      <point x="420" y="806"/>
      <point x="420" y="787" type="qcurve" smooth="yes"/>
      <point x="420" y="768"/>
      <point x="402" y="738"/>
      <point x="373" y="717"/>
      <point x="337" y="706"/>
      <point x="319" y="706" type="qcurve" smooth="yes"/>
      <point x="301" y="706"/>
      <point x="265" y="717"/>
      <point x="236" y="738"/>
      <point x="217" y="768"/>
      <point x="217" y="787" type="qcurve" smooth="yes"/>
      <point x="217" y="807"/>
      <point x="236" y="838"/>
      <point x="265" y="859"/>
      <point x="301" y="870"/>
    </contour>
    <contour>
      <point x="342" y="679" type="line"/>
      <point x="342" y="666" type="line"/>
      <point x="326" y="660"/>
      <point x="296" y="638"/>
      <point x="296" y="618" type="qcurve" smooth="yes"/>
      <point x="296" y="62" type="line" smooth="yes"/>
      <point x="296" y="42"/>
      <point x="326" y="20"/>
      <point x="342" y="14" type="qcurve"/>
      <point x="342" y="0" type="line"/>
      <point x="22" y="0" type="line"/>
      <point x="22" y="14" type="line"/>
      <point x="38" y="20"/>
      <point x="68" y="42"/>
      <point x="68" y="62" type="qcurve" smooth="yes"/>
      <point x="68" y="618" type="line" smooth="yes"/>
      <point x="68" y="638"/>
      <point x="38" y="660"/>
      <point x="22" y="666" type="qcurve"/>
      <point x="22" y="679" type="line"/>
    </contour>
  </outline>
</glyph>
<glyph name="divide" format="2">
  <advance width="573"/>
  <unicode hex="00F7"/>
  <outline>
    <contour>
      <point x="283" y="680" type="qcurve" smooth="yes"/>
      <point x="302" y="680"/>
      <point x="343" y="667"/>
      <point x="375" y="643"/>
      <point x="396" y="609"/>
      <point x="396" y="587" type="qcurve" smooth="yes"/>
      <point x="396" y="565"/>
      <point x="375" y="531"/>
      <point x="343" y="507"/>
      <point x="302" y="495"/>
      <point x="283" y="495" type="qcurve" smooth="yes"/>
      <point x="263" y="495"/>
      <point x="223" y="507"/>
      <point x="190" y="531"/>
      <point x="169" y="565"/>
      <point x="169" y="587" type="qcurve" smooth="yes"/>
      <point x="169" y="609"/>
      <point x="190" y="644"/>
      <point x="223" y="668"/>
      <point x="263" y="680"/>
    </contour>
    <contour>
      <point x="27" y="432" type="line"/>
      <point x="531" y="432" type="line"/>
      <point x="531" y="264" type="line"/>
      <point x="27" y="264" type="line"/>
    </contour>
    <contour>
      <point x="283" y="185" type="qcurve" smooth="yes"/>
      <point x="302" y="185"/>
      <point x="343" y="172"/>
      <point x="375" y="148"/>
      <point x="396" y="114"/>
      <point x="396" y="92" type="qcurve" smooth="yes"/>
      <point x="396" y="70"/>
      <point x="375" y="36"/>
      <point x="343" y="12"/>
      <point x="302" y="0"/>
      <point x="283" y="0" type="qcurve" smooth="yes"/>
      <point x="263" y="0"/>
      <point x="223" y="12"/>
      <point x="190" y="36"/>
      <point x="169" y="70"/>
      <point x="169" y="92" type="qcurve" smooth="yes"/>
      <point x="169" y="114"/>
      <point x="190" y="149"/>
      <point x="223" y="173"/>
      <point x="263" y="185"/>
    </contour>
  </outline>
</glyph>
<glyph name="udieresis" format="2">
  <advance width="704"/>
  <unicode hex="00FC"/>
  <outline>
    <contour>
      <point x="225" y="870" type="qcurve" smooth="yes"/>
      <point x="242" y="870"/>
      <point x="278" y="858"/>
      <point x="307" y="837"/>
      <point x="326" y="806"/>
      <point x="326" y="787" type="qcurve" smooth="yes"/>
      <point x="326" y="768"/>
      <point x="307" y="738"/>
      <point x="278" y="717"/>
      <point x="242" y="706"/>
      <point x="225" y="706" type="qcurve" smooth="yes"/>
      <point x="207" y="706"/>
      <point x="171" y="717"/>
      <point x="142" y="738"/>
      <point x="123" y="768"/>
      <point x="123" y="787" type="qcurve" smooth="yes"/>
      <point x="123" y="807"/>
      <point x="142" y="838"/>
      <point x="171" y="859"/>
      <point x="207" y="870"/>
    </contour>
    <contour>
      <point x="480" y="870" type="qcurve" smooth="yes"/>
      <point x="498" y="870"/>
      <point x="534" y="858"/>
      <point x="563" y="837"/>
      <point x="581" y="806"/>
      <point x="581" y="787" type="qcurve" smooth="yes"/>
      <point x="581" y="768"/>
      <point x="563" y="738"/>
      <point x="534" y="717"/>
      <point x="498" y="706"/>
      <point x="480" y="706" type="qcurve" smooth="yes"/>
      <point x="462" y="706"/>
      <point x="426" y="717"/>
      <point x="397" y="738"/>
      <point x="378" y="768"/>
      <point x="378" y="787" type="qcurve" smooth="yes"/>
      <point x="378" y="807"/>
      <point x="397" y="838"/>
      <point x="426" y="859"/>
      <point x="462" y="870"/>
    </contour>
    <contour>
      <point x="331" y="679" type="line"/>
      <point x="331" y="666" type="line"/>
      <point x="315" y="660"/>
      <point x="285" y="637"/>
      <point x="285" y="617" type="qcurve" smooth="yes"/>
      <point x="285" y="185" type="line"/>
      <point x="413" y="185" type="line"/>
      <point x="413" y="617" type="line" smooth="yes"/>
      <point x="413" y="637"/>
      <point x="383" y="660"/>
      <point x="367" y="666" type="qcurve"/>
      <point x="367" y="679" type="line"/>
      <point x="687" y="679" type="line"/>
      <point x="687" y="666" type="line"/>
      <point x="671" y="660"/>
      <point x="640" y="637"/>
      <point x="640" y="617" type="qcurve" smooth="yes"/>
      <point x="640" y="97" type="line" smooth="yes"/>
      <point x="640" y="67"/>
      <point x="611" y="29"/>
      <point x="566" y="8"/>
      <point x="513" y="0"/>
      <point x="489" y="0" type="qcurve" smooth="yes"/>
      <point x="209" y="0" type="line" smooth="yes"/>
      <point x="185" y="0"/>
      <point x="131" y="8"/>
      <point x="87" y="30"/>
      <point x="58" y="68"/>
      <point x="58" y="99" type="qcurve" smooth="yes"/>
      <point x="58" y="617" type="line" smooth="yes"/>
      <point x="58" y="636"/>
      <point x="28" y="660"/>
      <point x="12" y="666" type="qcurve"/>
      <point x="12" y="679" type="line"/>
    </contour>
  </outline>
</glyph>
<glyph name="amacron" format="2">
  <advance width="722"/>
  <unicode hex="0101"/>
  <outline>
    <contour>
      <point x="545" y="665" type="line"/>
      <point x="534" y="661"/>
      <point x="512" y="646"/>
      <point x="512" y="633" type="qcurve" smooth="yes"/>
      <point x="512" y="626"/>
      <point x="535" y="591"/>
      <point x="569" y="542"/>
      <point x="608" y="484"/>
      <point x="642" y="427"/>
      <point x="665" y="374"/>
      <point x="665" y="354" type="qcurve" smooth="yes"/>
      <point x="665" y="61" type="line" smooth="yes"/>
      <point x="665" y="41"/>
      <point x="695" y="19"/>
      <point x="711" y="13" type="qcurve"/>
      <point x="711" y="0" type="line"/>
      <point x="391" y="0" type="line"/>
      <point x="391" y="13" type="line"/>
      <point x="407" y="19"/>
      <point x="437" y="41"/>
      <point x="437" y="61" type="qcurve" smooth="yes"/>
      <point x="437" y="185" type="line"/>
      <point x="286" y="185" type="line"/>
      <point x="286" y="61" type="line" smooth="yes"/>
      <point x="286" y="41"/>
      <point x="316" y="19"/>
      <point x="332" y="13" type="qcurve"/>
      <point x="332" y="0" type="line"/>
      <point x="13" y="0" type="line"/>
      <point x="13" y="13" type="line"/>
      <point x="28" y="19"/>
      <point x="59" y="42"/>
      <point x="59" y="61" type="qcurve" smooth="yes"/>
      <point x="59" y="256" type="line" smooth="yes"/>
      <point x="59" y="281"/>
      <point x="58" y="314"/>
      <point x="58" y="322" type="qcurve" smooth="yes"/>
      <point x="58" y="330"/>
      <point x="58" y="346"/>
      <point x="59" y="354" type="qcurve" smooth="yes"/>
      <point x="60" y="375"/>
      <point x="83" y="429"/>
      <point x="117" y="487"/>
      <point x="156" y="544"/>
      <point x="189" y="591"/>
      <point x="211" y="626"/>
      <point x="211" y="633" type="qcurve" smooth="yes"/>
      <point x="211" y="646"/>
      <point x="190" y="661"/>
      <point x="179" y="665" type="qcurve"/>
      <point x="179" y="679" type="line"/>
      <point x="545" y="679" type="line"/>
    </contour>
    <contour>
      <point x="437" y="308" type="line"/>
      <point x="437" y="322" type="line" smooth="yes"/>
      <point x="437" y="347"/>
      <point x="423" y="388"/>
      <point x="401" y="425"/>
      <point x="375" y="461"/>
      <point x="362" y="481" type="qcurve"/>
      <point x="346" y="458"/>
      <point x="318" y="421"/>
      <point x="298" y="382"/>
      <point x="286" y="338"/>
      <point x="286" y="308" type="qcurve"/>
    </contour>
  </outline>
</glyph>
<glyph name="ccircumflex" format="2">
  <advance width="670"/>
  <unicode hex="0109"/>
  <outline>
    <contour>
      <point x="563" y="716" type="line"/>
      <point x="385" y="716" type="line"/>
      <point x="333" y="796" type="line"/>
      <point x="282" y="716" type="line"/>
      <point x="104" y="716" type="line"/>
      <point x="207" y="884" type="line"/>
      <point x="460" y="884" type="line"/>
    </contour>
    <contour>
      <point x="618" y="247" type="line"/>
      <point x="618" y="93" type="line" smooth="yes"/>
      <point x="618" y="63"/>
      <point x="589" y="26"/>
      <point x="544" y="6"/>
      <point x="491" y="0"/>
      <point x="467" y="0" type="qcurve" smooth="yes"/>
      <point x="203" y="0" type="line" smooth="yes"/>
      <point x="179" y="0"/>
      <point x="126" y="6"/>
      <point x="81" y="26"/>
      <point x="52" y="63"/>
      <point x="52" y="93" type="qcurve" smooth="yes"/>
      <point x="52" y="586" type="line" smooth="yes"/>
      <point x="52" y="616"/>
      <point x="81" y="653"/>
      <point x="126" y="673"/>
      <point x="179" y="679"/>
      <point x="203" y="679" type="qcurve" smooth="yes"/>
      <point x="467" y="679" type="line" smooth="yes"/>
      <point x="491" y="679"/>
      <point x="544" y="673"/>
      <point x="589" y="653"/>
      <point x="618" y="616"/>
      <point x="618" y="586" type="qcurve" smooth="yes"/>
      <point x="618" y="432" type="line"/>
      <point x="354" y="432" type="line"/>
      <point x="354" y="445" type="line"/>
      <point x="371" y="451"/>
      <point x="400" y="474"/>
      <point x="400" y="494" type="qcurve"/>
      <point x="279" y="494" type="line"/>
      <point x="279" y="185" type="line"/>
      <point x="400" y="185" type="line"/>
      <point x="400" y="205"/>
      <point x="371" y="228"/>
      <point x="354" y="234" type="qcurve"/>
      <point x="354" y="247" type="line"/>
    </contour>
  </outline>
</glyph>
<glyph name="Cdotaccent" format="2">
  <advance width="670"/>
  <unicode hex="010A"/>
  <outline>
    <contour>
      <point x="333" y="870" type="qcurve" smooth="yes"/>
      <point x="351" y="870"/>
      <point x="387" y="858"/>
      <point x="416" y="837"/>
      <point x="434" y="806"/>
      <point x="434" y="787" type="qcurve" smooth="yes"/>
      <point x="434" y="768"/>
      <point x="416" y="738"/>
      <point x="387" y="717"/>
      <point x="351" y="706"/>
      <point x="333" y="706" type="qcurve" smooth="yes"/>
      <point x="315" y="706"/>
      <point x="279" y="717"/>
      <point x="250" y="738"/>
      <point x="231" y="768"/>
      <point x="231" y="787" type="qcurve" smooth="yes"/>
      <point x="231" y="807"/>
      <point x="250" y="838"/>
      <point x="279" y="859"/>
      <point x="315" y="870"/>
    </contour>
    <contour>
      <point x="618" y="247" type="line"/>
      <point x="618" y="93" type="line" smooth="yes"/>
      <point x="618" y="63"/>
      <point x="589" y="26"/>
      <point x="544" y="6"/>
      <point x="491" y="0"/>
      <point x="467" y="0" type="qcurve" smooth="yes"/>
      <point x="203" y="0" type="line" smooth="yes"/>
      <point x="179" y="0"/>
      <point x="126" y="6"/>
      <point x="81" y="26"/>
      <point x="52" y="63"/>
      <point x="52" y="93" type="qcurve" smooth="yes"/>
      <point x="52" y="586" type="line" smooth="yes"/>
      <point x="52" y="616"/>
      <point x="81" y="653"/>
      <point x="126" y="673"/>
      <point x="179" y="679"/>
      <point x="203" y="679" type="qcurve" smooth="yes"/>
      <point x="467" y="679" type="line" smooth="yes"/>
      <point x="491" y="679"/>
      <point x="544" y="673"/>
      <point x="589" y="653"/>
      <point x="618" y="616"/>
      <point x="618" y="586" type="qcurve" smooth="yes"/>
      <point x="618" y="432" type="line"/>
      <point x="354" y="432" type="line"/>
      <point x="354" y="445" type="line"/>
      <point x="371" y="451"/>
      <point x="400" y="474"/>
      <point x="400" y="494" type="qcurve"/>
      <point x="279" y="494" type="line"/>
      <point x="279" y="185" type="line"/>
      <point x="400" y="185" type="line"/>
      <point x="400" y="205"/>
      <point x="371" y="228"/>
      <point x="354" y="234" type="qcurve"/>
      <point x="354" y="247" type="line"/>
    </contour>
  </outline>
</glyph>
<glyph name="dcaron" format="2">
  <advance width="700"/>
  <unicode hex="010F"/>
  <outline>
    <contour>
      <point x="453" y="716" type="line"/>
      <point x="200" y="716" type="line"/>
      <point x="97" y="884" type="line"/>
      <point x="275" y="884" type="line"/>
      <point x="326" y="804" type="line"/>
      <point x="378" y="884" type="line"/>
      <point x="556" y="884" type="line"/>
    </contour>
    <contour>
      <point x="17" y="13" type="line"/>
      <point x="32" y="19"/>
      <point x="63" y="42"/>
      <point x="63" y="61" type="qcurve" smooth="yes"/>
      <point x="63" y="617" type="line" smooth="yes"/>
      <point x="63" y="636"/>
      <point x="33" y="659"/>
      <point x="17" y="665" type="qcurve"/>
      <point x="17" y="678" type="line"/>
      <point x="489" y="678" type="line" smooth="yes"/>
      <point x="513" y="678"/>
      <point x="566" y="672"/>
      <point x="611" y="653"/>
      <point x="641" y="616"/>
      <point x="641" y="586" type="qcurve" smooth="yes"/>
      <point x="641" y="92" type="line" smooth="yes"/>
      <point x="641" y="62"/>
      <point x="611" y="25"/>
      <point x="566" y="6"/>
      <point x="513" y="0"/>
      <point x="489" y="0" type="qcurve" smooth="yes"/>
      <point x="17" y="0" type="line"/>
    </contour>
    <contour>
      <point x="414" y="185" type="line"/>
      <point x="414" y="493" type="line"/>
      <point x="290" y="493" type="line"/>
      <point x="290" y="185" type="line"/>
    </contour>
  </outline>
</glyph>
<glyph name="dcroat" format="2">
  <advance width="723"/>
  <unicode hex="0111"/>
  <outline>
    <contour>
      <point x="53" y="432" type="line"/>
      <point x="111" y="432" type="line"/>
      <point x="111" y="617" type="line" smooth="yes"/>
      <point x="111" y="636"/>
      <point x="81" y="659"/>
      <point x="65" y="665" type="qcurve"/>
      <point x="65" y="678" type="line"/>
      <point x="537" y="678" type="line" smooth="yes"/>
      <point x="561" y="678"/>
      <point x="614" y="672"/>
      <point x="659" y="653"/>
      <point x="689" y="616"/>
      <point x="689" y="586" type="qcurve" smooth="yes"/>
      <point x="689" y="92" type="line" smooth="yes"/>
      <point x="689" y="62"/>
      <point x="659" y="25"/>
      <point x="614" y="6"/>
      <point x="561" y="0"/>
      <point x="537" y="0" type="qcurve" smooth="yes"/>
      <point x="65" y="0" type="line"/>
      <point x="65" y="13" type="line"/>
      <point x="80" y="19"/>
      <point x="111" y="42"/>
      <point x="111" y="61" type="qcurve" smooth="yes"/>
      <point x="111" y="264" type="line"/>
      <point x="53" y="264" type="line"/>
    </contour>
    <contour>
      <point x="462" y="185" type="line"/>
      <point x="462" y="493" type="line"/>
      <point x="338" y="493" type="line"/>
      <point x="338" y="432" type="line"/>
      <point x="405" y="432" type="line"/>
      <point x="405" y="264" type="line"/>
      <point x="338" y="264" type="line"/>
      <point x="338" y="185" type="line"/>
    </contour>
  </outline>
</glyph>
<glyph name="emacron" format="2">
  <advance width="673"/>
  <unicode hex="0113"/>
  <outline>
    <contour>
      <point x="193" y="851" type="line"/>
      <point x="509" y="851" type="line"/>
      <point x="509" y="713" type="line"/>
      <point x="193" y="713" type="line"/>
    </contour>
    <contour>
      <point x="445" y="401" type="line" smooth="yes"/>
      <point x="465" y="401"/>
      <point x="495" y="421"/>
      <point x="505" y="438" type="qcurve"/>
      <point x="521" y="438" type="line"/>
      <point x="521" y="240" type="line"/>
      <point x="505" y="240" type="line"/>
      <point x="495" y="257"/>
      <point x="465" y="278"/>
      <point x="445" y="278" type="qcurve" smooth="yes"/>
      <point x="294" y="278" type="line"/>
      <point x="294" y="185" type="line"/>
      <point x="559" y="185" type="line" smooth="yes"/>
      <point x="579" y="185"/>
      <point x="609" y="205"/>
      <point x="619" y="222" type="qcurve"/>
      <point x="635" y="222" type="line"/>
      <point x="635" y="0" type="line"/>
      <point x="21" y="0" type="line"/>
      <point x="21" y="13" type="line"/>
      <point x="37" y="19"/>
      <point x="67" y="41"/>
      <point x="67" y="61" type="qcurve" smooth="yes"/>
      <point x="67" y="617" type="line" smooth="yes"/>
      <point x="67" y="637"/>
      <point x="37" y="660"/>
      <point x="21" y="666" type="qcurve"/>
      <point x="21" y="679" type="line"/>
      <point x="635" y="679" type="line"/>
      <point x="635" y="456" type="line"/>
      <point x="619" y="456" type="line"/>
      <point x="609" y="473"/>
      <point x="579" y="494"/>
      <point x="559" y="494" type="qcurve" smooth="yes"/>
      <point x="294" y="494" type="line"/>
      <point x="294" y="401" type="line"/>
    </contour>
  </outline>
</glyph>
<glyph name="Ebreve" format="2">
  <advance width="673"/>
  <unicode hex="0114"/>
  <outline>
    <contour>
      <point x="551" y="884" type="line"/>
      <point x="546" y="846"/>
      <point x="512" y="780"/>
      <point x="460" y="732"/>
      <point x="394" y="704"/>
      <point x="357" y="704" type="qcurve" smooth="yes"/>
      <point x="319" y="704"/>
      <point x="253" y="732"/>
      <point x="202" y="780"/>
      <point x="168" y="846"/>
      <point x="163" y="884" type="qcurve"/>
      <point x="271" y="884" type="line"/>
      <point x="279" y="855"/>
      <point x="326" y="817"/>
      <point x="357" y="817" type="qcurve" smooth="yes"/>
      <point x="388" y="817"/>
      <point x="434" y="855"/>
      <point x="443" y="884" type="qcurve"/>
    </contour>
    <contour>
      <point x="445" y="401" type="line" smooth="yes"/>
      <point x="465" y="401"/>
      <point x="495" y="421"/>
      <point x="505" y="438" type="qcurve"/>
      <point x="521" y="438" type="line"/>
      <point x="521" y="240" type="line"/>
      <point x="505" y="240" type="line"/>
      <point x="495" y="257"/>
      <point x="465" y="278"/>
      <point x="445" y="278" type="qcurve" smooth="yes"/>
      <point x="294" y="278" type="line"/>
      <point x="294" y="185" type="line"/>
      <point x="559" y="185" type="line" smooth="yes"/>
      <point x="579" y="185"/>
      <point x="609" y="205"/>
      <point x="619" y="222" type="qcurve"/>
      <point x="635" y="222" type="line"/>
      <point x="635" y="0" type="line"/>
      <point x="21" y="0" type="line"/>
      <point x="21" y="13" type="line"/>
      <point x="37" y="19"/>
      <point x="67" y="41"/>
      <point x="67" y="61" type="qcurve" smooth="yes"/>
      <point x="67" y="617" type="line" smooth="yes"/>
      <point x="67" y="637"/>
      <point x="37" y="660"/>
      <point x="21" y="666" type="qcurve"/>
      <point x="21" y="679" type="line"/>
      <point x="635" y="679" type="line"/>
      <point x="635" y="456" type="line"/>
      <point x="619" y="456" type="line"/>
      <point x="609" y="473"/>
      <point x="579" y="494"/>
      <point x="559" y="494" type="qcurve" smooth="yes"/>
      <point x="294" y="494" type="line"/>
      <point x="294" y="401" type="line"/>
    </contour>
  </outline>
</glyph>
<glyph name="Edotaccent" format="2">
  <advance width="673"/>
  <unicode hex="0116"/>
  <outline>
    <contour>
      <point x="337" y="870" type="qcurve" smooth="yes"/>
      <point x="355" y="870"/>
      <point x="391" y="858"/>
      <point x="420" y="837"/>
      <point x="438" y="806"/>
      <point x="438" y="787" type="qcurve" smooth="yes"/>
      <point x="438" y="768"/>
      <point x="420" y="738"/>
      <point x="391" y="717"/>
      <point x="355" y="706"/>
      <point x="337" y="706" type="qcurve" smooth="yes"/>
      <point x="319" y="706"/>
      <point x="283" y="717"/>
      <point x="254" y="738"/>
      <point x="235" y="768"/>
      <point x="235" y="787" type="qcurve" smooth="yes"/>
      <point x="235" y="807"/>
      <point x="254" y="838"/>
      <point x="283" y="859"/>
      <point x="319" y="870"/>
    </contour>
    <contour>
      <point x="445" y="401" type="line" smooth="yes"/>
      <point x="465" y="401"/>
      <point x="495" y="421"/>
      <point x="505" y="438" type="qcurve"/>
      <point x="521" y="438" type="line"/>
      <point x="521" y="240" type="line"/>
      <point x="505" y="240" type="line"/>
      <point x="495" y="257"/>
      <point x="465" y="278"/>
      <point x="445" y="278" type="qcurve" smooth="yes"/>
      <point x="294" y="278" type="line"/>
      <point x="294" y="185" type="line"/>
      <point x="559" y="185" type="line" smooth="yes"/>
      <point x="579" y="185"/>
      <point x="609" y="205"/>
      <point x="619" y="222" type="qcurve"/>
      <point x="635" y="222" type="line"/>
      <point x="635" y="0" type="line"/>
      <point x="21" y="0" type="line"/>
      <point x="21" y="13" type="line"/>
      <point x="37" y="19"/>
      <point x="67" y="41"/>
      <point x="67" y="61" type="qcurve" smooth="yes"/>
      <point x="67" y="617" type="line" smooth="yes"/>
      <point x="67" y="637"/>
      <point x="37" y="660"/>
      <point x="21" y="666" type="qcurve"/>
      <point x="21" y="679" type="line"/>
      <point x="635" y="679" type="line"/>
      <point x="635" y="456" type="line"/>
      <point x="619" y="456" type="line"/>
      <point x="609" y="473"/>
      <point x="579" y="494"/>
      <point x="559" y="494" type="qcurve" smooth="yes"/>
      <point x="294" y="494" type="line"/>
      <point x="294" y="401" type="line"/>
    </contour>
  </outline>
</glyph>
<glyph name="eogonek" format="2">
  <advance width="673"/>
  <unicode hex="0119"/>
  <outline>
    <contour>
      <point x="445" y="401" type="line" smooth="yes"/>
      <point x="465" y="401"/>
      <point x="495" y="421"/>
      <point x="505" y="438" type="qcurve"/>
      <point x="521" y="438" type="line"/>
      <point x="521" y="240" type="line"/>
      <point x="505" y="240" type="line"/>
      <point x="495" y="257"/>
      <point x="465" y="278"/>
      <point x="445" y="278" type="qcurve" smooth="yes"/>
      <point x="294" y="278" type="line"/>
      <point x="294" y="185" type="line"/>
      <point x="559" y="185" type="line" smooth="yes"/>
      <point x="579" y="185"/>
      <point x="609" y="205"/>
      <point x="619" y="222" type="qcurve"/>
      <point x="635" y="222" type="line"/>
      <point x="635" y="0" type="line"/>
      <point x="457" y="0" type="line"/>
      <point x="457" y="-125" type="line"/>
      <point x="322" y="-125" type="line"/>
      <point x="322" y="-157" type="line"/>
      <point x="456" y="-157" type="line"/>
      <point x="456" y="-247" type="line"/>
      <point x="290" y="-247" type="line" smooth="yes"/>
      <point x="280" y="-247"/>
      <point x="257" y="-245"/>
      <point x="238" y="-237"/>
      <point x="225" y="-222"/>
      <point x="225" y="-209" type="qcurve" smooth="yes"/>
      <point x="225" y="-82" type="line" smooth="yes"/>
      <point x="225" y="-70"/>
      <point x="239" y="-55"/>
      <point x="259" y="-47"/>
      <point x="281" y="-44"/>
      <point x="289" y="-44" type="qcurve" smooth="yes"/>
      <point x="353" y="-44" type="line"/>
      <point x="353" y="0" type="line"/>
      <point x="21" y="0" type="line"/>
      <point x="21" y="13" type="line"/>
      <point x="37" y="19"/>
      <point x="67" y="41"/>
      <point x="67" y="61" type="qcurve" smooth="yes"/>
      <point x="67" y="617" type="line" smooth="yes"/>
      <point x="67" y="637"/>
      <point x="37" y="660"/>
      <point x="21" y="666" type="qcurve"/>
      <point x="21" y="679" type="line"/>
      <point x="635" y="679" type="line"/>
      <point x="635" y="456" type="line"/>
      <point x="619" y="456" type="line"/>
      <point x="609" y="473"/>
      <point x="579" y="494"/>
      <point x="559" y="494" type="qcurve" smooth="yes"/>
      <point x="294" y="494" type="line"/>
      <point x="294" y="401" type="line"/>
    </contour>
  </outline>
</glyph>
<glyph name="Gcircumflex" format="2">
  <advance width="702"/>
  <unicode hex="011C"/>
  <outline>
    <contour>
      <point x="577" y="716" type="line"/>
      <point x="399" y="716" type="line"/>
      <point x="347" y="796" type="line"/>
      <point x="296" y="716" type="line"/>
      <point x="118" y="716" type="line"/>
      <point x="221" y="884" type="line"/>
      <point x="474" y="884" type="line"/>
    </contour>
    <contour>
      <point x="315" y="401" type="line"/>
      <point x="656" y="401" type="line"/>
      <point x="656" y="93" type="line" smooth="yes"/>
      <point x="656" y="63"/>
      <point x="626" y="26"/>
      <point x="581" y="6"/>
      <point x="528" y="0"/>
      <point x="504" y="0" type="qcurve" smooth="yes"/>
      <point x="201" y="0" type="line" smooth="yes"/>
      <point x="177" y="0"/>
      <point x="124" y="6"/>
      <point x="79" y="26"/>
      <point x="50" y="63"/>
      <point x="50" y="93" type="qcurve" smooth="yes"/>
      <point x="50" y="587" type="line" smooth="yes"/>
      <point x="50" y="617"/>
      <point x="80" y="654"/>
      <point x="125" y="673"/>
      <point x="178" y="679"/>
      <point x="201" y="679" type="qcurve" smooth="yes"/>
      <point x="504" y="679" type="line" smooth="yes"/>
      <point x="527" y="679"/>
      <point x="581" y="673"/>
      <point x="626" y="654"/>
      <point x="656" y="617"/>
      <point x="656" y="587" type="qcurve" smooth="yes"/>
      <point x="656" y="432" type="line"/>
      <point x="382" y="432" type="line"/>
      <point x="382" y="445" type="line"/>
      <point x="398" y="451"/>
      <point x="429" y="474"/>
      <point x="429" y="494" type="qcurve"/>
      <point x="277" y="494" type="line"/>
      <point x="277" y="185" type="line"/>
      <point x="429" y="185" type="line"/>
      <point x="429" y="278" type="line"/>
      <point x="391" y="278" type="line" smooth="yes"/>
      <point x="371" y="278"/>
      <point x="342" y="257"/>
      <point x="331" y="240" type="qcurve"/>
      <point x="315" y="240" type="line"/>
    </contour>
  </outline>
</glyph>
<glyph name="gbreve" format="2">
  <advance width="705"/>
  <unicode hex="011F"/>
  <outline>
    <contour>
      <point x="546" y="884" type="line"/>
      <point x="541" y="846"/>
      <point x="507" y="780"/>
      <point x="455" y="732"/>
      <point x="389" y="704"/>
      <point x="352" y="704" type="qcurve" smooth="yes"/>
      <point x="314" y="704"/>
      <point x="248" y="732"/>
      <point x="197" y="780"/>
      <point x="163" y="846"/>
      <point x="158" y="884" type="qcurve"/>
      <point x="266" y="884" type="line"/>
      <point x="274" y="855"/>
      <point x="321" y="817"/>
      <point x="352" y="817" type="qcurve" smooth="yes"/>
      <point x="383" y="817"/>
      <point x="429" y="855"/>
      <point x="438" y="884" type="qcurve"/>
    </contour>
    <contour>
      <point x="315" y="401" type="line"/>
      <point x="656" y="401" type="line"/>
      <point x="656" y="93" type="line" smooth="yes"/>
      <point x="656" y="63"/>
      <point x="626" y="26"/>
      <point x="581" y="6"/>
      <point x="528" y="0"/>
      <point x="504" y="0" type="qcurve" smooth="yes"/>
      <point x="201" y="0" type="line" smooth="yes"/>
      <point x="177" y="0"/>
      <point x="124" y="6"/>
      <point x="79" y="26"/>
      <point x="50" y="63"/>
      <point x="50" y="93" type="qcurve" smooth="yes"/>
      <point x="50" y="587" type="line" smooth="yes"/>
      <point x="50" y="617"/>
      <point x="80" y="654"/>
      <point x="125" y="673"/>
      <point x="178" y="679"/>
      <point x="201" y="679" type="qcurve" smooth="yes"/>
      <point x="504" y="679" type="line" smooth="yes"/>
      <point x="527" y="679"/>
      <point x="581" y="673"/>
      <point x="626" y="654"/>
      <point x="656" y="617"/>
      <point x="656" y="587" type="qcurve" smooth="yes"/>
      <point x="656" y="432" type="line"/>
      <point x="382" y="432" type="line"/>
      <point x="382" y="445" type="line"/>
      <point x="398" y="451"/>
      <point x="429" y="474"/>
      <point x="429" y="494" type="qcurve"/>
      <point x="277" y="494" type="line"/>
      <point x="277" y="185" type="line"/>
      <point x="429" y="185" type="line"/>
      <point x="429" y="278" type="line"/>
      <point x="391" y="278" type="line" smooth="yes"/>
      <point x="371" y="278"/>
      <point x="342" y="257"/>
      <point x="331" y="240" type="qcurve"/>
      <point x="315" y="240" type="line"/>
    </contour>
  </outline>
</glyph>
<glyph name="Gdotaccent" format="2">
  <advance width="705"/>
  <unicode hex="0120"/>
  <outline>
    <contour>
      <point x="353" y="870" type="qcurve" smooth="yes"/>
      <point x="371" y="870"/>
      <point x="407" y="858"/>
      <point x="436" y="837"/>
      <point x="454" y="806"/>
      <point x="454" y="787" type="qcurve" smooth="yes"/>
      <point x="454" y="768"/>
      <point x="436" y="738"/>
      <point x="407" y="717"/>
      <point x="371" y="706"/>
      <point x="353" y="706" type="qcurve" smooth="yes"/>
      <point x="335" y="706"/>
      <point x="299" y="717"/>
      <point x="270" y="738"/>
      <point x="251" y="768"/>
      <point x="251" y="787" type="qcurve" smooth="yes"/>
      <point x="251" y="807"/>
      <point x="270" y="838"/>
      <point x="299" y="859"/>
      <point x="335" y="870"/>
    </contour>
    <contour>
      <point x="315" y="401" type="line"/>
      <point x="656" y="401" type="line"/>
      <point x="656" y="93" type="line" smooth="yes"/>
      <point x="656" y="63"/>
      <point x="626" y="26"/>
      <point x="581" y="6"/>
      <point x="528" y="0"/>
      <point x="504" y="0" type="qcurve" smooth="yes"/>
      <point x="201" y="0" type="line" smooth="yes"/>
      <point x="177" y="0"/>
      <point x="124" y="6"/>
      <point x="79" y="26"/>
      <point x="50" y="63"/>
      <point x="50" y="93" type="qcurve" smooth="yes"/>
      <point x="50" y="587" type="line" smooth="yes"/>
      <point x="50" y="617"/>
      <point x="80" y="654"/>
      <point x="125" y="673"/>
      <point x="178" y="679"/>
      <point x="201" y="679" type="qcurve" smooth="yes"/>
      <point x="504" y="679" type="line" smooth="yes"/>
      <point x="527" y="679"/>
      <point x="581" y="673"/>
      <point x="626" y="654"/>
      <point x="656" y="617"/>
      <point x="656" y="587" type="qcurve" smooth="yes"/>
      <point x="656" y="432" type="line"/>
      <point x="382" y="432" type="line"/>
      <point x="382" y="445" type="line"/>
      <point x="398" y="451"/>
      <point x="429" y="474"/>
      <point x="429" y="494" type="qcurve"/>
      <point x="277" y="494" type="line"/>
      <point x="277" y="185" type="line"/>
      <point x="429" y="185" type="line"/>
      <point x="429" y="278" type="line"/>
      <point x="391" y="278" type="line" smooth="yes"/>
      <point x="371" y="278"/>
      <point x="342" y="257"/>
      <point x="331" y="240" type="qcurve"/>
      <point x="315" y="240" type="line"/>
    </contour>
  </outline>
</glyph>
<glyph name="uni0122" format="2">
  <advance width="705"/>
  <unicode hex="0122"/>
  <outline>
    <contour>
      <point x="315" y="401" type="line"/>
      <point x="656" y="401" type="line"/>
      <point x="656" y="93" type="line" smooth="yes"/>
      <point x="656" y="63"/>
      <point x="626" y="26"/>
      <point x="581" y="6"/>
      <point x="528" y="0"/>
      <point x="504" y="0" type="qcurve" smooth="yes"/>
      <point x="201" y="0" type="line" smooth="yes"/>
      <point x="177" y="0"/>
      <point x="124" y="6"/>
      <point x="79" y="26"/>
      <point x="50" y="63"/>
      <point x="50" y="93" type="qcurve" smooth="yes"/>
      <point x="50" y="587" type="line" smooth="yes"/>
      <point x="50" y="617"/>
      <point x="80" y="654"/>
      <point x="125" y="673"/>
      <point x="178" y="679"/>
      <point x="201" y="679" type="qcurve" smooth="yes"/>
      <point x="504" y="679" type="line" smooth="yes"/>
      <point x="527" y="679"/>
      <point x="581" y="673"/>
      <point x="626" y="654"/>
      <point x="656" y="617"/>
      <point x="656" y="587" type="qcurve" smooth="yes"/>
      <point x="656" y="432" type="line"/>
      <point x="382" y="432" type="line"/>
      <point x="382" y="445" type="line"/>
      <point x="398" y="451"/>
      <point x="429" y="474"/>
      <point x="429" y="494" type="qcurve"/>
      <point x="277" y="494" type="line"/>
      <point x="277" y="185" type="line"/>
      <point x="429" y="185" type="line"/>
      <point x="429" y="278" type="line"/>
      <point x="391" y="278" type="line" smooth="yes"/>
      <point x="371" y="278"/>
      <point x="342" y="257"/>
      <point x="331" y="240" type="qcurve"/>
      <point x="315" y="240" type="line"/>
    </contour>
    <contour>
      <point x="315" y="-203" type="line"/>
      <point x="285" y="-194"/>
      <point x="239" y="-149"/>
      <point x="239" y="-116" type="qcurve" smooth="yes"/>
      <point x="239" y="-94"/>
      <point x="259" y="-59"/>
      <point x="292" y="-35"/>
      <point x="332" y="-23"/>
      <point x="352" y="-23" type="qcurve" smooth="yes"/>
      <point x="371" y="-23"/>
      <point x="412" y="-35"/>
      <point x="445" y="-59"/>
      <point x="466" y="-94"/>
      <point x="466" y="-116" type="qcurve" smooth="yes"/>
      <point x="466" y="-143"/>
      <point x="447" y="-189"/>
      <point x="416" y="-227"/>
      <point x="375" y="-258"/>
      <point x="353" y="-270" type="qcurve"/>
      <point x="315" y="-270" type="line"/>
    </contour>
  </outline>
</glyph>
<glyph name="hcircumflex" format="2">
  <advance width="733"/>
  <unicode hex="0125"/>
  <outline>
    <contour>
      <point x="600" y="716" type="line"/>
      <point x="422" y="716" type="line"/>
      <point x="370" y="796" type="line"/>
      <point x="319" y="716" type="line"/>
      <point x="141" y="716" type="line"/>
      <point x="244" y="884" type="line"/>
      <point x="497" y="884" type="line"/>
    </contour>
    <contour>
      <point x="338" y="666" type="line"/>
      <point x="322" y="660"/>
      <point x="292" y="636"/>
      <point x="292" y="617" type="qcurve" smooth="yes"/>
      <point x="292" y="401" type="line"/>
      <point x="444" y="401" type="line"/>
      <point x="444" y="617" type="line" smooth="yes"/>
      <point x="444" y="637"/>
      <point x="414" y="660"/>
      <point x="398" y="666" type="qcurve"/>
      <point x="398" y="679" type="line"/>
      <point x="717" y="679" type="line"/>
      <point x="717" y="666" type="line"/>
      <point x="701" y="660"/>
      <point x="671" y="637"/>
      <point x="671" y="617" type="qcurve" smooth="yes"/>
      <point x="671" y="61" type="line" smooth="yes"/>
      <point x="671" y="41"/>
      <point x="701" y="19"/>
      <point x="717" y="13" type="qcurve"/>
      <point x="717" y="0" type="line"/>
      <point x="398" y="0" type="line"/>
      <point x="398" y="13" type="line"/>
      <point x="414" y="19"/>
      <point x="444" y="41"/>
      <point x="444" y="61" type="qcurve" smooth="yes"/>
      <point x="444" y="278" type="line"/>
      <point x="292" y="278" type="line"/>
      <point x="292" y="61" type="line" smooth="yes"/>
      <point x="292" y="42"/>
      <point x="323" y="19"/>
      <point x="338" y="13" type="qcurve"/>
      <point x="338" y="0" type="line"/>
      <point x="19" y="0" type="line"/>
      <point x="19" y="13" type="line"/>
      <point x="35" y="19"/>
      <point x="65" y="41"/>
      <point x="65" y="61" type="qcurve" smooth="yes"/>
      <point x="65" y="617" type="line" smooth="yes"/>
      <point x="65" y="637"/>
      <point x="35" y="660"/>
      <point x="19" y="666" type="qcurve"/>
      <point x="19" y="679" type="line"/>
      <point x="338" y="679" type="line"/>
    </contour>
  </outline>
</glyph>
<glyph name="Itilde" format="2">
  <advance width="381"/>
  <unicode hex="0128"/>
  <outline>
    <contour>
      <point x="426" y="833" type="line"/>
      <point x="425" y="831"/>
      <point x="408" y="801"/>
      <point x="392" y="783" type="qcurve" smooth="yes"/>
      <point x="372" y="760"/>
      <point x="350" y="744" type="qcurve" smooth="yes"/>
      <point x="320" y="723"/>
      <point x="285" y="715" type="qcurve" smooth="yes"/>
      <point x="270" y="711"/>
      <point x="253" y="711" type="qcurve" smooth="yes"/>
      <point x="243" y="711"/>
      <point x="225" y="714"/>
      <point x="215" y="716" type="qcurve" smooth="yes"/>
      <point x="179" y="723"/>
      <point x="143" y="750" type="qcurve" smooth="yes"/>
      <point x="132" y="758"/>
      <point x="123" y="760"/>
      <point x="121" y="760" type="qcurve"/>
      <point x="119" y="760"/>
      <point x="118" y="759" type="qcurve"/>
      <point x="102" y="754"/>
      <point x="87" y="736" type="qcurve"/>
      <point x="77" y="726"/>
      <point x="73" y="719" type="qcurve" smooth="yes"/>
      <point x="71" y="717"/>
      <point x="69" y="713"/>
      <point x="68" y="711" type="qcurve"/>
      <point x="-45" y="774" type="line"/>
      <point x="-44" y="776"/>
      <point x="-27" y="804"/>
      <point x="-12" y="822" type="qcurve" smooth="yes"/>
      <point x="-3" y="833"/>
      <point x="17" y="851"/>
      <point x="28" y="859" type="qcurve" smooth="yes"/>
      <point x="61" y="883"/>
      <point x="89" y="887" type="qcurve"/>
      <point x="102" y="891"/>
      <point x="123" y="891" type="qcurve" smooth="yes"/>
      <point x="129" y="891"/>
      <point x="146" y="891"/>
      <point x="170" y="886"/>
      <point x="200" y="872"/>
      <point x="220" y="857" type="qcurve" smooth="yes"/>
      <point x="236" y="844"/>
      <point x="248" y="843"/>
      <point x="250" y="843" type="qcurve"/>
      <point x="256" y="843"/>
      <point x="257" y="844" type="qcurve"/>
      <point x="274" y="847"/>
      <point x="295" y="871" type="qcurve" smooth="yes"/>
      <point x="298" y="875"/>
      <point x="304" y="883"/>
      <point x="307" y="888" type="qcurve" smooth="yes"/>
      <point x="309" y="890"/>
      <point x="311" y="894"/>
      <point x="312" y="896" type="qcurve"/>
      <point x="369" y="863" type="line"/>
    </contour>
    <contour>
      <point x="342" y="679" type="line"/>
      <point x="342" y="666" type="line"/>
      <point x="326" y="660"/>
      <point x="296" y="638"/>
      <point x="296" y="618" type="qcurve" smooth="yes"/>
      <point x="296" y="62" type="line" smooth="yes"/>
      <point x="296" y="42"/>
      <point x="326" y="20"/>
      <point x="342" y="14" type="qcurve"/>
      <point x="342" y="0" type="line"/>
      <point x="22" y="0" type="line"/>
      <point x="22" y="14" type="line"/>
      <point x="38" y="20"/>
      <point x="68" y="42"/>
      <point x="68" y="62" type="qcurve" smooth="yes"/>
      <point x="68" y="618" type="line" smooth="yes"/>
      <point x="68" y="638"/>
      <point x="38" y="660"/>
      <point x="22" y="666" type="qcurve"/>
      <point x="22" y="679" type="line"/>
    </contour>
  </outline>
</glyph>
<glyph name="Ibreve" format="2">
  <advance width="359"/>
  <unicode hex="012C"/>
  <outline>
    <contour>
      <point x="311" y="716" type="line"/>
      <point x="58" y="716" type="line"/>
      <point x="-45" y="884" type="line"/>
      <point x="133" y="884" type="line"/>
      <point x="184" y="804" type="line"/>
      <point x="236" y="884" type="line"/>
      <point x="414" y="884" type="line"/>
    </contour>
    <contour>
      <point x="342" y="679" type="line"/>
      <point x="342" y="666" type="line"/>
      <point x="326" y="660"/>
      <point x="296" y="638"/>
      <point x="296" y="618" type="qcurve" smooth="yes"/>
      <point x="296" y="62" type="line" smooth="yes"/>
      <point x="296" y="42"/>
      <point x="326" y="20"/>
      <point x="342" y="14" type="qcurve"/>
      <point x="342" y="0" type="line"/>
      <point x="22" y="0" type="line"/>
      <point x="22" y="14" type="line"/>
      <point x="38" y="20"/>
      <point x="68" y="42"/>
      <point x="68" y="62" type="qcurve" smooth="yes"/>
      <point x="68" y="618" type="line" smooth="yes"/>
      <point x="68" y="638"/>
      <point x="38" y="660"/>
      <point x="22" y="666" type="qcurve"/>
      <point x="22" y="679" type="line"/>
    </contour>
  </outline>
</glyph>
<glyph name="iogonek" format="2">
  <advance width="359"/>
  <unicode hex="012F"/>
  <outline>
    <contour>
      <point x="342" y="679" type="line"/>
      <point x="342" y="666" type="line"/>
      <point x="326" y="660"/>
      <point x="296" y="638"/>
      <point x="296" y="618" type="qcurve" smooth="yes"/>
      <point x="296" y="62" type="line" smooth="yes"/>
      <point x="296" y="42"/>
      <point x="326" y="20"/>
      <point x="342" y="14" type="qcurve"/>
      <point x="342" y="0" type="line"/>
      <point x="255" y="0" type="line"/>
      <point x="255" y="-125" type="line"/>
      <point x="120" y="-125" type="line"/>
      <point x="120" y="-157" type="line"/>
      <point x="254" y="-157" type="line"/>
      <point x="254" y="-247" type="line"/>
      <point x="88" y="-247" type="line" smooth="yes"/>
      <point x="78" y="-247"/>
      <point x="55" y="-245"/>
      <point x="36" y="-237"/>
      <point x="23" y="-222"/>
      <point x="23" y="-209" type="qcurve" smooth="yes"/>
      <point x="23" y="-82" type="line" smooth="yes"/>
      <point x="23" y="-70"/>
      <point x="37" y="-55"/>
      <point x="57" y="-47"/>
      <point x="79" y="-44"/>
      <point x="87" y="-44" type="qcurve" smooth="yes"/>
      <point x="151" y="-44" type="line"/>
      <point x="151" y="0" type="line"/>
      <point x="22" y="0" type="line"/>
      <point x="22" y="14" type="line"/>
      <point x="38" y="20"/>
      <point x="68" y="42"/>
      <point x="68" y="62" type="qcurve" smooth="yes"/>
      <point x="68" y="618" type="line" smooth="yes"/>
      <point x="68" y="638"/>
      <point x="38" y="660"/>
      <point x="22" y="666" type="qcurve"/>
      <point x="22" y="679" type="line"/>
    </contour>
  </outline>
</glyph>
<glyph name="Idotaccent" format="2">
  <advance width="359"/>
  <unicode hex="0130"/>
  <outline>
    <contour>
      <point x="180" y="870" type="qcurve" smooth="yes"/>
      <point x="198" y="870"/>
      <point x="234" y="858"/>
      <point x="263" y="837"/>
      <point x="281" y="806"/>
      <point x="281" y="787" type="qcurve" smooth="yes"/>
      <point x="281" y="768"/>
      <point x="263" y="738"/>
      <point x="234" y="717"/>
      <point x="198" y="706"/>
      <point x="180" y="706" type="qcurve" smooth="yes"/>
      <point x="162" y="706"/>
      <point x="126" y="717"/>
      <point x="97" y="738"/>
      <point x="78" y="768"/>
      <point x="78" y="787" type="qcurve" smooth="yes"/>
      <point x="78" y="807"/>
      <point x="97" y="838"/>
      <point x="126" y="859"/>
      <point x="162" y="870"/>
    </contour>
    <contour>
      <point x="342" y="679" type="line"/>
      <point x="342" y="666" type="line"/>
      <point x="326" y="660"/>
      <point x="296" y="638"/>
      <point x="296" y="618" type="qcurve" smooth="yes"/>
      <point x="296" y="62" type="line" smooth="yes"/>
      <point x="296" y="42"/>
      <point x="326" y="20"/>
      <point x="342" y="14" type="qcurve"/>
      <point x="342" y="0" type="line"/>
      <point x="22" y="0" type="line"/>
      <point x="22" y="14" type="line"/>
      <point x="38" y="20"/>
      <point x="68" y="42"/>
      <point x="68" y="62" type="qcurve" smooth="yes"/>
      <point x="68" y="618" type="line" smooth="yes"/>
      <point x="68" y="638"/>
      <point x="38" y="660"/>
      <point x="22" y="666" type="qcurve"/>
      <point x="22" y="679" type="line"/>
    </contour>
  </outline>
</glyph>
<glyph name="IJ" format="2">
  <advance width="978"/>
  <unicode hex="0132"/>
  <outline>
    <contour>
      <point x="342" y="679" type="line"/>
      <point x="342" y="666" type="line"/>
      <point x="326" y="660"/>
      <point x="296" y="638"/>
      <point x="296" y="618" type="qcurve" smooth="yes"/>
      <point x="296" y="62" type="line" smooth="yes"/>
      <point x="296" y="42"/>
      <point x="326" y="20"/>
      <point x="342" y="14" type="qcurve"/>
      <point x="342" y="0" type="line"/>
      <point x="22" y="0" type="line"/>
      <point x="22" y="14" type="line"/>
      <point x="38" y="20"/>
      <point x="68" y="42"/>
      <point x="68" y="62" type="qcurve" smooth="yes"/>
      <point x="68" y="618" type="line" smooth="yes"/>
      <point x="68" y="638"/>
      <point x="38" y="660"/>
      <point x="22" y="666" type="qcurve"/>
      <point x="22" y="679" type="line"/>
    </contour>
    <contour>
      <point x="447" y="493" type="line" smooth="yes"/>
      <point x="427" y="493"/>
      <point x="397" y="473"/>
      <point x="387" y="456" type="qcurve"/>
      <point x="371" y="456" type="line"/>
      <point x="371" y="678" type="line"/>
      <point x="944" y="678" type="line"/>
      <point x="944" y="92" type="line" smooth="yes"/>
      <point x="944" y="62"/>
      <point x="915" y="25"/>
      <point x="870" y="6"/>
      <point x="817" y="0"/>
      <point x="793" y="0" type="qcurve" smooth="yes"/>
      <point x="522" y="0" type="line" smooth="yes"/>
      <point x="498" y="0"/>
      <point x="445" y="6"/>
      <point x="400" y="25"/>
      <point x="371" y="61"/>
      <point x="371" y="92" type="qcurve" smooth="yes"/>
      <point x="371" y="246" type="line"/>
      <point x="644" y="246" type="line"/>
      <point x="644" y="233" type="line"/>
      <point x="628" y="227"/>
      <point x="598" y="205"/>
      <point x="598" y="185" type="qcurve"/>
      <point x="717" y="185" type="line"/>
      <point x="717" y="493" type="line"/>
    </contour>
  </outline>
</glyph>
<glyph name="Jcircumflex" format="2">
  <advance width="683"/>
  <unicode hex="0134"/>
  <outline>
    <contour>
      <point x="557" y="716" type="line"/>
      <point x="379" y="716" type="line"/>
      <point x="327" y="796" type="line"/>
      <point x="276" y="716" type="line"/>
      <point x="98" y="716" type="line"/>
      <point x="201" y="884" type="line"/>
      <point x="454" y="884" type="line"/>
    </contour>
    <contour>
      <point x="124" y="493" type="line" smooth="yes"/>
      <point x="104" y="493"/>
      <point x="74" y="473"/>
      <point x="64" y="456" type="qcurve"/>
      <point x="48" y="456" type="line"/>
      <point x="48" y="678" type="line"/>
      <point x="621" y="678" type="line"/>
      <point x="621" y="92" type="line" smooth="yes"/>
      <point x="621" y="62"/>
      <point x="592" y="25"/>
      <point x="547" y="6"/>
      <point x="494" y="0"/>
      <point x="470" y="0" type="qcurve" smooth="yes"/>
      <point x="199" y="0" type="line" smooth="yes"/>
      <point x="175" y="0"/>
      <point x="122" y="6"/>
      <point x="77" y="25"/>
      <point x="48" y="61"/>
      <point x="48" y="92" type="qcurve" smooth="yes"/>
      <point x="48" y="246" type="line"/>
      <point x="321" y="246" type="line"/>
      <point x="321" y="233" type="line"/>
      <point x="305" y="227"/>
      <point x="275" y="205"/>
      <point x="275" y="185" type="qcurve"/>
      <point x="394" y="185" type="line"/>
      <point x="394" y="493" type="line"/>
    </contour>
  </outline>
</glyph>
<glyph name="uni013C" format="2">
  <advance width="574"/>
  <unicode hex="013C"/>
  <outline>
    <contour>
      <point x="540" y="222" type="line"/>
      <point x="540" y="0" type="line"/>
      <point x="17" y="0" type="line"/>
      <point x="17" y="13" type="line"/>
      <point x="32" y="19"/>
      <point x="63" y="42"/>
      <point x="63" y="61" type="qcurve" smooth="yes"/>
      <point x="63" y="617" type="line" smooth="yes"/>
      <point x="63" y="636"/>
      <point x="33" y="660"/>
      <point x="17" y="666" type="qcurve"/>
      <point x="17" y="679" type="line"/>
      <point x="336" y="679" type="line"/>
      <point x="336" y="666" type="line"/>
      <point x="320" y="660"/>
      <point x="290" y="637"/>
      <point x="290" y="617" type="qcurve" smooth="yes"/>
      <point x="290" y="185" type="line"/>
      <point x="464" y="185" type="line" smooth="yes"/>
      <point x="484" y="185"/>
      <point x="513" y="205"/>
      <point x="524" y="222" type="qcurve"/>
    </contour>
    <contour>
      <point x="230" y="-203" type="line"/>
      <point x="200" y="-194"/>
      <point x="154" y="-149"/>
      <point x="154" y="-116" type="qcurve" smooth="yes"/>
      <point x="154" y="-94"/>
      <point x="174" y="-59"/>
      <point x="207" y="-35"/>
      <point x="247" y="-23"/>
      <point x="267" y="-23" type="qcurve" smooth="yes"/>
      <point x="286" y="-23"/>
      <point x="327" y="-35"/>
      <point x="360" y="-59"/>
      <point x="381" y="-94"/>
      <point x="381" y="-116" type="qcurve" smooth="yes"/>
      <point x="381" y="-143"/>
      <point x="362" y="-189"/>
      <point x="331" y="-227"/>
      <point x="290" y="-258"/>
      <point x="268" y="-270" type="qcurve"/>
      <point x="230" y="-270" type="line"/>
    </contour>
  </outline>
</glyph>
<glyph name="Lcaron" format="2">
  <advance width="574"/>
  <unicode hex="013D"/>
  <outline>
    <contour>
      <point x="540" y="222" type="line"/>
      <point x="540" y="0" type="line"/>
      <point x="17" y="0" type="line"/>
      <point x="17" y="13" type="line"/>
      <point x="32" y="19"/>
      <point x="63" y="42"/>
      <point x="63" y="61" type="qcurve" smooth="yes"/>
      <point x="63" y="617" type="line" smooth="yes"/>
      <point x="63" y="636"/>
      <point x="33" y="660"/>
      <point x="17" y="666" type="qcurve"/>
      <point x="17" y="679" type="line"/>
      <point x="336" y="679" type="line"/>
      <point x="336" y="666" type="line"/>
      <point x="320" y="660"/>
      <point x="290" y="637"/>
      <point x="290" y="617" type="qcurve" smooth="yes"/>
      <point x="290" y="185" type="line"/>
      <point x="464" y="185" type="line" smooth="yes"/>
      <point x="484" y="185"/>
      <point x="513" y="205"/>
      <point x="524" y="222" type="qcurve"/>
    </contour>
    <contour>
      <point x="435" y="470" type="line"/>
      <point x="405" y="479"/>
      <point x="359" y="524"/>
      <point x="359" y="557" type="qcurve" smooth="yes"/>
      <point x="359" y="579"/>
      <point x="379" y="614"/>
      <point x="412" y="638"/>
      <point x="452" y="650"/>
      <point x="472" y="650" type="qcurve" smooth="yes"/>
      <point x="491" y="650"/>
      <point x="532" y="638"/>
      <point x="565" y="614"/>
      <point x="586" y="579"/>
      <point x="586" y="557" type="qcurve" smooth="yes"/>
      <point x="586" y="530"/>
      <point x="567" y="484"/>
      <point x="536" y="446"/>
      <point x="495" y="415"/>
      <point x="473" y="403" type="qcurve"/>
      <point x="435" y="403" type="line"/>
    </contour>
  </outline>
</glyph>
<glyph name="lcaron" format="2">
  <advance width="578"/>
  <unicode hex="013E"/>
  <outline>
    <contour>
      <point x="540" y="222" type="line"/>
      <point x="540" y="0" type="line"/>
      <point x="17" y="0" type="line"/>
      <point x="17" y="13" type="line"/>
      <point x="32" y="19"/>
      <point x="63" y="42"/>
      <point x="63" y="61" type="qcurve" smooth="yes"/>
      <point x="63" y="617" type="line" smooth="yes"/>
      <point x="63" y="636"/>
      <point x="33" y="660"/>
      <point x="17" y="666" type="qcurve"/>
      <point x="17" y="679" type="line"/>
      <point x="336" y="679" type="line"/>
      <point x="336" y="666" type="line"/>
      <point x="320" y="660"/>
      <point x="290" y="637"/>
      <point x="290" y="617" type="qcurve" smooth="yes"/>
      <point x="290" y="185" type="line"/>
      <point x="464" y="185" type="line" smooth="yes"/>
      <point x="484" y="185"/>
      <point x="513" y="205"/>
      <point x="524" y="222" type="qcurve"/>
    </contour>
    <contour>
      <point x="414" y="470" type="line"/>
      <point x="384" y="479"/>
      <point x="338" y="524"/>
      <point x="338" y="557" type="qcurve" smooth="yes"/>
      <point x="338" y="579"/>
      <point x="358" y="614"/>
      <point x="391" y="638"/>
      <point x="431" y="650"/>
      <point x="451" y="650" type="qcurve" smooth="yes"/>
      <point x="470" y="650"/>
      <point x="511" y="638"/>
      <point x="544" y="614"/>
      <point x="565" y="579"/>
      <point x="565" y="557" type="qcurve" smooth="yes"/>
      <point x="565" y="530"/>
      <point x="546" y="484"/>
      <point x="515" y="446"/>
      <point x="474" y="415"/>
      <point x="452" y="403" type="qcurve"/>
      <point x="414" y="403" type="line"/>
    </contour>
  </outline>
</glyph>
<glyph name="ldot" format="2">
  <advance width="574"/>
  <unicode hex="0140"/>
  <outline>
    <contour>
      <point x="540" y="222" type="line"/>
      <point x="540" y="0" type="line"/>
      <point x="17" y="0" type="line"/>
      <point x="17" y="13" type="line"/>
      <point x="32" y="19"/>
      <point x="63" y="42"/>
      <point x="63" y="61" type="qcurve" smooth="yes"/>
      <point x="63" y="617" type="line" smooth="yes"/>
      <point x="63" y="636"/>
      <point x="33" y="660"/>
      <point x="17" y="666" type="qcurve"/>
      <point x="17" y="679" type="line"/>
      <point x="336" y="679" type="line"/>
      <point x="336" y="666" type="line"/>
      <point x="320" y="660"/>
      <point x="290" y="637"/>
      <point x="290" y="617" type="qcurve" smooth="yes"/>
      <point x="290" y="185" type="line"/>
      <point x="464" y="185" type="line" smooth="yes"/>
      <point x="484" y="185"/>
      <point x="513" y="205"/>
      <point x="524" y="222" type="qcurve"/>
    </contour>
    <contour>
      <point x="433" y="548" type="qcurve" smooth="yes"/>
      <point x="452" y="548"/>
      <point x="493" y="535"/>
      <point x="525" y="511"/>
      <point x="546" y="477"/>
      <point x="546" y="455" type="qcurve" smooth="yes"/>
      <point x="546" y="433"/>
      <point x="525" y="399"/>
      <point x="493" y="375"/>
      <point x="452" y="363"/>
      <point x="433" y="363" type="qcurve" smooth="yes"/>
      <point x="413" y="363"/>
      <point x="373" y="375"/>
      <point x="340" y="399"/>
      <point x="319" y="433"/>
      <point x="319" y="455" type="qcurve" smooth="yes"/>
      <point x="319" y="477"/>
      <point x="340" y="512"/>
      <point x="373" y="536"/>
      <point x="413" y="548"/>
    </contour>
  </outline>
</glyph>
<glyph name="uni0145" format="2">
  <advance width="727"/>
  <unicode hex="0145"/>
  <outline>
    <contour>
      <point x="17" y="13" type="line"/>
      <point x="34" y="19"/>
      <point x="63" y="42"/>
      <point x="63" y="62" type="qcurve" smooth="yes"/>
      <point x="63" y="617" type="line" smooth="yes"/>
      <point x="63" y="637"/>
      <point x="34" y="660"/>
      <point x="17" y="666" type="qcurve"/>
      <point x="17" y="679" type="line"/>
      <point x="336" y="679" type="line"/>
      <point x="336" y="666" type="line"/>
      <point x="320" y="660"/>
      <point x="290" y="637"/>
      <point x="290" y="617" type="qcurve" smooth="yes"/>
      <point x="290" y="494" type="line"/>
      <point x="442" y="344" type="line"/>
      <point x="442" y="617" type="line" smooth="yes"/>
      <point x="442" y="637"/>
      <point x="413" y="660"/>
      <point x="396" y="666" type="qcurve"/>
      <point x="396" y="679" type="line"/>
      <point x="715" y="679" type="line"/>
      <point x="715" y="666" type="line"/>
      <point x="698" y="660"/>
      <point x="669" y="637"/>
      <point x="669" y="617" type="qcurve" smooth="yes"/>
      <point x="669" y="62" type="line" smooth="yes"/>
      <point x="669" y="42"/>
      <point x="698" y="19"/>
      <point x="715" y="13" type="qcurve"/>
      <point x="715" y="0" type="line"/>
      <point x="396" y="0" type="line"/>
      <point x="396" y="13" type="line"/>
      <point x="413" y="19"/>
      <point x="442" y="42"/>
      <point x="442" y="62" type="qcurve" smooth="yes"/>
      <point x="442" y="150" type="line"/>
      <point x="290" y="300" type="line"/>
      <point x="290" y="62" type="line" smooth="yes"/>
      <point x="290" y="42"/>
      <point x="320" y="19"/>
      <point x="336" y="13" type="qcurve"/>
      <point x="336" y="0" type="line"/>
      <point x="17" y="0" type="line"/>
    </contour>
    <contour>
      <point x="327" y="-203" type="line"/>
      <point x="297" y="-194"/>
      <point x="251" y="-149"/>
      <point x="251" y="-116" type="qcurve" smooth="yes"/>
      <point x="251" y="-94"/>
      <point x="271" y="-59"/>
      <point x="304" y="-35"/>
      <point x="344" y="-23"/>
      <point x="364" y="-23" type="qcurve" smooth="yes"/>
      <point x="383" y="-23"/>
      <point x="424" y="-35"/>
      <point x="457" y="-59"/>
      <point x="478" y="-94"/>
      <point x="478" y="-116" type="qcurve" smooth="yes"/>
      <point x="478" y="-143"/>
      <point x="459" y="-189"/>
      <point x="428" y="-227"/>
      <point x="387" y="-258"/>
      <point x="365" y="-270" type="qcurve"/>
      <point x="327" y="-270" type="line"/>
    </contour>
  </outline>
</glyph>
<glyph name="napostrophe" format="2">
  <advance width="960"/>
  <unicode hex="0149"/>
  <outline>
    <contour>
      <point x="241" y="13" type="line"/>
      <point x="258" y="19"/>
      <point x="287" y="42"/>
      <point x="287" y="62" type="qcurve" smooth="yes"/>
      <point x="287" y="617" type="line" smooth="yes"/>
      <point x="287" y="637"/>
      <point x="258" y="660"/>
      <point x="241" y="666" type="qcurve"/>
      <point x="241" y="679" type="line"/>
      <point x="560" y="679" type="line"/>
      <point x="560" y="666" type="line"/>
      <point x="544" y="660"/>
      <point x="514" y="637"/>
      <point x="514" y="617" type="qcurve" smooth="yes"/>
      <point x="514" y="494" type="line"/>
      <point x="666" y="344" type="line"/>
      <point x="666" y="617" type="line" smooth="yes"/>
      <point x="666" y="637"/>
      <point x="637" y="660"/>
      <point x="620" y="666" type="qcurve"/>
      <point x="620" y="679" type="line"/>
      <point x="939" y="679" type="line"/>
      <point x="939" y="666" type="line"/>
      <point x="922" y="660"/>
      <point x="893" y="637"/>
      <point x="893" y="617" type="qcurve" smooth="yes"/>
      <point x="893" y="62" type="line" smooth="yes"/>
      <point x="893" y="42"/>
      <point x="922" y="19"/>
      <point x="939" y="13" type="qcurve"/>
      <point x="939" y="0" type="line"/>
      <point x="620" y="0" type="line"/>
      <point x="620" y="13" type="line"/>
      <point x="637" y="19"/>
      <point x="666" y="42"/>
      <point x="666" y="62" type="qcurve" smooth="yes"/>
      <point x="666" y="150" type="line"/>
      <point x="514" y="300" type="line"/>
      <point x="514" y="62" type="line" smooth="yes"/>
      <point x="514" y="42"/>
      <point x="544" y="19"/>
      <point x="560" y="13" type="qcurve"/>
      <point x="560" y="0" type="line"/>
      <point x="241" y="0" type="line"/>
    </contour>
    <contour>
      <point x="100" y="498" type="line"/>
      <point x="70" y="507"/>
      <point x="24" y="552"/>
      <point x="24" y="585" type="qcurve" smooth="yes"/>
      <point x="24" y="607"/>
      <point x="44" y="642"/>
      <point x="77" y="666"/>
      <point x="117" y="678"/>
      <point x="137" y="678" type="qcurve" smooth="yes"/>
      <point x="156" y="678"/>
      <point x="197" y="666"/>
      <point x="230" y="642"/>
      <point x="251" y="607"/>
      <point x="251" y="585" type="qcurve" smooth="yes"/>
      <point x="251" y="558"/>
      <point x="232" y="512"/>
      <point x="201" y="474"/>
      <point x="160" y="443"/>
      <point x="138" y="431" type="qcurve"/>
      <point x="100" y="431" type="line"/>
    </contour>
  </outline>
</glyph>
<glyph name="eng" format="2">
  <advance width="739"/>
  <unicode hex="014B"/>
  <outline>
    <contour>
      <point x="732" y="679" type="line"/>
      <point x="732" y="666" type="line"/>
      <point x="715" y="660"/>
      <point x="686" y="637"/>
      <point x="686" y="617" type="qcurve" smooth="yes"/>
      <point x="686" y="-17" type="line" smooth="yes"/>
      <point x="686" y="-40"/>
      <point x="664" y="-78"/>
      <point x="627" y="-111"/>
      <point x="580" y="-138"/>
      <point x="556" y="-148" type="qcurve" smooth="yes"/>
      <point x="527" y="-161"/>
      <point x="463" y="-181"/>
      <point x="427" y="-189" type="qcurve"/>
      <point x="378" y="-46" type="line"/>
      <point x="406" y="-39"/>
      <point x="438" y="-17"/>
      <point x="455" y="5"/>
      <point x="459" y="25"/>
      <point x="459" y="30" type="qcurve" smooth="yes"/>
      <point x="459" y="150" type="line"/>
      <point x="307" y="300" type="line"/>
      <point x="307" y="62" type="line" smooth="yes"/>
      <point x="307" y="42"/>
      <point x="337" y="19"/>
      <point x="353" y="13" type="qcurve"/>
      <point x="353" y="0" type="line"/>
      <point x="34" y="0" type="line"/>
      <point x="34" y="13" type="line"/>
      <point x="51" y="19"/>
      <point x="80" y="42"/>
      <point x="80" y="62" type="qcurve" smooth="yes"/>
      <point x="80" y="617" type="line" smooth="yes"/>
      <point x="80" y="637"/>
      <point x="51" y="660"/>
      <point x="34" y="666" type="qcurve"/>
      <point x="34" y="679" type="line"/>
      <point x="353" y="679" type="line"/>
      <point x="353" y="666" type="line"/>
      <point x="337" y="660"/>
      <point x="307" y="637"/>
      <point x="307" y="617" type="qcurve" smooth="yes"/>
      <point x="307" y="494" type="line"/>
      <point x="459" y="344" type="line"/>
      <point x="459" y="617" type="line" smooth="yes"/>
      <point x="459" y="637"/>
      <point x="430" y="660"/>
      <point x="413" y="666" type="qcurve"/>
      <point x="413" y="679" type="line"/>
    </contour>
  </outline>
</glyph>
<glyph name="obreve" format="2">
  <advance width="700"/>
  <unicode hex="014F"/>
  <outline>
    <contour>
      <point x="535" y="884" type="line"/>
      <point x="530" y="846"/>
      <point x="496" y="780"/>
      <point x="444" y="732"/>
      <point x="378" y="704"/>
      <point x="341" y="704" type="qcurve" smooth="yes"/>
      <point x="303" y="704"/>
      <point x="237" y="732"/>
      <point x="186" y="780"/>
      <point x="152" y="846"/>
      <point x="147" y="884" type="qcurve"/>
      <point x="255" y="884" type="line"/>
      <point x="263" y="855"/>
      <point x="310" y="817"/>
      <point x="341" y="817" type="qcurve" smooth="yes"/>
      <point x="372" y="817"/>
      <point x="418" y="855"/>
      <point x="427" y="884" type="qcurve"/>
    </contour>
    <contour>
      <point x="654" y="92" type="line" smooth="yes"/>
      <point x="654" y="62"/>
      <point x="624" y="25"/>
      <point x="579" y="6"/>
      <point x="526" y="0"/>
      <point x="502" y="0" type="qcurve" smooth="yes"/>
      <point x="199" y="0" type="line" smooth="yes"/>
      <point x="175" y="0"/>
      <point x="122" y="6"/>
      <point x="77" y="25"/>
      <point x="48" y="62"/>
      <point x="48" y="92" type="qcurve" smooth="yes"/>
      <point x="48" y="586" type="line" smooth="yes"/>
      <point x="48" y="616"/>
      <point x="77" y="653"/>
      <point x="122" y="672"/>
      <point x="175" y="678"/>
      <point x="199" y="678" type="qcurve" smooth="yes"/>
      <point x="502" y="678" type="line" smooth="yes"/>
      <point x="526" y="678"/>
      <point x="579" y="672"/>
      <point x="624" y="653"/>
      <point x="654" y="616"/>
      <point x="654" y="586" type="qcurve" smooth="yes"/>
    </contour>
    <contour>
      <point x="426" y="185" type="line"/>
      <point x="426" y="493" type="line"/>
      <point x="275" y="493" type="line"/>
      <point x="275" y="185" type="line"/>
    </contour>
  </outline>
</glyph>
<glyph name="uni0157" format="2">
  <advance width="685"/>
  <unicode hex="0157"/>
  <outline>
    <contour>
      <point x="15" y="678" type="line"/>
      <point x="493" y="678" type="line" smooth="yes"/>
      <point x="520" y="678"/>
      <point x="573" y="666"/>
      <point x="617" y="640"/>
      <point x="644" y="597"/>
      <point x="644" y="566" type="qcurve" smooth="yes"/>
      <point x="644" y="455" type="line" smooth="yes"/>
      <point x="644" y="429"/>
      <point x="624" y="386"/>
      <point x="589" y="356"/>
      <point x="544" y="339"/>
      <point x="519" y="339" type="qcurve"/>
      <point x="544" y="339"/>
      <point x="590" y="321"/>
      <point x="624" y="289"/>
      <point x="644" y="245"/>
      <point x="644" y="219" type="qcurve" smooth="yes"/>
      <point x="644" y="61" type="line" smooth="yes"/>
      <point x="644" y="41"/>
      <point x="675" y="18"/>
      <point x="691" y="13" type="qcurve"/>
      <point x="691" y="0" type="line"/>
      <point x="371" y="0" type="line"/>
      <point x="371" y="13" type="line"/>
      <point x="387" y="19"/>
      <point x="417" y="41"/>
      <point x="417" y="61" type="qcurve" smooth="yes"/>
      <point x="417" y="277" type="line"/>
      <point x="288" y="277" type="line"/>
      <point x="288" y="61" type="line" smooth="yes"/>
      <point x="288" y="41"/>
      <point x="318" y="19"/>
      <point x="334" y="13" type="qcurve"/>
      <point x="334" y="0" type="line"/>
      <point x="15" y="0" type="line"/>
      <point x="15" y="13" type="line"/>
      <point x="31" y="19"/>
      <point x="61" y="42"/>
      <point x="61" y="61" type="qcurve" smooth="yes"/>
      <point x="61" y="617" type="line" smooth="yes"/>
      <point x="61" y="636"/>
      <point x="30" y="659"/>
      <point x="15" y="665" type="qcurve"/>
    </contour>
    <contour>
      <point x="417" y="401" type="line"/>
      <point x="417" y="493" type="line"/>
      <point x="288" y="493" type="line"/>
      <point x="288" y="401" type="line"/>
    </contour>
    <contour>
      <point x="315" y="-203" type="line"/>
      <point x="285" y="-194"/>
      <point x="239" y="-149"/>
      <point x="239" y="-116" type="qcurve" smooth="yes"/>
      <point x="239" y="-94"/>
      <point x="259" y="-59"/>
      <point x="292" y="-35"/>
      <point x="332" y="-23"/>
      <point x="352" y="-23" type="qcurve" smooth="yes"/>
      <point x="371" y="-23"/>
      <point x="412" y="-35"/>
      <point x="445" y="-59"/>
      <point x="466" y="-94"/>
      <point x="466" y="-116" type="qcurve" smooth="yes"/>
      <point x="466" y="-143"/>
      <point x="447" y="-189"/>
      <point x="416" y="-227"/>
      <point x="375" y="-258"/>
      <point x="353" y="-270" type="qcurve"/>
      <point x="315" y="-270" type="line"/>
    </contour>
  </outline>
</glyph>
<glyph name="scaron" format="2">
  <advance width="673"/>
  <unicode hex="0161"/>
  <outline>
    <contour>
      <point x="463" y="716" type="line"/>
      <point x="210" y="716" type="line"/>
      <point x="107" y="884" type="line"/>
      <point x="285" y="884" type="line"/>
      <point x="336" y="804" type="line"/>
      <point x="388" y="884" type="line"/>
      <point x="566" y="884" type="line"/>
    </contour>
    <contour>
      <point x="622" y="92" type="line" smooth="yes"/>
      <point x="622" y="62"/>
      <point x="593" y="25"/>
      <point x="548" y="6"/>
      <point x="495" y="0"/>
      <point x="471" y="0" type="qcurve" smooth="yes"/>
      <point x="197" y="0" type="line" smooth="yes"/>
      <point x="173" y="0"/>
      <point x="120" y="6"/>
      <point x="75" y="25"/>
      <point x="46" y="62"/>
      <point x="46" y="92" type="qcurve" smooth="yes"/>
      <point x="46" y="246" type="line"/>
      <point x="319" y="246" type="line"/>
      <point x="319" y="233" type="line"/>
      <point x="303" y="228"/>
      <point x="273" y="205"/>
      <point x="273" y="185" type="qcurve"/>
      <point x="395" y="185" type="line"/>
      <point x="395" y="277" type="line"/>
      <point x="273" y="277" type="line" smooth="yes"/>
      <point x="246" y="277"/>
      <point x="203" y="276"/>
      <point x="198" y="276" type="qcurve" smooth="yes"/>
      <point x="175" y="276"/>
      <point x="121" y="282"/>
      <point x="76" y="302"/>
      <point x="46" y="339"/>
      <point x="46" y="370" type="qcurve" smooth="yes"/>
      <point x="46" y="586" type="line" smooth="yes"/>
      <point x="46" y="616"/>
      <point x="75" y="653"/>
      <point x="120" y="672"/>
      <point x="173" y="678"/>
      <point x="197" y="678" type="qcurve" smooth="yes"/>
      <point x="471" y="678" type="line" smooth="yes"/>
      <point x="495" y="678"/>
      <point x="548" y="672"/>
      <point x="593" y="653"/>
      <point x="622" y="616"/>
      <point x="622" y="586" type="qcurve" smooth="yes"/>
      <point x="622" y="431" type="line"/>
      <point x="349" y="431" type="line"/>
      <point x="349" y="445" type="line"/>
      <point x="365" y="451"/>
      <point x="395" y="474"/>
      <point x="395" y="493" type="qcurve"/>
      <point x="273" y="493" type="line"/>
      <point x="273" y="401" type="line"/>
      <point x="395" y="401" type="line" smooth="yes"/>
      <point x="422" y="401"/>
      <point x="465" y="402"/>
      <point x="470" y="402" type="qcurve" smooth="yes"/>
      <point x="494" y="402"/>
      <point x="547" y="396"/>
      <point x="592" y="376"/>
      <point x="622" y="339"/>
      <point x="622" y="308" type="qcurve" smooth="yes"/>
    </contour>
  </outline>
</glyph>
<glyph name="uni0162" format="2">
  <advance width="565"/>
  <unicode hex="0162"/>
  <outline>
    <contour>
      <point x="19" y="679" type="line"/>
      <point x="544" y="679" type="line"/>
      <point x="544" y="456" type="line"/>
      <point x="528" y="456" type="line"/>
      <point x="518" y="473"/>
      <point x="489" y="494"/>
      <point x="469" y="494" type="qcurve" smooth="yes"/>
      <point x="396" y="494" type="line"/>
      <point x="396" y="62" type="line" smooth="yes"/>
      <point x="396" y="42"/>
      <point x="425" y="19"/>
      <point x="442" y="13" type="qcurve"/>
      <point x="442" y="0" type="line"/>
      <point x="371" y="0" type="line"/>
      <point x="371" y="-125" type="line"/>
      <point x="236" y="-125" type="line"/>
      <point x="236" y="-157" type="line"/>
      <point x="370" y="-157" type="line"/>
      <point x="370" y="-247" type="line"/>
      <point x="204" y="-247" type="line" smooth="yes"/>
      <point x="194" y="-247"/>
      <point x="171" y="-245"/>
      <point x="152" y="-237"/>
      <point x="139" y="-222"/>
      <point x="139" y="-209" type="qcurve" smooth="yes"/>
      <point x="139" y="-82" type="line" smooth="yes"/>
      <point x="139" y="-70"/>
      <point x="153" y="-55"/>
      <point x="173" y="-47"/>
      <point x="195" y="-44"/>
      <point x="203" y="-44" type="qcurve" smooth="yes"/>
      <point x="267" y="-44" type="line"/>
      <point x="267" y="0" type="line"/>
      <point x="123" y="0" type="line"/>
      <point x="123" y="13" type="line"/>
      <point x="139" y="19"/>
      <point x="169" y="42"/>
      <point x="169" y="62" type="qcurve" smooth="yes"/>
      <point x="169" y="494" type="line"/>
      <point x="95" y="494" type="line" smooth="yes"/>
      <point x="75" y="494"/>
      <point x="46" y="473"/>
      <point x="36" y="456" type="qcurve"/>
      <point x="19" y="456" type="line"/>
    </contour>
  </outline>
</glyph>
<glyph name="uni0163" format="2">
  <advance width="565"/>
  <unicode hex="0163"/>
  <outline>
    <contour>
      <point x="19" y="679" type="line"/>
      <point x="544" y="679" type="line"/>
      <point x="544" y="456" type="line"/>
      <point x="528" y="456" type="line"/>
      <point x="518" y="473"/>
      <point x="489" y="494"/>
      <point x="469" y="494" type="qcurve" smooth="yes"/>
      <point x="396" y="494" type="line"/>
      <point x="396" y="62" type="line" smooth="yes"/>
      <point x="396" y="42"/>
      <point x="425" y="19"/>
      <point x="442" y="13" type="qcurve"/>
      <point x="442" y="0" type="line"/>
      <point x="123" y="0" type="line"/>
      <point x="123" y="13" type="line"/>
      <point x="139" y="19"/>
      <point x="169" y="42"/>
      <point x="169" y="62" type="qcurve" smooth="yes"/>
      <point x="169" y="494" type="line"/>
      <point x="95" y="494" type="line" smooth="yes"/>
      <point x="75" y="494"/>
      <point x="46" y="473"/>
      <point x="36" y="456" type="qcurve"/>
      <point x="19" y="456" type="line"/>
    </contour>
    <contour>
      <point x="249" y="-203" type="line"/>
      <point x="219" y="-194"/>
      <point x="173" y="-149"/>
      <point x="173" y="-116" type="qcurve" smooth="yes"/>
      <point x="173" y="-94"/>
      <point x="193" y="-59"/>
      <point x="226" y="-35"/>
      <point x="266" y="-23"/>
      <point x="286" y="-23" type="qcurve" smooth="yes"/>
      <point x="305" y="-23"/>
      <point x="346" y="-35"/>
      <point x="379" y="-59"/>
      <point x="400" y="-94"/>
      <point x="400" y="-116" type="qcurve" smooth="yes"/>
      <point x="400" y="-143"/>
      <point x="381" y="-189"/>
      <point x="350" y="-227"/>
      <point x="309" y="-258"/>
      <point x="287" y="-270" type="qcurve"/>
      <point x="249" y="-270" type="line"/>
    </contour>
  </outline>
</glyph>
<glyph name="Tbar" format="2">
  <advance width="565"/>
  <unicode hex="0166"/>
  <outline>
    <contour>
      <point x="19" y="679" type="line"/>
      <point x="544" y="679" type="line"/>
      <point x="544" y="456" type="line"/>
      <point x="528" y="456" type="line"/>
      <point x="518" y="473"/>
      <point x="489" y="494"/>
      <point x="469" y="494" type="qcurve" smooth="yes"/>
      <point x="396" y="494" type="line"/>
      <point x="396" y="358" type="line"/>
      <point x="545" y="358" type="line"/>
      <point x="545" y="190" type="line"/>
      <point x="396" y="190" type="line"/>
      <point x="396" y="62" type="line" smooth="yes"/>
      <point x="396" y="42"/>
      <point x="425" y="19"/>
      <point x="442" y="13" type="qcurve"/>
      <point x="442" y="0" type="line"/>
      <point x="123" y="0" type="line"/>
      <point x="123" y="13" type="line"/>
      <point x="139" y="19"/>
      <point x="169" y="42"/>
      <point x="169" y="62" type="qcurve" smooth="yes"/>
      <point x="169" y="190" type="line"/>
      <point x="27" y="190" type="line"/>
      <point x="27" y="358" type="line"/>
      <point x="169" y="358" type="line"/>
      <point x="169" y="494" type="line"/>
      <point x="95" y="494" type="line" smooth="yes"/>
      <point x="75" y="494"/>
      <point x="46" y="473"/>
      <point x="36" y="456" type="qcurve"/>
      <point x="19" y="456" type="line"/>
    </contour>
  </outline>
</glyph>
<glyph name="utilde" format="2">
  <advance width="704"/>
  <unicode hex="0169"/>
  <outline>
    <contour>
      <point x="583" y="829" type="line"/>
      <point x="582" y="827"/>
      <point x="565" y="797"/>
      <point x="549" y="779" type="qcurve" smooth="yes"/>
      <point x="529" y="756"/>
      <point x="507" y="740" type="qcurve" smooth="yes"/>
      <point x="477" y="719"/>
      <point x="442" y="711" type="qcurve" smooth="yes"/>
      <point x="427" y="707"/>
      <point x="410" y="707" type="qcurve" smooth="yes"/>
      <point x="400" y="707"/>
      <point x="382" y="710"/>
      <point x="372" y="712" type="qcurve" smooth="yes"/>
      <point x="336" y="719"/>
      <point x="300" y="746" type="qcurve" smooth="yes"/>
      <point x="289" y="754"/>
      <point x="280" y="756"/>
      <point x="278" y="756" type="qcurve"/>
      <point x="276" y="756"/>
      <point x="275" y="755" type="qcurve"/>
      <point x="259" y="750"/>
      <point x="244" y="732" type="qcurve"/>
      <point x="234" y="722"/>
      <point x="230" y="715" type="qcurve" smooth="yes"/>
      <point x="228" y="713"/>
      <point x="226" y="709"/>
      <point x="225" y="707" type="qcurve"/>
      <point x="112" y="770" type="line"/>
      <point x="113" y="772"/>
      <point x="130" y="800"/>
      <point x="145" y="818" type="qcurve" smooth="yes"/>
      <point x="154" y="829"/>
      <point x="174" y="847"/>
      <point x="185" y="855" type="qcurve" smooth="yes"/>
      <point x="218" y="879"/>
      <point x="246" y="883" type="qcurve"/>
      <point x="259" y="887"/>
      <point x="280" y="887" type="qcurve" smooth="yes"/>
      <point x="286" y="887"/>
      <point x="303" y="887"/>
      <point x="327" y="882"/>
      <point x="357" y="868"/>
      <point x="377" y="853" type="qcurve" smooth="yes"/>
      <point x="393" y="840"/>
      <point x="405" y="839"/>
      <point x="407" y="839" type="qcurve"/>
      <point x="413" y="839"/>
      <point x="414" y="840" type="qcurve"/>
      <point x="431" y="843"/>
      <point x="452" y="867" type="qcurve" smooth="yes"/>
      <point x="455" y="871"/>
      <point x="461" y="879"/>
      <point x="464" y="884" type="qcurve" smooth="yes"/>
      <point x="466" y="886"/>
      <point x="468" y="890"/>
      <point x="469" y="892" type="qcurve"/>
      <point x="526" y="859" type="line"/>
    </contour>
    <contour>
      <point x="331" y="679" type="line"/>
      <point x="331" y="666" type="line"/>
      <point x="315" y="660"/>
      <point x="285" y="637"/>
      <point x="285" y="617" type="qcurve" smooth="yes"/>
      <point x="285" y="185" type="line"/>
      <point x="413" y="185" type="line"/>
      <point x="413" y="617" type="line" smooth="yes"/>
      <point x="413" y="637"/>
      <point x="383" y="660"/>
      <point x="367" y="666" type="qcurve"/>
      <point x="367" y="679" type="line"/>
      <point x="687" y="679" type="line"/>
      <point x="687" y="666" type="line"/>
      <point x="671" y="660"/>
      <point x="640" y="637"/>
      <point x="640" y="617" type="qcurve" smooth="yes"/>
      <point x="640" y="97" type="line" smooth="yes"/>
      <point x="640" y="67"/>
      <point x="611" y="29"/>
      <point x="566" y="8"/>
      <point x="513" y="0"/>
      <point x="489" y="0" type="qcurve" smooth="yes"/>
      <point x="209" y="0" type="line" smooth="yes"/>
      <point x="185" y="0"/>
      <point x="131" y="8"/>
      <point x="87" y="30"/>
      <point x="58" y="68"/>
      <point x="58" y="99" type="qcurve" smooth="yes"/>
      <point x="58" y="617" type="line" smooth="yes"/>
      <point x="58" y="636"/>
      <point x="28" y="660"/>
      <point x="12" y="666" type="qcurve"/>
      <point x="12" y="679" type="line"/>
    </contour>
  </outline>
</glyph>
<glyph name="Umacron" format="2">
  <advance width="704"/>
  <unicode hex="016A"/>
  <outline>
    <contour>
      <point x="193" y="851" type="line"/>
      <point x="509" y="851" type="line"/>
      <point x="509" y="713" type="line"/>
      <point x="193" y="713" type="line"/>
    </contour>
    <contour>
      <point x="331" y="679" type="line"/>
      <point x="331" y="666" type="line"/>
      <point x="315" y="660"/>
      <point x="285" y="637"/>
      <point x="285" y="617" type="qcurve" smooth="yes"/>
      <point x="285" y="185" type="line"/>
      <point x="413" y="185" type="line"/>
      <point x="413" y="617" type="line" smooth="yes"/>
      <point x="413" y="637"/>
      <point x="383" y="660"/>
      <point x="367" y="666" type="qcurve"/>
      <point x="367" y="679" type="line"/>
      <point x="687" y="679" type="line"/>
      <point x="687" y="666" type="line"/>
      <point x="671" y="660"/>
      <point x="640" y="637"/>
      <point x="640" y="617" type="qcurve" smooth="yes"/>
      <point x="640" y="97" type="line" smooth="yes"/>
      <point x="640" y="67"/>
      <point x="611" y="29"/>
      <point x="566" y="8"/>
      <point x="513" y="0"/>
      <point x="489" y="0" type="qcurve" smooth="yes"/>
      <point x="209" y="0" type="line" smooth="yes"/>
      <point x="185" y="0"/>
      <point x="131" y="8"/>
      <point x="87" y="30"/>
      <point x="58" y="68"/>
      <point x="58" y="99" type="qcurve" smooth="yes"/>
      <point x="58" y="617" type="line" smooth="yes"/>
      <point x="58" y="636"/>
      <point x="28" y="660"/>
      <point x="12" y="666" type="qcurve"/>
      <point x="12" y="679" type="line"/>
    </contour>
  </outline>
</glyph>
<glyph name="Ubreve" format="2">
  <advance width="704"/>
  <unicode hex="016C"/>
  <outline>
    <contour>
      <point x="546" y="884" type="line"/>
      <point x="541" y="846"/>
      <point x="507" y="780"/>
      <point x="455" y="732"/>
      <point x="389" y="704"/>
      <point x="352" y="704" type="qcurve" smooth="yes"/>
      <point x="314" y="704"/>
      <point x="248" y="732"/>
      <point x="197" y="780"/>
      <point x="163" y="846"/>
      <point x="158" y="884" type="qcurve"/>
      <point x="266" y="884" type="line"/>
      <point x="274" y="855"/>
      <point x="321" y="817"/>
      <point x="352" y="817" type="qcurve" smooth="yes"/>
      <point x="383" y="817"/>
      <point x="429" y="855"/>
      <point x="438" y="884" type="qcurve"/>
    </contour>
    <contour>
      <point x="331" y="679" type="line"/>
      <point x="331" y="666" type="line"/>
      <point x="315" y="660"/>
      <point x="285" y="637"/>
      <point x="285" y="617" type="qcurve" smooth="yes"/>
      <point x="285" y="185" type="line"/>
      <point x="413" y="185" type="line"/>
      <point x="413" y="617" type="line" smooth="yes"/>
      <point x="413" y="637"/>
      <point x="383" y="660"/>
      <point x="367" y="666" type="qcurve"/>
      <point x="367" y="679" type="line"/>
      <point x="687" y="679" type="line"/>
      <point x="687" y="666" type="line"/>
      <point x="671" y="660"/>
      <point x="640" y="637"/>
      <point x="640" y="617" type="qcurve" smooth="yes"/>
      <point x="640" y="97" type="line" smooth="yes"/>
      <point x="640" y="67"/>
      <point x="611" y="29"/>
      <point x="566" y="8"/>
      <point x="513" y="0"/>
      <point x="489" y="0" type="qcurve" smooth="yes"/>
      <point x="209" y="0" type="line" smooth="yes"/>
      <point x="185" y="0"/>
      <point x="131" y="8"/>
      <point x="87" y="30"/>
      <point x="58" y="68"/>
      <point x="58" y="99" type="qcurve" smooth="yes"/>
      <point x="58" y="617" type="line" smooth="yes"/>
      <point x="58" y="636"/>
      <point x="28" y="660"/>
      <point x="12" y="666" type="qcurve"/>
      <point x="12" y="679" type="line"/>
    </contour>
  </outline>
</glyph>
<glyph name="Uring" format="2">
  <advance width="704"/>
  <unicode hex="016E"/>
  <outline>
    <contour>
      <point x="352" y="944" type="qcurve" smooth="yes"/>
      <point x="379" y="944"/>
      <point x="426" y="925"/>
      <point x="461" y="892"/>
      <point x="481" y="847"/>
      <point x="481" y="822" type="qcurve" smooth="yes"/>
      <point x="481" y="796"/>
      <point x="461" y="752"/>
      <point x="426" y="718"/>
      <point x="379" y="699"/>
      <point x="352" y="699" type="qcurve" smooth="yes"/>
      <point x="325" y="699"/>
      <point x="278" y="718"/>
      <point x="243" y="752"/>
      <point x="223" y="796"/>
      <point x="223" y="822" type="qcurve" smooth="yes"/>
      <point x="223" y="847"/>
      <point x="243" y="892"/>
      <point x="278" y="925"/>
      <point x="325" y="944"/>
    </contour>
    <contour>
      <point x="349" y="780" type="qcurve" smooth="yes"/>
      <point x="367" y="780"/>
      <point x="393" y="804"/>
      <point x="393" y="822" type="qcurve" smooth="yes"/>
      <point x="393" y="839"/>
      <point x="367" y="863"/>
      <point x="349" y="863" type="qcurve" smooth="yes"/>
      <point x="330" y="863"/>
      <point x="306" y="839"/>
      <point x="306" y="822" type="qcurve" smooth="yes"/>
      <point x="306" y="804"/>
      <point x="330" y="780"/>
    </contour>
    <contour>
      <point x="331" y="679" type="line"/>
      <point x="331" y="666" type="line"/>
      <point x="315" y="660"/>
      <point x="285" y="637"/>
      <point x="285" y="617" type="qcurve" smooth="yes"/>
      <point x="285" y="185" type="line"/>
      <point x="413" y="185" type="line"/>
      <point x="413" y="617" type="line" smooth="yes"/>
      <point x="413" y="637"/>
      <point x="383" y="660"/>
      <point x="367" y="666" type="qcurve"/>
      <point x="367" y="679" type="line"/>
      <point x="687" y="679" type="line"/>
      <point x="687" y="666" type="line"/>
      <point x="671" y="660"/>
      <point x="640" y="637"/>
      <point x="640" y="617" type="qcurve" smooth="yes"/>
      <point x="640" y="97" type="line" smooth="yes"/>
      <point x="640" y="67"/>
      <point x="611" y="29"/>
      <point x="566" y="8"/>
      <point x="513" y="0"/>
      <point x="489" y="0" type="qcurve" smooth="yes"/>
      <point x="209" y="0" type="line" smooth="yes"/>
      <point x="185" y="0"/>
      <point x="131" y="8"/>
      <point x="87" y="30"/>
      <point x="58" y="68"/>
      <point x="58" y="99" type="qcurve" smooth="yes"/>
      <point x="58" y="617" type="line" smooth="yes"/>
      <point x="58" y="636"/>
      <point x="28" y="660"/>
      <point x="12" y="666" type="qcurve"/>
      <point x="12" y="679" type="line"/>
    </contour>
  </outline>
</glyph>
<glyph name="uring" format="2">
  <advance width="704"/>
  <unicode hex="016F"/>
  <outline>
    <contour>
      <point x="354" y="944" type="qcurve" smooth="yes"/>
      <point x="381" y="944"/>
      <point x="428" y="925"/>
      <point x="463" y="892"/>
      <point x="483" y="847"/>
      <point x="483" y="822" type="qcurve" smooth="yes"/>
      <point x="483" y="796"/>
      <point x="463" y="752"/>
      <point x="428" y="718"/>
      <point x="381" y="699"/>
      <point x="354" y="699" type="qcurve" smooth="yes"/>
      <point x="327" y="699"/>
      <point x="280" y="718"/>
      <point x="245" y="752"/>
      <point x="225" y="796"/>
      <point x="225" y="822" type="qcurve" smooth="yes"/>
      <point x="225" y="847"/>
      <point x="245" y="892"/>
      <point x="280" y="925"/>
      <point x="327" y="944"/>
    </contour>
    <contour>
      <point x="351" y="780" type="qcurve" smooth="yes"/>
      <point x="369" y="780"/>
      <point x="395" y="804"/>
      <point x="395" y="822" type="qcurve" smooth="yes"/>
      <point x="395" y="839"/>
      <point x="369" y="863"/>
      <point x="351" y="863" type="qcurve" smooth="yes"/>
      <point x="332" y="863"/>
      <point x="308" y="839"/>
      <point x="308" y="822" type="qcurve" smooth="yes"/>
      <point x="308" y="804"/>
      <point x="332" y="780"/>
    </contour>
    <contour>
      <point x="331" y="679" type="line"/>
      <point x="331" y="666" type="line"/>
      <point x="315" y="660"/>
      <point x="285" y="637"/>
      <point x="285" y="617" type="qcurve" smooth="yes"/>
      <point x="285" y="185" type="line"/>
      <point x="413" y="185" type="line"/>
      <point x="413" y="617" type="line" smooth="yes"/>
      <point x="413" y="637"/>
      <point x="383" y="660"/>
      <point x="367" y="666" type="qcurve"/>
      <point x="367" y="679" type="line"/>
      <point x="687" y="679" type="line"/>
      <point x="687" y="666" type="line"/>
      <point x="671" y="660"/>
      <point x="640" y="637"/>
      <point x="640" y="617" type="qcurve" smooth="yes"/>
      <point x="640" y="97" type="line" smooth="yes"/>
      <point x="640" y="67"/>
      <point x="611" y="29"/>
      <point x="566" y="8"/>
      <point x="513" y="0"/>
      <point x="489" y="0" type="qcurve" smooth="yes"/>
      <point x="209" y="0" type="line" smooth="yes"/>
      <point x="185" y="0"/>
      <point x="131" y="8"/>
      <point x="87" y="30"/>
      <point x="58" y="68"/>
      <point x="58" y="99" type="qcurve" smooth="yes"/>
      <point x="58" y="617" type="line" smooth="yes"/>
      <point x="58" y="636"/>
      <point x="28" y="660"/>
      <point x="12" y="666" type="qcurve"/>
      <point x="12" y="679" type="line"/>
    </contour>
  </outline>
</glyph>
<glyph name="Uhungarumlaut" format="2">
  <advance width="704"/>
  <unicode hex="0170"/>
  <outline>
    <contour>
      <point x="275" y="716" type="line"/>
      <point x="92" y="716" type="line"/>
      <point x="200" y="884" type="line"/>
      <point x="378" y="884" type="line"/>
    </contour>
    <contour>
      <point x="541" y="716" type="line"/>
      <point x="358" y="716" type="line"/>
      <point x="466" y="884" type="line"/>
      <point x="644" y="884" type="line"/>
    </contour>
    <contour>
      <point x="331" y="679" type="line"/>
      <point x="331" y="666" type="line"/>
      <point x="315" y="660"/>
      <point x="285" y="637"/>
      <point x="285" y="617" type="qcurve" smooth="yes"/>
      <point x="285" y="185" type="line"/>
      <point x="413" y="185" type="line"/>
      <point x="413" y="617" type="line" smooth="yes"/>
      <point x="413" y="637"/>
      <point x="383" y="660"/>
      <point x="367" y="666" type="qcurve"/>
      <point x="367" y="679" type="line"/>
      <point x="687" y="679" type="line"/>
      <point x="687" y="666" type="line"/>
      <point x="671" y="660"/>
      <point x="640" y="637"/>
      <point x="640" y="617" type="qcurve" smooth="yes"/>
      <point x="640" y="97" type="line" smooth="yes"/>
      <point x="640" y="67"/>
      <point x="611" y="29"/>
      <point x="566" y="8"/>
      <point x="513" y="0"/>
      <point x="489" y="0" type="qcurve" smooth="yes"/>
      <point x="209" y="0" type="line" smooth="yes"/>
      <point x="185" y="0"/>
      <point x="131" y="8"/>
      <point x="87" y="30"/>
      <point x="58" y="68"/>
      <point x="58" y="99" type="qcurve" smooth="yes"/>
      <point x="58" y="617" type="line" smooth="yes"/>
      <point x="58" y="636"/>
      <point x="28" y="660"/>
      <point x="12" y="666" type="qcurve"/>
      <point x="12" y="679" type="line"/>
    </contour>
  </outline>
</glyph>
<glyph name="uogonek" format="2">
  <advance width="704"/>
  <unicode hex="0173"/>
  <outline>
    <contour>
      <point x="331" y="679" type="line"/>
      <point x="331" y="666" type="line"/>
      <point x="315" y="660"/>
      <point x="285" y="637"/>
      <point x="285" y="617" type="qcurve" smooth="yes"/>
      <point x="285" y="185" type="line"/>
      <point x="413" y="185" type="line"/>
      <point x="413" y="617" type="line" smooth="yes"/>
      <point x="413" y="637"/>
      <point x="383" y="660"/>
      <point x="367" y="666" type="qcurve"/>
      <point x="367" y="679" type="line"/>
      <point x="687" y="679" type="line"/>
      <point x="687" y="666" type="line"/>
      <point x="671" y="660"/>
      <point x="640" y="637"/>
      <point x="640" y="617" type="qcurve" smooth="yes"/>
      <point x="640" y="97" type="line" smooth="yes"/>
      <point x="640" y="67"/>
      <point x="611" y="29"/>
      <point x="566" y="8"/>
      <point x="513" y="0"/>
      <point x="489" y="0" type="qcurve" smooth="yes"/>
      <point x="402" y="0" type="line"/>
      <point x="402" y="-125" type="line"/>
      <point x="267" y="-125" type="line"/>
      <point x="267" y="-157" type="line"/>
      <point x="401" y="-157" type="line"/>
      <point x="401" y="-247" type="line"/>
      <point x="235" y="-247" type="line" smooth="yes"/>
      <point x="225" y="-247"/>
      <point x="202" y="-245"/>
      <point x="183" y="-237"/>
      <point x="170" y="-222"/>
      <point x="170" y="-209" type="qcurve" smooth="yes"/>
      <point x="170" y="-82" type="line" smooth="yes"/>
      <point x="170" y="-70"/>
      <point x="184" y="-55"/>
      <point x="204" y="-47"/>
      <point x="226" y="-44"/>
      <point x="234" y="-44" type="qcurve" smooth="yes"/>
      <point x="298" y="-44" type="line"/>
      <point x="298" y="0" type="line"/>
      <point x="209" y="0" type="line" smooth="yes"/>
      <point x="185" y="0"/>
      <point x="131" y="8"/>
      <point x="87" y="30"/>
      <point x="58" y="68"/>
      <point x="58" y="99" type="qcurve" smooth="yes"/>
      <point x="58" y="617" type="line" smooth="yes"/>
      <point x="58" y="636"/>
      <point x="28" y="660"/>
      <point x="12" y="666" type="qcurve"/>
      <point x="12" y="679" type="line"/>
    </contour>
  </outline>
</glyph>
<glyph name="Ydieresis" format="2">
  <advance width="688"/>
  <unicode hex="0178"/>
  <outline>
    <contour>
      <point x="217" y="870" type="qcurve" smooth="yes"/>
      <point x="234" y="870"/>
      <point x="270" y="858"/>
      <point x="299" y="837"/>
      <point x="318" y="806"/>
      <point x="318" y="787" type="qcurve" smooth="yes"/>
      <point x="318" y="768"/>
      <point x="299" y="738"/>
      <point x="270" y="717"/>
      <point x="234" y="706"/>
      <point x="217" y="706" type="qcurve" smooth="yes"/>
      <point x="199" y="706"/>
      <point x="163" y="717"/>
      <point x="134" y="738"/>
      <point x="115" y="768"/>
      <point x="115" y="787" type="qcurve" smooth="yes"/>
      <point x="115" y="807"/>
      <point x="134" y="838"/>
      <point x="163" y="859"/>
      <point x="199" y="870"/>
    </contour>
    <contour>
      <point x="472" y="870" type="qcurve" smooth="yes"/>
      <point x="490" y="870"/>
      <point x="526" y="858"/>
      <point x="555" y="837"/>
      <point x="573" y="806"/>
      <point x="573" y="787" type="qcurve" smooth="yes"/>
      <point x="573" y="768"/>
      <point x="555" y="738"/>
      <point x="526" y="717"/>
      <point x="490" y="706"/>
      <point x="472" y="706" type="qcurve" smooth="yes"/>
      <point x="454" y="706"/>
      <point x="418" y="717"/>
      <point x="389" y="738"/>
      <point x="370" y="768"/>
      <point x="370" y="787" type="qcurve" smooth="yes"/>
      <point x="370" y="807"/>
      <point x="389" y="838"/>
      <point x="418" y="859"/>
      <point x="454" y="870"/>
    </contour>
    <contour>
      <point x="452" y="278" type="line"/>
      <point x="452" y="62" type="line" smooth="yes"/>
      <point x="452" y="42"/>
      <point x="481" y="19"/>
      <point x="498" y="13" type="qcurve"/>
      <point x="498" y="0" type="line"/>
      <point x="178" y="0" type="line"/>
      <point x="178" y="13" type="line"/>
      <point x="194" y="19"/>
      <point x="225" y="42"/>
      <point x="225" y="62" type="qcurve" smooth="yes"/>
      <point x="225" y="278" type="line"/>
      <point x="172" y="278" type="line" smooth="yes"/>
      <point x="133" y="278"/>
      <point x="87" y="308"/>
      <point x="63" y="355"/>
      <point x="56" y="410"/>
      <point x="56" y="436" type="qcurve" smooth="yes"/>
      <point x="56" y="443"/>
      <point x="58" y="492"/>
      <point x="58" y="525" type="qcurve" smooth="yes"/>
      <point x="58" y="617" type="line" smooth="yes"/>
      <point x="58" y="637"/>
      <point x="29" y="660"/>
      <point x="12" y="666" type="qcurve"/>
      <point x="12" y="679" type="line"/>
      <point x="331" y="679" type="line"/>
      <point x="331" y="666" type="line"/>
      <point x="315" y="660"/>
      <point x="285" y="637"/>
      <point x="285" y="617" type="qcurve" smooth="yes"/>
      <point x="285" y="401" type="line"/>
      <point x="401" y="401" type="line"/>
      <point x="401" y="617" type="line" smooth="yes"/>
      <point x="401" y="637"/>
      <point x="371" y="660"/>
      <point x="355" y="666" type="qcurve"/>
      <point x="355" y="679" type="line"/>
      <point x="674" y="679" type="line"/>
      <point x="674" y="666" type="line"/>
      <point x="657" y="660"/>
      <point x="628" y="637"/>
      <point x="628" y="617" type="qcurve" smooth="yes"/>
      <point x="628" y="525" type="line" smooth="yes"/>
      <point x="628" y="492"/>
      <point x="630" y="443"/>
      <point x="630" y="436" type="qcurve" smooth="yes"/>
      <point x="630" y="410"/>
      <point x="623" y="355"/>
      <point x="599" y="308"/>
      <point x="553" y="278"/>
      <point x="514" y="278" type="qcurve" smooth="yes"/>
    </contour>
  </outline>
</glyph>
<glyph name="zdotaccent" format="2">
  <advance width="683"/>
  <unicode hex="017C"/>
  <outline>
    <contour>
      <point x="342" y="870" type="qcurve" smooth="yes"/>
      <point x="360" y="870"/>
      <point x="396" y="858"/>
      <point x="425" y="837"/>
      <point x="443" y="806"/>
      <point x="443" y="787" type="qcurve" smooth="yes"/>
      <point x="443" y="768"/>
      <point x="425" y="738"/>
      <point x="396" y="717"/>
      <point x="360" y="706"/>
      <point x="342" y="706" type="qcurve" smooth="yes"/>
      <point x="324" y="706"/>
      <point x="288" y="717"/>
      <point x="259" y="738"/>
      <point x="240" y="768"/>
      <point x="240" y="787" type="qcurve" smooth="yes"/>
      <point x="240" y="807"/>
      <point x="259" y="838"/>
      <point x="288" y="859"/>
      <point x="324" y="870"/>
    </contour>
    <contour>
      <point x="642" y="0" type="line"/>
      <point x="36" y="0" type="line"/>
      <point x="381" y="494" type="line"/>
      <point x="111" y="494" type="line" smooth="yes"/>
      <point x="91" y="494"/>
      <point x="62" y="473"/>
      <point x="52" y="456" type="qcurve"/>
      <point x="36" y="456" type="line"/>
      <point x="36" y="679" type="line"/>
      <point x="642" y="679" type="line"/>
      <point x="642" y="494" type="line"/>
      <point x="426" y="185" type="line"/>
      <point x="566" y="185" type="line" smooth="yes"/>
      <point x="586" y="185"/>
      <point x="615" y="205"/>
      <point x="626" y="222" type="qcurve"/>
      <point x="642" y="222" type="line"/>
    </contour>
  </outline>
</glyph>
<glyph name="Zcaron" format="2">
  <advance width="683"/>
  <unicode hex="017D"/>
  <outline>
    <contour>
      <point x="468" y="716" type="line"/>
      <point x="215" y="716" type="line"/>
      <point x="112" y="884" type="line"/>
      <point x="290" y="884" type="line"/>
      <point x="341" y="804" type="line"/>
      <point x="393" y="884" type="line"/>
      <point x="571" y="884" type="line"/>
    </contour>
    <contour>
      <point x="642" y="0" type="line"/>
      <point x="36" y="0" type="line"/>
      <point x="381" y="494" type="line"/>
      <point x="111" y="494" type="line" smooth="yes"/>
      <point x="91" y="494"/>
      <point x="62" y="473"/>
      <point x="52" y="456" type="qcurve"/>
      <point x="36" y="456" type="line"/>
      <point x="36" y="679" type="line"/>
      <point x="642" y="679" type="line"/>
      <point x="642" y="494" type="line"/>
      <point x="426" y="185" type="line"/>
      <point x="566" y="185" type="line" smooth="yes"/>
      <point x="586" y="185"/>
      <point x="615" y="205"/>
      <point x="626" y="222" type="qcurve"/>
      <point x="642" y="222" type="line"/>
    </contour>
  </outline>
</glyph>
<glyph name="florin" format="2">
  <advance width="668"/>
  <unicode hex="0192"/>
  <outline>
    <contour>
      <point x="342" y="-86" type="line"/>
      <point x="342" y="0" type="line"/>
      <point x="284" y="0" type="line"/>
      <point x="284" y="-86" type="line"/>
      <point x="157" y="-86" type="line"/>
      <point x="157" y="0" type="line"/>
      <point x="18" y="0" type="line"/>
      <point x="18" y="13" type="line"/>
      <point x="34" y="19"/>
      <point x="64" y="42"/>
      <point x="64" y="62" type="qcurve" smooth="yes"/>
      <point x="64" y="617" type="line" smooth="yes"/>
      <point x="64" y="637"/>
      <point x="34" y="660"/>
      <point x="18" y="666" type="qcurve"/>
      <point x="18" y="679" type="line"/>
      <point x="157" y="679" type="line"/>
      <point x="157" y="740" type="line"/>
      <point x="284" y="740" type="line"/>
      <point x="284" y="679" type="line"/>
      <point x="342" y="679" type="line"/>
      <point x="342" y="740" type="line"/>
      <point x="469" y="740" type="line"/>
      <point x="469" y="679" type="line"/>
      <point x="475" y="679" type="line" smooth="yes"/>
      <point x="498" y="679"/>
      <point x="552" y="673"/>
      <point x="597" y="654"/>
      <point x="627" y="617"/>
      <point x="627" y="587" type="qcurve" smooth="yes"/>
      <point x="627" y="432" type="line" smooth="yes"/>
      <point x="627" y="392"/>
      <point x="588" y="352"/>
      <point x="557" y="344" type="qcurve" smooth="yes"/>
      <point x="549" y="342"/>
      <point x="532" y="341"/>
      <point x="524" y="340" type="qcurve"/>
      <point x="533" y="339"/>
      <point x="550" y="337"/>
      <point x="558" y="335" type="qcurve" smooth="yes"/>
      <point x="589" y="329"/>
      <point x="627" y="286"/>
      <point x="627" y="247" type="qcurve" smooth="yes"/>
      <point x="627" y="93" type="line" smooth="yes"/>
      <point x="627" y="63"/>
      <point x="597" y="26"/>
      <point x="552" y="6"/>
      <point x="499" y="0"/>
      <point x="475" y="0" type="qcurve" smooth="yes"/>
      <point x="469" y="0" type="line"/>
      <point x="469" y="-86" type="line"/>
    </contour>
    <contour>
      <point x="399" y="401" type="line"/>
      <point x="399" y="494" type="line"/>
      <point x="291" y="494" type="line"/>
      <point x="291" y="401" type="line"/>
    </contour>
    <contour>
      <point x="399" y="186" type="line"/>
      <point x="399" y="278" type="line"/>
      <point x="291" y="278" type="line"/>
      <point x="291" y="186" type="line"/>
    </contour>
  </outline>
</glyph>
<glyph name="AEacute" format="2">
  <advance width="1067"/>
  <unicode hex="01FC"/>
  <outline>
    <contour>
      <point x="623" y="716" type="line"/>
      <point x="440" y="716" type="line"/>
      <point x="548" y="884" type="line"/>
      <point x="726" y="884" type="line"/>
    </contour>
    <contour>
      <point x="836" y="401" type="line" smooth="yes"/>
      <point x="856" y="401"/>
      <point x="886" y="421"/>
      <point x="896" y="438" type="qcurve"/>
      <point x="912" y="438" type="line"/>
      <point x="912" y="240" type="line"/>
      <point x="896" y="240" type="line"/>
      <point x="886" y="257"/>
      <point x="856" y="278"/>
      <point x="836" y="278" type="qcurve" smooth="yes"/>
      <point x="689" y="278" type="line"/>
      <point x="689" y="185" type="line"/>
      <point x="950" y="185" type="line" smooth="yes"/>
      <point x="970" y="185"/>
      <point x="1000" y="205"/>
      <point x="1010" y="222" type="qcurve"/>
      <point x="1026" y="222" type="line"/>
      <point x="1026" y="0" type="line"/>
      <point x="412" y="0" type="line"/>
      <point x="412" y="13" type="line"/>
      <point x="428" y="19"/>
      <point x="458" y="41"/>
      <point x="458" y="61" type="qcurve" smooth="yes"/>
      <point x="458" y="185" type="line"/>
      <point x="310" y="185" type="line"/>
      <point x="310" y="61" type="line" smooth="yes"/>
      <point x="310" y="41"/>
      <point x="340" y="19"/>
      <point x="356" y="13" type="qcurve"/>
      <point x="356" y="0" type="line"/>
      <point x="37" y="0" type="line"/>
      <point x="37" y="13" type="line"/>
      <point x="52" y="19"/>
      <point x="83" y="42"/>
      <point x="83" y="61" type="qcurve" smooth="yes"/>
      <point x="83" y="256" type="line" smooth="yes"/>
      <point x="83" y="281"/>
      <point x="82" y="314"/>
      <point x="82" y="322" type="qcurve" smooth="yes"/>
      <point x="82" y="330"/>
      <point x="82" y="346"/>
      <point x="83" y="354" type="qcurve" smooth="yes"/>
      <point x="84" y="375"/>
      <point x="107" y="429"/>
      <point x="141" y="487"/>
      <point x="180" y="544"/>
      <point x="213" y="591"/>
      <point x="235" y="626"/>
      <point x="235" y="633" type="qcurve" smooth="yes"/>
      <point x="235" y="646"/>
      <point x="214" y="661"/>
      <point x="203" y="665" type="qcurve"/>
      <point x="203" y="679" type="line"/>
      <point x="1026" y="679" type="line"/>
      <point x="1026" y="456" type="line"/>
      <point x="1010" y="456" type="line"/>
      <point x="1000" y="473"/>
      <point x="970" y="494"/>
      <point x="950" y="494" type="qcurve" smooth="yes"/>
      <point x="689" y="494" type="line"/>
      <point x="689" y="401" type="line"/>
    </contour>
    <contour>
      <point x="347" y="415" type="line"/>
      <point x="335" y="398"/>
      <point x="320" y="372"/>
      <point x="312" y="348"/>
      <point x="310" y="323"/>
      <point x="310" y="308" type="qcurve"/>
      <point x="458" y="308" type="line"/>
      <point x="458" y="555" type="line"/>
    </contour>
  </outline>
</glyph>
<glyph name="uni0218" format="2">
  <advance width="673"/>
  <unicode hex="0218"/>
  <outline>
    <contour>
      <point x="622" y="92" type="line" smooth="yes"/>
      <point x="622" y="62"/>
      <point x="593" y="25"/>
      <point x="548" y="6"/>
      <point x="495" y="0"/>
      <point x="471" y="0" type="qcurve" smooth="yes"/>
      <point x="197" y="0" type="line" smooth="yes"/>
      <point x="173" y="0"/>
      <point x="120" y="6"/>
      <point x="75" y="25"/>
      <point x="46" y="62"/>
      <point x="46" y="92" type="qcurve" smooth="yes"/>
      <point x="46" y="246" type="line"/>
      <point x="319" y="246" type="line"/>
      <point x="319" y="233" type="line"/>
      <point x="303" y="228"/>
      <point x="273" y="205"/>
      <point x="273" y="185" type="qcurve"/>
      <point x="395" y="185" type="line"/>
      <point x="395" y="277" type="line"/>
      <point x="273" y="277" type="line" smooth="yes"/>
      <point x="246" y="277"/>
      <point x="203" y="276"/>
      <point x="198" y="276" type="qcurve" smooth="yes"/>
      <point x="175" y="276"/>
      <point x="121" y="282"/>
      <point x="76" y="302"/>
      <point x="46" y="339"/>
      <point x="46" y="370" type="qcurve" smooth="yes"/>
      <point x="46" y="586" type="line" smooth="yes"/>
      <point x="46" y="616"/>
      <point x="75" y="653"/>
      <point x="120" y="672"/>
      <point x="173" y="678"/>
      <point x="197" y="678" type="qcurve" smooth="yes"/>
      <point x="471" y="678" type="line" smooth="yes"/>
      <point x="495" y="678"/>
      <point x="548" y="672"/>
      <point x="593" y="653"/>
      <point x="622" y="616"/>
      <point x="622" y="586" type="qcurve" smooth="yes"/>
      <point x="622" y="431" type="line"/>
      <point x="349" y="431" type="line"/>
      <point x="349" y="445" type="line"/>
      <point x="365" y="451"/>
      <point x="395" y="474"/>
      <point x="395" y="493" type="qcurve"/>
      <point x="273" y="493" type="line"/>
      <point x="273" y="401" type="line"/>
      <point x="395" y="401" type="line" smooth="yes"/>
      <point x="422" y="401"/>
      <point x="465" y="402"/>
      <point x="470" y="402" type="qcurve" smooth="yes"/>
      <point x="494" y="402"/>
      <point x="547" y="396"/>
      <point x="592" y="376"/>
      <point x="622" y="339"/>
      <point x="622" y="308" type="qcurve" smooth="yes"/>
    </contour>
    <contour>
      <point x="294" y="-203" type="line"/>
      <point x="264" y="-194"/>
      <point x="218" y="-149"/>
      <point x="218" y="-116" type="qcurve" smooth="yes"/>
      <point x="218" y="-94"/>
      <point x="238" y="-59"/>
      <point x="271" y="-35"/>
      <point x="311" y="-23"/>
      <point x="331" y="-23" type="qcurve" smooth="yes"/>
      <point x="350" y="-23"/>
      <point x="391" y="-35"/>
      <point x="424" y="-59"/>
      <point x="445" y="-94"/>
      <point x="445" y="-116" type="qcurve" smooth="yes"/>
      <point x="445" y="-143"/>
      <point x="426" y="-189"/>
      <point x="395" y="-227"/>
      <point x="354" y="-258"/>
      <point x="332" y="-270" type="qcurve"/>
      <point x="294" y="-270" type="line"/>
    </contour>
  </outline>
</glyph>
<glyph name="uni021A" format="2">
  <advance width="565"/>
  <unicode hex="021A"/>
  <outline>
    <contour>
      <point x="19" y="679" type="line"/>
      <point x="544" y="679" type="line"/>
      <point x="544" y="456" type="line"/>
      <point x="528" y="456" type="line"/>
      <point x="518" y="473"/>
      <point x="489" y="494"/>
      <point x="469" y="494" type="qcurve" smooth="yes"/>
      <point x="396" y="494" type="line"/>
      <point x="396" y="62" type="line" smooth="yes"/>
      <point x="396" y="42"/>
      <point x="425" y="19"/>
      <point x="442" y="13" type="qcurve"/>
      <point x="442" y="0" type="line"/>
      <point x="123" y="0" type="line"/>
      <point x="123" y="13" type="line"/>
      <point x="139" y="19"/>
      <point x="169" y="42"/>
      <point x="169" y="62" type="qcurve" smooth="yes"/>
      <point x="169" y="494" type="line"/>
      <point x="95" y="494" type="line" smooth="yes"/>
      <point x="75" y="494"/>
      <point x="46" y="473"/>
      <point x="36" y="456" type="qcurve"/>
      <point x="19" y="456" type="line"/>
    </contour>
    <contour>
      <point x="234" y="-203" type="line"/>
      <point x="204" y="-194"/>
      <point x="158" y="-149"/>
      <point x="158" y="-116" type="qcurve" smooth="yes"/>
      <point x="158" y="-94"/>
      <point x="178" y="-59"/>
      <point x="211" y="-35"/>
      <point x="251" y="-23"/>
      <point x="271" y="-23" type="qcurve" smooth="yes"/>
      <point x="290" y="-23"/>
      <point x="331" y="-35"/>
      <point x="364" y="-59"/>
      <point x="385" y="-94"/>
      <point x="385" y="-116" type="qcurve" smooth="yes"/>
      <point x="385" y="-143"/>
      <point x="366" y="-189"/>
      <point x="335" y="-227"/>
      <point x="294" y="-258"/>
      <point x="272" y="-270" type="qcurve"/>
      <point x="234" y="-270" type="line"/>
    </contour>
  </outline>
</glyph>
<glyph name="breve" format="2">
  <advance width="833"/>
  <unicode hex="02D8"/>
  <outline>
    <contour>
      <point x="499" y="884" type="line"/>
      <point x="494" y="846"/>
      <point x="460" y="780"/>
      <point x="408" y="732"/>
      <point x="342" y="704"/>
      <point x="305" y="704" type="qcurve" smooth="yes"/>
      <point x="267" y="704"/>
      <point x="201" y="732"/>
      <point x="150" y="780"/>
      <point x="116" y="846"/>
      <point x="111" y="884" type="qcurve"/>
      <point x="219" y="884" type="line"/>
      <point x="227" y="855"/>
      <point x="274" y="817"/>
      <point x="305" y="817" type="qcurve" smooth="yes"/>
      <point x="336" y="817"/>
      <point x="382" y="855"/>
      <point x="391" y="884" type="qcurve"/>
    </contour>
  </outline>
</glyph>
<glyph name="ring" format="2">
  <advance width="373"/>
  <unicode hex="02DA"/>
  <outline>
    <contour>
      <point x="197" y="944" type="qcurve" smooth="yes"/>
      <point x="224" y="944"/>
      <point x="271" y="925"/>
      <point x="306" y="892"/>
      <point x="326" y="847"/>
      <point x="326" y="822" type="qcurve" smooth="yes"/>
      <point x="326" y="796"/>
      <point x="306" y="752"/>
      <point x="271" y="718"/>
      <point x="224" y="699"/>
      <point x="197" y="699" type="qcurve" smooth="yes"/>
      <point x="170" y="699"/>
      <point x="123" y="718"/>
      <point x="88" y="752"/>
      <point x="68" y="796"/>
      <point x="68" y="822" type="qcurve" smooth="yes"/>
      <point x="68" y="847"/>
      <point x="88" y="892"/>
      <point x="123" y="925"/>
      <point x="170" y="944"/>
    </contour>
    <contour>
      <point x="194" y="780" type="qcurve" smooth="yes"/>
      <point x="212" y="780"/>
      <point x="238" y="804"/>
      <point x="238" y="822" type="qcurve" smooth="yes"/>
      <point x="238" y="839"/>
      <point x="212" y="863"/>
      <point x="194" y="863" type="qcurve" smooth="yes"/>
      <point x="175" y="863"/>
      <point x="151" y="839"/>
      <point x="151" y="822" type="qcurve" smooth="yes"/>
      <point x="151" y="804"/>
      <point x="175" y="780"/>
    </contour>
  </outline>
</glyph>
<glyph name="hungarumlaut" format="2">
  <advance width="687"/>
  <unicode hex="02DD"/>
  <outline>
    <contour>
      <point x="265" y="716" type="line"/>
      <point x="82" y="716" type="line"/>
      <point x="190" y="884" type="line"/>
      <point x="368" y="884" type="line"/>
    </contour>
    <contour>
      <point x="531" y="716" type="line"/>
      <point x="348" y="716" type="line"/>
      <point x="456" y="884" type="line"/>
      <point x="634" y="884" type="line"/>
    </contour>
  </outline>
</glyph>
<glyph name="uni037E" format="2">
  <advance width="280"/>
  <unicode hex="037E"/>
  <outline>
    <contour>
      <point x="139" y="680" type="qcurve" smooth="yes"/>
      <point x="158" y="680"/>
      <point x="199" y="667"/>
      <point x="231" y="643"/>
      <point x="252" y="609"/>
      <point x="252" y="587" type="qcurve" smooth="yes"/>
      <point x="252" y="565"/>
      <point x="231" y="531"/>
      <point x="199" y="507"/>
      <point x="158" y="495"/>
      <point x="139" y="495" type="qcurve" smooth="yes"/>
      <point x="119" y="495"/>
      <point x="79" y="507"/>
      <point x="46" y="531"/>
      <point x="25" y="565"/>
      <point x="25" y="587" type="qcurve" smooth="yes"/>
      <point x="25" y="609"/>
      <point x="46" y="644"/>
      <point x="79" y="668"/>
      <point x="119" y="680"/>
    </contour>
    <contour>
      <point x="101" y="7" type="line"/>
      <point x="71" y="16"/>
      <point x="25" y="61"/>
      <point x="25" y="94" type="qcurve" smooth="yes"/>
      <point x="25" y="116"/>
      <point x="45" y="151"/>
      <point x="78" y="175"/>
      <point x="118" y="187"/>
      <point x="138" y="187" type="qcurve" smooth="yes"/>
      <point x="157" y="187"/>
      <point x="198" y="175"/>
      <point x="231" y="151"/>
      <point x="252" y="116"/>
      <point x="252" y="94" type="qcurve" smooth="yes"/>
      <point x="252" y="67"/>
      <point x="233" y="21"/>
      <point x="202" y="-17"/>
      <point x="161" y="-48"/>
      <point x="139" y="-60" type="qcurve"/>
      <point x="101" y="-60" type="line"/>
    </contour>
  </outline>
</glyph>
